<svg width="0" height="0" style="position:absolute" xmlns="http://www.w3.org/2000/svg" xmlns:xlink="http://www.w3.org/1999/xlink"><symbol viewBox="0 0 16 16" id="x-left" xmlns="http://www.w3.org/2000/svg"><path fill-rule="evenodd" d="M9.78 12.78a.75.75 0 01-1.06 0L4.47 8.53a.75.75 0 010-1.06l4.25-4.25a.75.75 0 011.06 1.06L6.06 8l3.72 3.72a.75.75 0 010 1.06z"/></symbol><symbol viewBox="0 0 16 16" id="x-right" xmlns="http://www.w3.org/2000/svg"><path fill-rule="evenodd" d="M6.22 3.22a.75.75 0 011.06 0l4.25 4.25a.75.75 0 010 1.06l-4.25 4.25a.75.75 0 01-1.06-1.06L9.94 8 6.22 4.28a.75.75 0 010-1.06z"/></symbol></svg>