<?xml version="1.0" standalone="no"?>
<!DOCTYPE svg PUBLIC "-//W3C//DTD SVG 1.1//EN" "http://www.w3.org/Graphics/SVG/1.1/DTD/svg11.dtd">
<svg xmlns="http://www.w3.org/2000/svg">
<defs >
<font id="Gayathri" horiz-adv-x="1752" ><font-face
    font-family="Gayathri Thin"
    units-per-em="2048"
    panose-1="0 0 4 3 0 0 0 0 0 0"
    ascent="1500"
    descent="-1000"
    alphabetic="0" />
<glyph unicode=" " glyph-name="space" horiz-adv-x="500" />
<glyph unicode="!" glyph-name="exclam" horiz-adv-x="385" d="M247 355Q246 326 194 326Q139 326 138 355L100 1334Q99 1381 194 1381Q286 1381 285 1334L247 355ZM193 -24Q100 -24 100 68Q100 161 193 161Q285 161 285 68Q285 -24 193 -24Z" />
<glyph unicode="&quot;" glyph-name="quotedbl" horiz-adv-x="628" d="M417 745Q378 745 375 773L346 1216Q343 1266 417 1266Q489 1266 486 1216L457 773Q456 745 417 745ZM171 742Q132 742 129 770L100 1213Q97 1263 171 1263Q243 1263 240 1213L211 770Q210
742 171 742Z" />
<glyph unicode="#" glyph-name="numbersign" horiz-adv-x="1309" d="M776 3Q771 -24 719 -24Q672 -24 674 5Q674 10 675 14L745 393H443L370 3Q365 -24 321 -24Q268 -24 268 5Q268 11 269 14L340 393H161Q100 393 100 428Q100 463 161 463H353L431 883H230Q168
883 168 918Q168 953 230 953H444L519 1355Q524 1381 572 1381Q621 1381 621 1353Q621 1348 620 1345L547 953H850L925 1355Q930 1381 977 1381Q1027 1381 1027 1353Q1027 1348 1026 1345L953 953H1148Q1209 953 1209 918Q1209 883 1148 883H940L862 463H1079Q1141
463 1141 428Q1141 393 1079 393H849L776 3ZM758 463L837 883H534L456 463H758Z" />
<glyph unicode="$" glyph-name="dollar" horiz-adv-x="1102" d="M551 -219Q521 -219 521 -205V-26Q363 -10 262 72Q142 169 103 341Q100 359 100 359Q100 393 162 393Q216 393 222 363Q256 197 362 112Q420 65 521 44V639Q343 678 258 753Q139 859 139 1010Q139
1158 257 1263Q357 1352 521 1372V1466Q521 1480 551 1480Q581 1480 581 1466V1373Q743 1361 840 1277Q937 1193 967 1059Q971 1043 971 1034Q971 999 908 999Q855 999 849 1030Q822 1166 738 1239Q681 1288 581 1304V752Q787 722 884 636Q1002 530 1002 370Q1002
224 893 108Q778 -14 581 -27V-205Q581 -219 551 -219ZM521 763V1302Q417 1276 360 1226Q262 1139 262 1010Q262 921 332 857Q400 796 521 763ZM581 42Q708 60 785 141Q878 239 880 370Q882 469 810 533Q730 604 581 630V42Z" />
<glyph unicode="%" glyph-name="percent" horiz-adv-x="1644" d="M494 -8Q485 -24 456 -24Q416 -24 416 -1Q416 0 419 9L1150 1365Q1159 1381 1187 1381Q1228 1381 1228 1359Q1228 1360 1224 1348L494 -8ZM408 659Q261 659 181 768T100 1020Q100 1162 179 1271T408
1381Q557 1381 636 1271T716 1020Q716 880 636 770T408 659ZM408 728Q514 728 553 830T593 1020Q593 1109 554 1210T408 1312Q302 1311 263 1210T223 1020Q224 932 263 830T408 728ZM1236 -24Q1087 -24 1008 86T928 337Q928 478 1008 588T1236 699Q1384 699 1464
590T1544 337Q1544 195 1465 86T1236 -24ZM1236 46Q1343 46 1382 147T1421 337Q1421 426 1382 527T1235 629Q1128 629 1090 528T1051 337Q1051 249 1090 148T1236 46Z" />
<glyph unicode="&amp;" glyph-name="ampersand" horiz-adv-x="1276" d="M1113 -24Q1076 -24 1059 -4Q1008 57 904 179Q720 -24 485 -24Q337 -24 219 65T100 315Q100 479 203 577T431 752Q370 829 295 927T219 1127Q219 1255 326 1318T543 1381Q665 1381 762 1314T860
1111Q860 977 770 889T577 739Q641 659 711 575L888 361Q946 513 948 638Q948 673 1009 673Q1070 670 1070 639Q1070 443 966 268L1170 26Q1176 19 1176 11Q1176 -24 1113 -24ZM522 807Q603 860 670 932T737 1111Q737 1311 543 1311Q342 1311 342 1127Q342 1041
406 957T522 807ZM485 46Q687 46 834 264Q744 370 650 484Q609 534 569 584T487 684Q386 620 305 536T223 320Q223 46 485 46Z" />
<glyph unicode="&apos;" glyph-name="quotesingle" horiz-adv-x="340" d="M171 880Q132 880 129 908L100 1351Q97 1401 171 1401Q243 1401 240 1351L211 908Q210 880 171 880Z" />
<glyph unicode="(" glyph-name="parenleft" horiz-adv-x="640" d="M477 -379Q441 -379 424 -361Q100 -12 100 511Q100 1035 424 1383Q442 1402 478 1402Q491 1402 507 1398Q540 1388 540 1367Q540 1359 533 1351Q223 1019 223 511Q223 6 533 -328Q540 -335 540
-344Q540 -365 507 -375Q489 -379 477 -379Z" />
<glyph unicode=")" glyph-name="parenright" horiz-adv-x="679" d="M202 -379Q238 -379 255 -361Q579 -12 579 511Q579 1035 255 1383Q237 1402 201 1402Q188 1402 172 1398Q139 1388 139 1367Q139 1359 146 1351Q456 1019 456 511Q456 6 146 -328Q139 -335 139
-344Q139 -365 172 -375Q190 -379 202 -379Z" />
<glyph unicode="*" glyph-name="asterisk" horiz-adv-x="640" d="M259 1015L60 1096Q50 1100 50 1110Q50 1114 52 1122Q59 1140 69 1140Q72 1140 74 1139L282 1087L297 1301Q297 1307 302 1312Q307 1316 320 1316Q330 1316 337 1313Q342 1309 342 1301L358 1087L566
1139Q568 1140 571 1140Q581 1140 588 1122Q590 1114 590 1110Q590 1100 580 1096L381 1015L495 833Q498 824 498 824Q498 823 498 822T497 820Q495 815 485 807Q475 800 468 800Q463 800 457 806L320 970L183 806Q177 800 172 800Q166 800 155 807Q143 817 143
824Q143 829 146 833L259 1015Z" />
<glyph unicode="+" glyph-name="plus" horiz-adv-x="1010" d="M162 390Q100 390 100 425Q100 460 162 460H444V815Q444 850 505 850Q566 850 566 815V460H848Q910 460 910 425Q910 390 848 390H566V35Q566 0 505 0Q444 0 444 35V390H162Z" />
<glyph unicode="," glyph-name="comma" horiz-adv-x="355" d="M165 -151Q141 -159 126 -159Q102 -159 102 -147Q102 -142 111 -138Q149 -122 171 -82Q186 -54 190 -22Q172 -25 171 -25Q80 -25 80 68Q80 161 171 161Q214 161 244 130Q275 96 275 42Q275 -14 245
-71Q214 -129 165 -151Z" />
<glyph unicode="-" glyph-name="hyphen" horiz-adv-x="773" d="M612 450H162Q100 450 100 485Q100 521 162 521H612Q673 521 673 485Q673 450 612 450Z" />
<glyph unicode="." glyph-name="period" horiz-adv-x="385" d="M193 0Q100 0 100 93Q100 185 193 185Q285 185 285 93Q285 0 193 0Z" />
<glyph unicode="/" glyph-name="slash" horiz-adv-x="808" d="M179 -9Q173 -24 140 -24Q100 -24 100 -6Q100 -3 102 1L629 1365Q635 1381 668 1381Q708 1381 708 1363Q708 1364 705 1355L179 -9Z" />
<glyph unicode="0" glyph-name="zero" horiz-adv-x="1088" d="M544 -24Q288 -24 184 220T80 678Q80 890 183 1135T544 1380Q801 1380 904 1135T1008 678Q1008 465 905 221T544 -24ZM544 46Q749 46 814 284T879 678Q879 833 814 1071T544 1310Q339 1310 274 1072T209
678Q209 522 274 284T544 46Z" />
<glyph unicode="1" glyph-name="one" horiz-adv-x="577" d="M416 -24Q354 -24 354 12V1080Q244 968 115 968Q50 968 50 1003Q50 1032 96 1037Q189 1052 259 1130Q336 1217 352 1344Q357 1381 416 1381Q477 1381 477 1345V12Q477 -24 416 -24Z" />
<glyph unicode="2" glyph-name="two" horiz-adv-x="1079" d="M911 0H162Q100 0 100 35Q100 236 166 348Q213 428 284 471T432 552Q566 619 710 719T855 990Q855 1311 546 1311Q427 1311 345 1247Q232 1157 232 987V967Q232 933 172 933Q114 933 109 965Q106 985
106 1005Q106 1216 297 1323Q401 1381 546 1381Q719 1381 849 1275T979 987Q979 796 822 686T514 500Q448 467 385 430T282 326Q230 236 224 70H911Q972 70 972 35Q972 0 911 0Z" />
<glyph unicode="3" glyph-name="three" horiz-adv-x="1069" d="M549 -24Q371 -24 236 72T100 365Q100 400 161 400Q223 400 223 365Q223 46 549 46Q847 46 847 364Q847 607 625 662Q588 671 544 671L482 670Q421 670 421 705Q421 737 480 740Q504 741 546 745Q588
750 619 761Q809 824 809 1018Q807 1308 509 1310Q212 1310 223 1004L224 981Q225 946 161 946Q102 946 101 979V1005Q101 1380 509 1380Q671 1380 801 1288T931 1018Q931 820 722 714Q969 611 969 362Q969 182 843 79T549 -24Z" />
<glyph unicode="4" glyph-name="four" horiz-adv-x="1116" d="M757 -24Q696 -24 696 12V345H112Q50 345 50 380Q50 388 56 395L698 1354Q716 1381 757 1381Q819 1381 819 1345V415H1004Q1066 415 1066 380Q1066 345 1004 345H819V12Q819 -24 757 -24ZM696 415V1216L161
415H696Z" />
<glyph unicode="5" glyph-name="five" horiz-adv-x="1093" d="M993 414Q993 -24 540 -24Q178 -24 101 296Q100 299 100 304Q100 339 160 339Q214 339 221 309Q283 45 540 45Q695 45 782 157T870 414Q870 563 783 672T538 781Q363 781 268 632Q245 595 207 595Q143
595 143 632Q143 640 144 645L232 1321Q237 1356 293 1356H887Q948 1356 948 1321Q948 1286 887 1286H350L285 786Q398 852 538 852Q993 852 993 414Z" />
<glyph unicode="6" glyph-name="six" horiz-adv-x="1117" d="M581 -24Q365 -24 247 117Q159 222 123 394Q100 508 100 649Q100 830 134 959Q246 1379 608 1379Q916 1379 988 1090Q988 1087 988 1085T989 1080Q989 1044 929 1044Q875 1044 868 1075Q813 1309 608
1309Q458 1309 374 1194T255 949Q234 870 228 795T218 639Q329 860 581 860Q758 860 879 752Q1017 627 1017 418Q1017 252 927 136Q804 -24 581 -24ZM581 46Q733 46 813 161T894 418Q894 560 814 675T581 790Q429 790 349 675T268 418Q268 276 348 161T581 46Z"
/>
<glyph unicode="7" glyph-name="seven" horiz-adv-x="1026" d="M501 10Q500 -24 437 -24Q378 -24 378 10Q378 369 516 744Q617 1016 820 1287H112Q50 1287 50 1322Q50 1357 112 1357H914Q941 1357 960 1346Q976 1335 976 1323Q976 1315 968 1305Q743 1019 636
730Q572 557 542 376T501 10Z" />
<glyph unicode="8" glyph-name="eight" horiz-adv-x="1109" d="M554 -24Q384 -24 242 72T100 360Q100 603 361 711Q138 814 138 1028Q138 1204 267 1292T554 1380Q712 1380 841 1292T971 1028Q971 814 748 711Q1009 603 1009 360Q1009 169 867 73T554 -24ZM555
745Q848 745 848 1028Q848 1310 554 1310Q261 1310 261 1028Q261 745 555 745ZM554 45Q886 45 886 360Q886 674 555 674Q223 674 223 360Q223 45 554 45Z" />
<glyph unicode="9" glyph-name="nine" horiz-adv-x="1117" d="M536 1379Q752 1379 870 1238Q958 1133 994 961Q1017 847 1017 706Q1017 525 983 396Q871 -24 509 -24Q201 -24 129 265Q129 267 129 269T128 274Q128 311 188 311Q242 311 249 280Q304 46 509 46Q659
46 743 161T862 406Q883 486 889 560T899 716Q788 495 536 495Q358 495 238 603Q100 726 100 937Q100 1101 190 1219Q314 1379 536 1379ZM536 1309Q384 1309 304 1194T223 937Q223 795 303 680T536 565Q688 565 768 680T849 937Q849 1079 769 1194T536 1309Z" />
<glyph unicode=":" glyph-name="colon" horiz-adv-x="385" d="M193 671Q100 671 100 764Q100 856 193 856Q285 856 285 764Q285 671 193 671ZM193 150Q100 150 100 243Q100 335 193 335Q285 335 285 243Q285 150 193 150Z" />
<glyph unicode=";" glyph-name="semicolon" horiz-adv-x="395" d="M193 497Q100 497 100 589Q100 682 193 682Q285 682 285 589Q285 497 193 497ZM185 -152Q161 -160 146 -160Q122 -160 122 -148Q122 -143 131 -139Q169 -123 191 -83Q206 -55 210 -23Q192 -26
191 -26Q100 -26 100 67Q100 160 191 160Q234 160 264 129Q295 95 295 41Q295 -15 265 -72Q234 -130 185 -152Z" />
<glyph unicode="&lt;" glyph-name="less" horiz-adv-x="1156" d="M995 80Q971 80 953 89L120 527Q100 537 100 553Q100 568 120 578L953 1016Q971 1025 995 1025Q1021 1025 1040 1014Q1056 1004 1056 990Q1056 975 1036 964L252 553L1036 141Q1056 130 1056 115Q1056
101 1040 91Q1021 80 995 80Z" />
<glyph unicode="=" glyph-name="equal" horiz-adv-x="1028" d="M866 720H162Q100 720 100 755Q100 791 162 791H866Q928 791 928 755Q928 720 866 720ZM866 380H162Q100 380 100 415Q100 451 162 451H866Q928 451 928 415Q928 380 866 380Z" />
<glyph unicode="&gt;" glyph-name="greater" horiz-adv-x="1196" d="M201 80Q225 80 243 89L1076 527Q1096 537 1096 553Q1096 568 1076 578L243 1016Q225 1025 201 1025Q175 1025 156 1014Q140 1004 140 990Q140 975 160 964L944 553L160 141Q140 130 140 115Q140
101 156 91Q175 80 201 80Z" />
<glyph unicode="?" glyph-name="question" horiz-adv-x="1056" d="M524 235Q464 235 461 269Q459 309 459 331Q459 450 503 523Q532 570 578 617T665 702Q833 861 833 1017Q833 1311 537 1311Q378 1311 295 1210Q225 1123 223 988Q223 954 164 954Q100 954 100
988Q100 1137 184 1240Q299 1381 537 1381Q695 1381 825 1287T956 1017Q956 903 902 821T770 666Q651 554 617 497Q581 434 583 341L584 270Q584 235 524 235ZM525 -24Q433 -24 433 69Q433 161 525 161Q617 161 617 69Q617 -24 525 -24Z" />
<glyph unicode="@" glyph-name="at" horiz-adv-x="1907" d="M929 -403Q649 -403 435 -252Q100 -15 100 461Q100 872 341 1121Q590 1377 978 1377Q1341 1377 1572 1152Q1807 923 1807 533Q1807 296 1693 135Q1581 -25 1402 -25Q1253 -25 1202 131Q1082 -25 916
-26Q723 -26 620 113T517 433Q517 614 619 763T919 913Q1163 913 1243 717L1266 880Q1270 916 1330 913Q1393 909 1388 879L1304 301Q1297 256 1297 209Q1297 40 1403 45Q1500 50 1579 161Q1685 309 1685 533Q1687 902 1465 1117Q1271 1306 982 1308Q664 1308 449
1087Q223 854 223 461Q223 9 530 -209Q708 -334 929 -334Q1043 -334 1151 -298Q1163 -294 1182 -294Q1218 -294 1235 -311Q1243 -319 1243 -328Q1243 -349 1212 -359Q1074 -403 929 -403ZM916 45Q1062 45 1129 188T1196 454Q1196 579 1134 711T919 843Q775 843
708 700T640 433Q640 308 703 177T916 45Z" />
<glyph unicode="A" glyph-name="A" horiz-adv-x="1333" d="M1239 -24Q1181 -24 1169 3L979 448H294L102 -9Q96 -24 61 -24Q25 -24 25 -6Q25 -5 27 1L594 1356Q605 1381 664 1381Q724 1381 735 1354L1304 21Q1308 13 1308 9Q1308 -24 1239 -24ZM949 518L633 1259L323
518H949Z" />
<glyph unicode="B" glyph-name="B" horiz-adv-x="1225" d="M779 0H162Q100 0 100 35V1322Q100 1357 162 1357H722Q870 1357 977 1256T1085 1000Q1085 807 909 692Q1150 594 1150 357Q1150 201 1039 101T779 0ZM722 713Q829 713 895 806T962 1000Q962 1101 896
1194T722 1287H223V713H722ZM779 70Q888 70 957 161T1027 357Q1027 461 958 552T779 643H223V70H779Z" />
<glyph unicode="C" glyph-name="C" horiz-adv-x="1302" d="M1252 404Q1252 398 1248 380Q1207 186 1037 81T677 -24Q364 -24 207 183T50 682Q50 976 217 1178T693 1381Q878 1381 1045 1277T1246 978Q1250 962 1250 952Q1250 918 1187 918Q1132 918 1127 950Q1105
1114 977 1212T693 1311Q429 1311 301 1115T173 682Q173 449 292 248T677 46Q837 46 970 146T1130 408Q1135 438 1190 438Q1252 438 1252 404Z" />
<glyph unicode="D" glyph-name="D" horiz-adv-x="1275" d="M627 0H161Q100 0 100 35V1322Q100 1357 161 1357H627Q915 1357 1070 1153T1225 674Q1225 400 1070 200T627 0ZM627 70Q869 70 986 264T1103 675Q1103 890 986 1088T627 1287H223V70H627Z" />
<glyph unicode="E" glyph-name="E" horiz-adv-x="1204" d="M1067 0H169Q100 0 100 39V1319Q100 1358 169 1358H1067Q1129 1358 1129 1323Q1129 1288 1067 1288H223V715H940Q1001 715 1001 680Q1001 645 940 645H223V70H1067Q1129 70 1129 35Q1129 0 1067 0Z" />
<glyph unicode="F" glyph-name="F" horiz-adv-x="1113" d="M161 -24Q100 -24 100 11V1322Q100 1357 161 1357H1002Q1063 1357 1063 1322Q1063 1287 1002 1287H223V707H883Q945 707 945 672Q945 637 883 637H223V11Q223 -24 161 -24Z" />
<glyph unicode="G" glyph-name="G" horiz-adv-x="1411" d="M1140 105Q961 -24 723 -24Q406 -24 228 172T50 678Q50 989 235 1185T736 1381Q921 1381 1102 1285T1327 993Q1334 967 1334 953Q1334 918 1273 918Q1215 918 1211 950Q1188 1123 1043 1217T736 1311Q465
1311 319 1122T173 678Q173 425 311 236T723 46Q904 46 1044 148Q1214 271 1214 407V603H728Q666 603 666 638Q666 673 728 673H1275Q1336 673 1336 638V406Q1336 327 1269 238T1140 105Z" />
<glyph unicode="H" glyph-name="H" horiz-adv-x="1306" d="M1144 -24Q1083 -24 1083 11V643H223V11Q223 -24 162 -24Q100 -24 100 11V1346Q100 1381 162 1381Q223 1381 223 1346V713H1083V1346Q1083 1381 1144 1381Q1206 1381 1206 1346V11Q1206 -24 1144 -24Z" />
<glyph unicode="I" glyph-name="I" horiz-adv-x="223" d="M111 -23Q50 -23 50 12V1346Q50 1381 111 1381Q173 1381 173 1346V12Q173 -23 111 -23Z" />
<glyph unicode="J" glyph-name="J" horiz-adv-x="886" d="M404 -24Q250 -25 138 68T25 326Q25 361 87 361Q148 361 148 326Q148 46 404 46Q663 46 663 331V1347Q663 1382 724 1382Q786 1382 786 1347V331Q786 165 674 71T404 -24Z" />
<glyph unicode="K" glyph-name="K" horiz-adv-x="1187" d="M1084 -24Q1026 -24 1007 2L489 715L223 463V6Q223 -24 161 -24Q100 -24 100 6V1350Q100 1380 161 1380Q223 1380 223 1350V569L1065 1367Q1079 1380 1110 1380Q1124 1380 1134 1377Q1160 1369 1160 1356Q1160
1351 1154 1345L589 810L1157 28Q1162 22 1162 14Q1162 -13 1110 -22Q1094 -24 1084 -24Z" />
<glyph unicode="L" glyph-name="L" horiz-adv-x="1019" d="M932 0H162Q100 0 100 35V1346Q100 1381 162 1381Q223 1381 223 1346V70H932Q994 70 994 35Q994 0 932 0Z" />
<glyph unicode="M" glyph-name="M" horiz-adv-x="1509" d="M758 -24Q699 -24 687 3L178 1173V-6Q178 -23 139 -23Q100 -23 100 -6V1346Q100 1381 180 1381Q233 1381 244 1355L786 106L1281 1356Q1291 1381 1347 1381Q1409 1381 1409 1346V10Q1409 -23 1348 -23Q1286
-23 1286 10V1166L827 2Q817 -24 758 -24Z" />
<glyph unicode="N" glyph-name="N" horiz-adv-x="1318" d="M1138 -24Q1082 -24 1064 1L178 1231V-4Q178 -24 139 -24Q100 -24 100 -4V1336Q100 1381 180 1381Q235 1381 253 1355L1140 126V1360Q1140 1381 1179 1381Q1218 1381 1218 1360V20Q1218 -24 1138 -24Z" />
<glyph unicode="O" glyph-name="O" horiz-adv-x="1406" d="M703 -24Q402 -24 226 179T50 678Q50 974 226 1177T703 1381Q1004 1381 1180 1178T1356 678Q1356 382 1180 179T703 -24ZM703 46Q962 46 1097 241T1233 678Q1233 920 1098 1115T703 1311Q444 1311 309
1116T173 678Q173 437 308 242T703 46Z" />
<glyph unicode="P" glyph-name="P" horiz-adv-x="1232" d="M162 -24Q100 -24 100 11V1322Q100 1357 162 1357H791Q942 1357 1062 1258T1182 996Q1182 835 1062 735T791 635H223V11Q223 -24 162 -24ZM791 705Q904 705 981 794T1059 996Q1059 1108 982 1197T791
1287H223V705H791Z" />
<glyph unicode="Q" glyph-name="Q" horiz-adv-x="1439" d="M1329 -24Q1308 -24 1293 -18Q1193 20 1108 110Q930 -24 703 -24Q402 -24 226 179T50 678Q50 975 226 1178T703 1381Q1004 1381 1180 1178T1356 678Q1356 387 1185 185Q1262 78 1362 40Q1389 29 1389
10Q1389 -1 1378 -9Q1362 -24 1329 -24ZM703 46Q908 46 1051 188Q976 307 913 393T691 497Q641 503 641 531Q641 566 714 566Q858 566 956 482T1125 281Q1233 475 1233 678Q1233 920 1098 1115T703 1311Q444 1311 309 1116T173 678Q173 437 308 242T703 46Z" />
<glyph unicode="R" glyph-name="R" horiz-adv-x="1303" d="M1192 -24Q1168 -24 1151 -15Q1044 41 988 137T887 335Q845 430 785 532T602 635H223V11Q223 -24 161 -24Q100 -24 100 11V1321Q100 1356 161 1356H780Q932 1356 1056 1258T1181 995Q1181 847 1071 747T822
636Q895 575 932 507T1006 352Q1047 258 1097 170T1233 37Q1253 28 1253 11Q1253 -2 1237 -12Q1216 -24 1192 -24ZM780 705Q1058 705 1058 995Q1058 1286 780 1286H223V705H780Z" />
<glyph unicode="S" glyph-name="S" horiz-adv-x="1200" d="M604 -24Q417 -24 262 65T53 350Q50 362 50 364Q50 397 110 397Q165 397 172 368Q256 46 604 46Q745 46 886 129T1027 376Q1027 492 887 559Q782 609 630 625Q540 634 445 653T268 716Q85 813 85 1013Q85
1210 265 1295T609 1381Q772 1381 918 1303T1108 1053Q1111 1038 1111 1039Q1111 1006 1050 1006Q997 1006 989 1036Q924 1311 609 1311Q477 1311 343 1240T208 1013Q208 901 363 834Q479 783 639 767Q731 757 831 736T1009 664Q1150 571 1150 376Q1150 171 965
74T604 -24Z" />
<glyph unicode="T" glyph-name="T" horiz-adv-x="1185" d="M593 -12Q531 -12 531 23V1299H86Q25 1299 25 1334Q25 1369 86 1369H1099Q1160 1369 1160 1334Q1160 1299 1099 1299H654V23Q654 -12 593 -12Z" />
<glyph unicode="U" glyph-name="U" horiz-adv-x="1269" d="M1046 1346Q1046 1381 1108 1381Q1169 1381 1169 1346V424Q1169 213 995 95T633 -24Q446 -24 273 95T100 424V1346Q100 1381 161 1381Q223 1381 223 1346V424Q223 260 351 153T633 46Q787 46 916 152T1046
424V1346Z" />
<glyph unicode="V" glyph-name="V" horiz-adv-x="1298" d="M645 -25Q591 -25 581 1L28 1341Q25 1347 25 1353Q25 1381 93 1381Q146 1381 156 1355L673 103L1196 1366Q1202 1381 1233 1381Q1273 1381 1273 1364Q1273 1361 1271 1357L712 5Q700 -25 645 -25Z" />
<glyph unicode="W" glyph-name="W" horiz-adv-x="1837" d="M1358 5Q1349 -24 1286 -24Q1230 -24 1223 4L918 1200L617 6Q610 -24 548 -24Q491 -24 482 2L28 1335Q25 1350 25 1350Q25 1381 94 1381Q146 1381 156 1351L571 133L878 1354Q885 1381 946 1381Q1005
1381 1012 1351L1322 134L1734 1365Q1740 1381 1775 1381Q1812 1381 1812 1364Q1812 1363 1810 1357L1358 5Z" />
<glyph unicode="X" glyph-name="X" horiz-adv-x="1212" d="M69 -24Q58 -24 52 -22Q25 -18 25 -4Q25 0 28 4L545 660L33 1334Q28 1341 28 1346Q28 1369 73 1378Q87 1380 98 1380Q147 1380 165 1358L622 757L1102 1366Q1113 1380 1143 1380Q1150 1380 1160 1378Q1187
1372 1187 1359Q1187 1357 1184 1352L668 697L1179 25Q1184 18 1184 13Q1184 -10 1139 -19Q1125 -21 1114 -21Q1064 -21 1047 1L592 600L110 -11Q100 -24 69 -24Z" />
<glyph unicode="Y" glyph-name="Y" horiz-adv-x="1217" d="M608 -24Q547 -24 547 10V645L30 1335Q25 1341 25 1348Q25 1381 94 1381Q144 1381 162 1358L636 725L1106 1367Q1116 1380 1147 1380Q1192 1380 1192 1360Q1192 1358 1189 1353L670 645V10Q670 -24 608 -24Z" />
<glyph unicode="Z" glyph-name="Z" horiz-adv-x="1238" d="M1143 0H95Q71 0 47 10Q25 20 25 34Q25 42 30 47L1038 1287H119Q49 1287 49 1322Q49 1356 119 1356H1141Q1169 1356 1192 1345Q1211 1336 1211 1322Q1211 1316 1206 1309L198 68H1143Q1213 68 1213 34Q1213
0 1143 0Z" />
<glyph unicode="[" glyph-name="bracketleft" horiz-adv-x="734" d="M572 -400H162Q100 -400 100 -365V1345Q100 1380 162 1380H572Q634 1380 634 1345Q634 1310 572 1310H223V-330H572Q634 -330 634 -365Q634 -400 572 -400Z" />
<glyph unicode="\" glyph-name="backslash" horiz-adv-x="912" d="M733 -9Q739 -24 772 -24Q812 -24 812 -6Q812 -3 810 1L283 1365Q277 1381 244 1381Q204 1381 204 1363Q204 1364 207 1355L733 -9Z" />
<glyph unicode="]" glyph-name="bracketright" horiz-adv-x="751" d="M179 -400H589Q651 -400 651 -365V1345Q651 1380 589 1380H179Q117 1380 117 1345Q117 1310 179 1310H528V-330H179Q117 -330 117 -365Q117 -400 179 -400Z" />
<glyph unicode="^" glyph-name="asciicircum" horiz-adv-x="728" d="M628 1098Q628 1080 589 1080Q560 1080 554 1094L364 1502L174 1094Q168 1080 139 1080Q100 1080 100 1098Q100 1102 102 1104L327 1589Q333 1603 364 1603Q393 1603 400 1588L626 1104Q628
1100 628 1098Z" />
<glyph unicode="_" glyph-name="underscore" horiz-adv-x="1235" d="M1074 0H161Q100 0 100 36Q100 71 161 71H1074Q1135 71 1135 36Q1135 0 1074 0Z" />
<glyph unicode="`" glyph-name="grave" horiz-adv-x="483" d="M438 1080Q431 1080 422 1086L14 1387Q0 1397 0 1416Q0 1440 21 1468Q50 1504 79 1504Q93 1504 103 1494L474 1148Q483 1139 483 1130Q483 1118 468 1099Q453 1080 438 1080Z" />
<glyph unicode="a" glyph-name="a" horiz-adv-x="1066" d="M979 -24Q954 -24 935 -13Q852 36 835 134Q701 -24 453 -24Q326 -24 201 39T75 257Q75 434 204 480T472 527Q507 527 547 525T629 522Q760 522 825 564V672Q825 928 526 930Q410 930 324 872Q228 806
227 717Q227 682 165 682Q105 682 105 717Q106 833 230 917Q350 1000 526 1000Q678 1000 813 924T948 672V222Q948 80 1024 35Q1041 25 1041 11Q1041 -3 1022 -14Q1002 -24 979 -24ZM453 47Q576 47 700 127T825 351V472Q739 453 639 453Q596 453 552 455T464 457Q198
457 198 257Q198 47 453 47Z" />
<glyph unicode="b" glyph-name="b" horiz-adv-x="1094" d="M162 -24Q100 -24 100 11V1347Q100 1382 162 1382Q223 1382 223 1347V828Q334 1002 572 1002Q791 1002 917 854T1044 489Q1044 274 918 126T572 -23Q324 -23 223 151V11Q223 -24 162 -24ZM572 47Q747
47 834 189T921 489Q921 648 834 790T572 932Q397 932 310 790T223 489Q223 331 310 189T572 47Z" />
<glyph unicode="c" glyph-name="c" horiz-adv-x="1044" d="M994 292Q994 217 916 129Q781 -24 542 -24Q50 -24 50 483Q50 709 186 854T551 1000Q818 1000 941 820Q992 747 992 683Q992 649 931 649Q874 649 870 681Q835 930 551 930Q361 930 267 795T173 485Q173
312 263 179T542 46Q827 46 872 295Q877 327 933 327Q994 327 994 292Z" />
<glyph unicode="d" glyph-name="d" horiz-adv-x="1094" d="M932 -24Q871 -24 871 11V151Q770 -23 522 -23Q303 -23 177 125T50 489Q50 705 176 853T522 1002Q760 1002 871 828V1347Q871 1382 932 1382Q994 1382 994 1347V11Q994 -24 932 -24ZM522 47Q697 47 784
189T871 489Q871 648 784 790T522 932Q347 932 260 790T173 489Q173 331 260 189T522 47Z" />
<glyph unicode="e" glyph-name="e" horiz-adv-x="1107" d="M551 -24Q50 -24 50 479Q50 704 190 852T558 1000Q1057 1000 1057 532Q1057 497 996 497H173Q173 326 267 186T551 46Q686 46 794 119Q904 194 915 295Q919 328 976 328Q1038 328 1038 294Q1038 262 1015
214Q978 135 889 74Q746 -24 551 -24ZM934 567Q906 930 558 930Q247 930 180 567H934Z" />
<glyph unicode="f" glyph-name="f" horiz-adv-x="726" d="M297 -24Q235 -24 235 11V931H86Q25 931 25 966Q25 1001 86 1001H235V1119Q235 1379 531 1381Q587 1381 645 1370Q701 1361 701 1335Q701 1300 638 1300Q613 1300 587 1305T531 1311Q358 1310 358 1119V1001H569Q630
1001 630 966Q630 931 569 931H358V11Q358 -24 297 -24Z" />
<glyph unicode="g" glyph-name="g" horiz-adv-x="1094" d="M994 19Q994 -204 848 -304T498 -404Q387 -404 254 -366T56 -230Q51 -222 51 -216Q51 -182 113 -182Q156 -182 170 -204Q218 -276 316 -305T498 -334Q870 -334 870 19V148Q758 -24 522 -24Q303 -24 177
124T50 489Q50 704 176 852T522 1001Q759 1001 871 829V966Q871 1001 932 1001Q994 1001 994 966V19ZM522 46Q697 46 784 188T871 489Q871 647 784 789T522 931Q347 931 260 789T173 489Q173 330 260 188T522 46Z" />
<glyph unicode="h" glyph-name="h" horiz-adv-x="1030" d="M918 -24Q857 -24 857 11V551Q857 693 781 810T551 928Q385 928 304 800T223 524V11Q223 -24 162 -24Q100 -24 100 11V1347Q100 1382 162 1382Q223 1382 223 1347V825Q318 1001 551 1001Q743 1001 861
871T980 552V11Q980 -24 918 -24Z" />
<glyph unicode="i" glyph-name="i" horiz-adv-x="300" d="M150 1143Q75 1143 75 1218Q75 1293 150 1293Q225 1293 225 1218Q225 1143 150 1143ZM150 -24Q88 -24 88 11V965Q88 1000 150 1000Q212 1000 212 965V11Q212 -24 150 -24Z" />
<glyph unicode="j" glyph-name="j" horiz-adv-x="612" d="M436 1139Q360 1139 360 1215Q360 1291 436 1291Q512 1291 512 1215Q512 1139 436 1139ZM435 1020Q498 1020 498 985V-146Q498 -408 195 -408Q139 -408 81 -397Q25 -388 25 -362Q25 -327 88 -327Q113 -327
140 -332T195 -338Q373 -337 373 -146V985Q373 1020 435 1020Z" />
<glyph unicode="k" glyph-name="k" horiz-adv-x="1028" d="M923 -24Q870 -24 850 -1L403 492L223 335V11Q223 -24 162 -24Q100 -24 100 11V1346Q100 1381 162 1381Q223 1381 223 1346V435L850 987Q863 999 893 999Q909 999 919 996Q944 989 944 976Q944 970 937
964L500 577L996 31Q1003 23 1003 15Q1003 -10 957 -21Q942 -24 923 -24Z" />
<glyph unicode="l" glyph-name="l" horiz-adv-x="273" d="M136 -26Q75 -26 75 10V1346Q75 1381 136 1381Q198 1381 198 1346V10Q198 -26 136 -26Z" />
<glyph unicode="m" glyph-name="m" horiz-adv-x="1685" d="M1523 -24Q1462 -24 1462 11V555Q1462 694 1400 810T1182 927Q1026 927 966 810T905 555V11Q905 -24 843 -24Q782 -24 782 11V555Q782 694 724 810T509 927Q354 927 289 793T223 521V11Q223 -24 162 -24Q100
-24 100 11V965Q100 1000 162 1000Q223 1000 223 965V823Q305 1000 509 1000Q735 1000 843 809Q940 1000 1182 1000Q1371 1000 1478 871T1585 555V11Q1585 -24 1523 -24Z" />
<glyph unicode="n" glyph-name="n" horiz-adv-x="1080" d="M918 -24Q857 -24 857 11V550Q857 692 781 810T551 928Q387 928 305 800T223 523V11Q223 -24 162 -24Q100 -24 100 11V965Q100 1000 162 1000Q223 1000 223 965V824Q318 1000 551 1000Q712 999 846 885T980
551V11Q980 -24 918 -24Z" />
<glyph unicode="o" glyph-name="o" horiz-adv-x="1110" d="M555 1000Q777 1000 918 858T1060 488Q1060 260 919 118T555 -24Q333 -24 192 118T50 488Q50 716 191 858T555 1000ZM555 930Q374 930 274 796T173 488Q173 315 273 181T555 46Q737 46 837 180T937 488Q937
662 837 796T555 930Z" />
<glyph unicode="p" glyph-name="p" horiz-adv-x="1094" d="M162 -404Q100 -404 100 -369V967Q100 1002 162 1002Q223 1002 223 967V827Q323 1001 572 1001Q791 1001 917 853T1044 489Q1044 273 918 125T572 -23Q333 -23 223 150V-369Q223 -404 162 -404ZM572 47Q747
47 834 188T921 489Q921 647 834 789T572 931Q397 931 310 789T223 489Q223 330 310 189T572 47Z" />
<glyph unicode="q" glyph-name="q" horiz-adv-x="1094" d="M932 999Q871 999 871 964V824Q770 998 522 998Q303 998 177 850T50 486Q50 270 176 122T522 -27Q760 -27 871 147V-372Q871 -407 932 -407Q994 -407 994 -372V964Q994 999 932 999ZM522 928Q697 928
784 786T871 486Q871 327 784 185T522 43Q347 43 260 185T173 486Q173 644 260 786T522 928Z" />
<glyph unicode="r" glyph-name="r" horiz-adv-x="724" d="M161 -24Q100 -24 100 11V965Q100 1000 161 1000Q223 1000 223 965V824Q249 875 315 937T505 1000Q608 1000 684 949Q699 939 699 923Q699 902 676 887Q660 876 645 876Q631 876 622 884Q567 926 489 926Q326
926 275 766T223 491V11Q223 -24 161 -24Z" />
<glyph unicode="s" glyph-name="s" horiz-adv-x="917" d="M459 -24Q137 -24 57 238Q50 259 50 263Q50 298 111 298Q164 298 172 268Q228 46 461 46Q559 46 651 104T744 273Q744 347 643 391Q573 423 472 437Q399 448 327 461T191 518Q75 600 75 727Q75 872 209
936T465 1000Q761 1000 833 774Q840 746 840 745Q840 711 778 711Q726 708 717 742Q672 930 465 930Q376 930 287 881T198 727Q198 657 310 610Q378 582 478 566Q551 555 620 541T753 484Q867 410 867 273Q867 119 730 48T459 -24Z" />
<glyph unicode="t" glyph-name="t" horiz-adv-x="729" d="M648 -14Q592 -24 534 -24Q238 -24 238 238V929H86Q25 929 25 964Q25 999 86 999H238V1345Q238 1380 300 1380Q361 1380 361 1345V999H569Q630 999 630 964Q630 929 569 929H361V238Q361 46 534 45Q563
45 589 51T641 57Q704 57 704 21Q704 -5 648 -14Z" />
<glyph unicode="u" glyph-name="u" horiz-adv-x="1080" d="M162 1000Q223 1000 223 965V426Q223 284 299 166T529 48Q693 48 775 176T857 453V965Q857 1000 918 1000Q980 1000 980 965V11Q980 -24 918 -24Q857 -24 857 11V152Q762 -24 529 -24Q368 -23 234 91T100
425V965Q100 1000 162 1000Z" />
<glyph unicode="v" glyph-name="v" horiz-adv-x="997" d="M498 -24Q443 -24 432 2L30 953Q25 966 25 968Q25 999 88 999Q145 999 156 974L526 98L895 985Q901 1000 935 1000Q972 1000 972 982Q972 981 969 972L566 2Q556 -24 498 -24Z" />
<glyph unicode="w" glyph-name="w" horiz-adv-x="1562" d="M1090 -24Q1034 -24 1025 4L783 838L531 6Q522 -24 463 -24Q409 -24 398 3L29 954Q25 964 25 967Q25 999 89 999Q146 999 156 973L487 120L744 971Q753 999 813 999Q869 999 877 972L1125 120L1459 985Q1465
1000 1500 1000Q1537 1000 1537 982Q1537 980 1535 974L1159 5Q1148 -24 1090 -24Z" />
<glyph unicode="x" glyph-name="x" horiz-adv-x="966" d="M71 -24Q64 -24 54 -22Q28 -15 28 -3Q28 2 31 5L422 471L30 953Q25 959 25 966Q25 991 68 997Q80 1000 97 1000Q143 1000 161 978L497 564L853 986Q866 1000 895 1000Q902 1000 912 998Q938 992 938 978Q938
976 935 971L545 506L936 24Q941 18 941 11Q941 -12 898 -20Q885 -24 871 -24Q823 -24 805 -2L469 412L113 -10Q100 -24 71 -24Z" />
<glyph unicode="y" glyph-name="y" horiz-adv-x="1080" d="M516 -400Q407 -400 290 -361T107 -224Q103 -217 103 -211Q103 -177 165 -177Q207 -177 222 -199Q309 -330 516 -330Q856 -330 856 24V124Q747 -18 543 -18Q100 -18 100 429V971Q100 1006 162 1006Q223
1006 223 971V429Q223 283 305 168T543 52Q692 52 774 169T857 429V971Q857 1006 918 1006Q980 1006 980 971V24Q980 -400 516 -400Z" />
<glyph unicode="z" glyph-name="z" horiz-adv-x="969" d="M882 0H102Q71 0 45 13Q25 23 25 37Q25 43 31 50L768 905H110Q49 905 49 941Q49 976 110 976H870Q899 976 923 963Q943 952 943 938Q943 931 938 925L200 70H882Q944 70 944 35Q944 0 882 0Z" />
<glyph unicode="{" glyph-name="braceleft" horiz-adv-x="608" d="M498 -370H464Q333 -370 272 -312Q220 -263 220 -196V331Q220 486 109 486Q50 486 50 520Q50 554 109 554Q220 554 220 709V1236Q220 1303 272 1352Q333 1410 464 1410H498Q558 1410 558 1376Q558
1339 498 1342L450 1343Q404 1345 374 1317Q340 1285 340 1236V718Q340 564 256 520Q340 476 340 322V-196Q340 -245 374 -277Q402 -303 450 -303L498 -302Q558 -299 558 -336Q558 -370 498 -370Z" />
<glyph unicode="|" glyph-name="bar" horiz-adv-x="275" d="M137 -428Q100 -428 100 -410V1332Q100 1350 137 1350Q175 1350 175 1332V-410Q175 -428 137 -428Z" />
<glyph unicode="}" glyph-name="braceright" horiz-adv-x="649" d="M151 -370H185Q316 -370 377 -312Q429 -263 429 -196V331Q429 486 540 486Q599 486 599 520Q599 554 540 554Q429 554 429 709V1236Q429 1303 377 1352Q316 1410 185 1410H151Q91 1410 91 1376Q91
1339 151 1342L199 1343Q245 1345 275 1317Q309 1285 309 1236V718Q309 564 393 520Q309 476 309 322V-196Q309 -245 275 -277Q247 -303 199 -303L151 -302Q91 -299 91 -336Q91 -370 151 -370Z" />
<glyph unicode="~" glyph-name="asciitilde" horiz-adv-x="1235" d="M870 1060Q766 1060 698 1107T559 1223Q522 1259 473 1300T370 1342Q297 1342 264 1254T223 1109Q219 1075 157 1075Q100 1078 100 1112Q102 1237 181 1327Q260 1415 370 1415Q464 1415 531
1370T665 1260Q704 1222 758 1178T870 1133Q944 1133 975 1227T1012 1382Q1015 1416 1074 1416Q1135 1416 1135 1380Q1135 1256 1065 1157Q998 1060 870 1060Z" />
<glyph unicode="&#xa0;" glyph-name="uni00A0" horiz-adv-x="500" />
<glyph unicode="&#xa3;" glyph-name="pound" horiz-adv-x="1195" d="M131 -24Q111 -24 96 -17Q70 -6 70 12Q70 23 81 31Q182 113 261 217T341 460Q341 533 311 635H111Q50 635 50 670Q50 705 111 705H290Q267 776 248 848T229 996Q229 1172 358 1276T651 1381Q958
1381 1038 1063Q1046 1031 1046 1024Q1049 991 983 991Q930 991 923 1022Q903 1129 838 1220T651 1311Q526 1311 438 1215T351 995Q351 920 371 848T414 705H750Q811 705 811 670Q811 635 750 635H436Q464 532 464 460Q464 298 328 130Q404 140 442 140Q547 141
642 100T841 58Q937 58 1041 114Q1061 124 1084 124Q1109 124 1128 113Q1145 103 1145 88Q1145 74 1126 63Q980 -17 841 -17Q732 -17 637 26T442 70Q325 70 177 -12Q156 -24 131 -24Z" />
<glyph unicode="&#xa5;" glyph-name="yen" horiz-adv-x="1024" d="M512 -24Q486 -24 468 -14Q450 -4 450 10V387H149Q87 387 87 421Q87 456 149 456H450V650H149Q87 650 87 684Q87 718 149 718H408L54 1335Q50 1342 50 1348Q50 1381 118 1381Q173 1381 186 1358L539
726L889 1367Q897 1381 927 1381Q974 1381 974 1360Q974 1357 971 1351L615 718H874Q936 718 936 684Q936 650 874 650H573V456H874Q936 456 936 421Q936 387 874 387H573V10Q573 -24 512 -24Z" />
<glyph unicode="&#xa8;" glyph-name="dieresis" horiz-adv-x="584" d="M173 1080Q80 1080 80 1173Q80 1265 173 1265Q265 1265 265 1173Q265 1080 173 1080ZM412 1080Q319 1080 319 1173Q319 1265 412 1265Q504 1265 504 1173Q504 1080 412 1080Z" />
<glyph unicode="&#xa9;" glyph-name="copyright" horiz-adv-x="1291" d="M646 -24Q417 -24 259 114T100 488Q100 724 258 862T646 1000Q874 1000 1032 862T1191 488Q1191 252 1033 114T646 -24ZM646 30Q1096 30 1096 488Q1096 686 971 816T646 947Q446 947 321
817T195 488Q195 30 646 30ZM961 337Q916 128 659 128Q327 128 327 486Q327 848 667 848Q921 848 961 642Q963 632 963 626Q963 603 921 603Q881 603 879 625Q857 801 667 801Q537 801 474 702T411 486Q411 371 469 273T659 175Q851 175 881 352Q885 373 923 373Q963
373 963 351Q963 349 961 337Z" />
<glyph unicode="&#xab;" glyph-name="guillemotleft" horiz-adv-x="903" d="M450 380Q430 380 419 391L105 697Q100 702 100 708Q100 715 106 719L419 1024Q430 1035 451 1035Q462 1035 471 1032Q489 1024 489 1013Q489 1007 484 1002L181 708L484 413Q489 408
489 402Q489 390 471 384Q459 380 450 380ZM765 380Q746 380 733 391L419 697Q414 702 414 708Q414 715 420 719L733 1024Q744 1035 766 1035Q778 1035 785 1032Q803 1024 803 1013Q803 1007 798 1002L495 708L798 413Q803 408 803 402Q803 390 785 384Q773 380
765 380Z" />
<glyph unicode="&#xad;" glyph-name="uni00AD" horiz-adv-x="40" />
<glyph unicode="&#xae;" glyph-name="registered" horiz-adv-x="1291" d="M646 -24Q417 -24 259 114T100 488Q100 724 258 862T646 1000Q874 1000 1032 862T1191 488Q1191 252 1033 114T646 -24ZM646 30Q1096 30 1096 488Q1096 686 971 816T646 947Q446 947 321
817T195 488Q195 30 646 30ZM404 163Q366 163 366 185V792Q366 813 404 813H695Q893 813 893 641Q893 496 730 471Q768 440 811 344Q862 227 915 201Q927 195 927 185Q927 177 917 171Q906 164 888 164Q872 164 863 169Q795 203 736 334Q676 469 612 469H442V185Q442
163 404 163ZM695 511Q817 511 817 641Q817 770 695 770H442V511H695Z" />
<glyph unicode="&#xaf;" glyph-name="overscore" horiz-adv-x="629" d="M50 1314Q50 1385 98 1385H523Q579 1385 579 1314Q579 1244 523 1244H106Q50 1244 50 1314Z" />
<glyph unicode="&#xb0;" glyph-name="degree" horiz-adv-x="553" d="M277 1080Q0 1080 0 1347Q0 1615 276 1615Q553 1615 553 1347Q553 1080 277 1080ZM277 1134Q460 1134 460 1347Q460 1561 276 1561Q93 1561 93 1347Q93 1134 277 1134Z" />
<glyph unicode="&#xb2;" glyph-name="two_super" horiz-adv-x="428" d="M385 1000H40Q0 1000 0 1023Q0 1117 31 1170Q57 1216 157 1267Q217 1297 282 1342T348 1465Q348 1607 217 1607Q168 1607 134 1580Q84 1541 84 1455Q84 1432 45 1432Q8 1432 4 1453Q3 1459
3 1472Q3 1573 94 1624Q146 1653 217 1653Q428 1653 428 1463Q428 1374 355 1322T210 1233Q126 1190 106 1156Q86 1121 80 1046H385Q425 1046 425 1023Q425 1000 385 1000Z" />
<glyph unicode="&#xb3;" glyph-name="three_super" horiz-adv-x="432" d="M223 1000Q0 1000 0 1191Q0 1214 41 1214Q82 1214 82 1191Q82 1047 223 1047Q351 1047 351 1191Q351 1328 219 1328H192Q151 1328 151 1352Q151 1372 189 1375Q197 1376 204 1376T218 1377Q333
1391 333 1499Q333 1629 202 1631Q147 1631 113 1588Q82 1550 82 1492V1481Q82 1461 43 1458Q1 1458 1 1481V1494Q1 1576 55 1624Q114 1677 205 1677Q414 1677 414 1499Q414 1409 324 1356Q432 1301 432 1190Q432 1000 223 1000Z" />
<glyph unicode="&#xb4;" glyph-name="acute" horiz-adv-x="563" d="M125 1080Q110 1080 95 1099Q80 1118 80 1130Q80 1139 89 1148L460 1494Q470 1504 484 1504Q513 1504 542 1468Q563 1440 563 1416Q563 1397 549 1387L141 1086Q132 1080 125 1080Z" />
<glyph unicode="&#xb6;" glyph-name="paragraph" horiz-adv-x="1011" d="M761 -24Q723 -24 723 -7V1310H402V-7Q402 -24 364 -24Q327 -24 327 -7V814Q100 867 100 1095Q100 1380 366 1380H850Q911 1380 911 1345Q911 1310 850 1310H798V-7Q798 -24 761 -24Z" />
<glyph unicode="&#xb8;" glyph-name="cedilla" horiz-adv-x="411" d="M165 -790Q48 -790 5 -747Q0 -742 0 -738Q0 -726 20 -720Q32 -717 42 -717Q74 -717 94 -732T165 -748Q211 -748 268 -726T326 -643Q326 -550 191 -548Q170 -546 159 -541Q148 -535 148 -528Q148
-522 153 -512L203 -375Q209 -357 247 -357Q296 -357 288 -378L239 -510Q292 -518 351 -546T411 -643Q411 -728 320 -759T165 -790Z" />
<glyph unicode="&#xb9;" glyph-name="one_super" horiz-adv-x="224" d="M183 1000Q143 1000 143 1024V1505Q105 1468 43 1468Q0 1468 0 1491Q0 1510 30 1513Q69 1519 99 1554Q134 1591 142 1652Q145 1676 183 1676Q224 1676 224 1652V1024Q224 1000 183 1000Z" />
<glyph unicode="&#xbb;" glyph-name="guillemotright" horiz-adv-x="930" d="M481 380Q501 380 512 391L826 697Q831 702 831 708Q831 715 825 719L512 1024Q501 1035 480 1035Q469 1035 460 1032Q442 1024 442 1013Q442 1007 447 1002L750 708L447 413Q442 408
442 402Q442 390 460 384Q472 380 481 380ZM166 380Q185 380 198 391L512 697Q517 702 517 708Q517 715 511 719L198 1024Q187 1035 165 1035Q153 1035 146 1032Q128 1024 128 1013Q128 1007 133 1002L436 708L133 413Q128 408 128 402Q128 390 146 384Q158 380
166 380Z" />
<glyph unicode="&#xbf;" glyph-name="questiondown" horiz-adv-x="849" d="M375 1029Q435 1029 438 995Q440 955 440 933Q440 814 396 741Q367 694 321 647T234 562Q66 403 66 247Q66 -47 362 -47Q521 -47 604 54Q674 141 676 276Q676 310 735 310Q799 310 799
276Q799 127 715 24Q600 -117 362 -117Q204 -117 74 -23T-57 247Q-57 361 -3 443T129 598Q248 710 282 767Q318 830 316 923L315 994Q315 1029 375 1029ZM374 1288Q466 1288 466 1195Q466 1103 374 1103Q282 1103 282 1195Q282 1288 374 1288Z" />
<glyph unicode="&#xc0;" glyph-name="Agrave" horiz-adv-x="1333" d="M1239 -24Q1181 -24 1169 3L979 448H294L102 -9Q96 -24 61 -24Q25 -24 25 -6Q25 -5 27 1L594 1356Q605 1381 664 1381Q724 1381 735 1354L1304 21Q1308 13 1308 9Q1308 -24 1239 -24ZM949 518L633
1259L323 518H949ZM638 1470Q631 1470 622 1476L214 1777Q200 1787 200 1806Q200 1830 221 1858Q250 1894 279 1894Q293 1894 303 1884L674 1538Q683 1529 683 1520Q683 1508 668 1489Q653 1470 638 1470Z" />
<glyph unicode="&#xc1;" glyph-name="Aacute" horiz-adv-x="1333" d="M1239 -24Q1181 -24 1169 3L979 448H294L102 -9Q96 -24 61 -24Q25 -24 25 -6Q25 -5 27 1L594 1356Q605 1381 664 1381Q724 1381 735 1354L1304 21Q1308 13 1308 9Q1308 -24 1239 -24ZM949 518L633
1259L323 518H949ZM635 1457Q620 1457 605 1476Q590 1495 590 1507Q590 1516 599 1525L970 1871Q980 1881 994 1881Q1023 1881 1052 1845Q1073 1817 1073 1793Q1073 1774 1059 1764L651 1463Q642 1457 635 1457Z" />
<glyph unicode="&#xc2;" glyph-name="Acircumflex" horiz-adv-x="1333" d="M1239 -24Q1181 -24 1169 3L979 448H294L102 -9Q96 -24 61 -24Q25 -24 25 -6Q25 -5 27 1L594 1356Q605 1381 664 1381Q724 1381 735 1354L1304 21Q1308 13 1308 9Q1308 -24 1239 -24ZM949
518L633 1259L323 518H949ZM928 1488Q928 1470 889 1470Q860 1470 854 1484L664 1892L474 1484Q468 1470 439 1470Q400 1470 400 1488Q400 1492 402 1494L627 1979Q633 1993 664 1993Q693 1993 700 1978L926 1494Q928 1490 928 1488Z" />
<glyph unicode="&#xc3;" glyph-name="Atilde" horiz-adv-x="1333" d="M1239 -24Q1181 -24 1169 3L979 448H294L102 -9Q96 -24 61 -24Q25 -24 25 -6Q25 -5 27 1L594 1356Q605 1381 664 1381Q724 1381 735 1354L1304 21Q1308 13 1308 9Q1308 -24 1239 -24ZM949 518L633
1259L323 518H949ZM970 1460Q866 1460 798 1507T659 1623Q622 1659 573 1700T470 1742Q397 1742 364 1654T323 1509Q319 1475 257 1475Q200 1478 200 1512Q202 1637 281 1727Q360 1815 470 1815Q564 1815 631 1770T765 1660Q804 1622 858 1578T970 1533Q1044 1533
1075 1627T1112 1782Q1115 1816 1174 1816Q1235 1816 1235 1780Q1235 1656 1165 1557Q1098 1460 970 1460Z" />
<glyph unicode="&#xc4;" glyph-name="Adieresis" horiz-adv-x="1333" d="M1239 -24Q1181 -24 1169 3L979 448H294L102 -9Q96 -24 61 -24Q25 -24 25 -6Q25 -5 27 1L594 1356Q605 1381 664 1381Q724 1381 735 1354L1304 21Q1308 13 1308 9Q1308 -24 1239 -24ZM949
518L633 1259L323 518H949ZM572 1464Q479 1464 479 1557Q479 1649 572 1649Q664 1649 664 1557Q664 1464 572 1464ZM811 1464Q718 1464 718 1557Q718 1649 811 1649Q903 1649 903 1557Q903 1464 811 1464Z" />
<glyph unicode="&#xc5;" glyph-name="Aring" horiz-adv-x="1333" d="M1239 -24Q1181 -24 1169 3L979 448H294L102 -9Q96 -24 61 -24Q25 -24 25 -6Q25 -5 27 1L594 1356Q605 1381 664 1381Q724 1381 735 1354L1304 21Q1308 13 1308 9Q1308 -24 1239 -24ZM949 518L633
1259L323 518H949ZM658 1464Q381 1464 381 1731Q381 1999 657 1999Q934 1999 934 1731Q934 1464 658 1464ZM658 1518Q841 1518 841 1731Q841 1945 657 1945Q474 1945 474 1731Q474 1518 658 1518Z" />
<glyph unicode="&#xc6;" glyph-name="AE" horiz-adv-x="1973" d="M294 449L102 -9Q96 -24 61 -24Q25 -24 25 -6Q25 -5 27 1L594 1332Q605 1357 663 1357H1836Q1898 1357 1898 1322Q1898 1287 1836 1287H993V714H1718Q1779 714 1779 679Q1779 644 1718 644H993V70H1836Q1898
70 1898 35Q1898 0 1836 0H931Q870 0 870 35V449H294ZM870 519V1287H650L323 519H870Z" />
<glyph unicode="&#xc7;" glyph-name="Ccedilla" horiz-adv-x="1302" d="M1252 402Q1252 396 1248 378Q1209 195 1054 91T720 -25L685 -121Q738 -129 797 -157T857 -254Q857 -339 766 -370T611 -401Q493 -401 451 -358Q445 -353 445 -349Q445 -337 466 -331Q478
-328 487 -328Q519 -328 540 -343T611 -359Q656 -359 713 -337T771 -254Q771 -161 637 -159Q616 -157 605 -152Q593 -146 593 -139Q593 -143 598 -123L634 -25Q343 -9 197 194T50 680Q50 974 217 1176T693 1379Q878 1379 1045 1275T1247 976Q1250 952 1250 950Q1250
916 1187 916Q1132 916 1127 948Q1105 1112 977 1210T693 1309Q429 1309 301 1113T173 680Q173 447 292 246T677 44Q837 44 970 144T1130 406Q1136 436 1190 436Q1252 436 1252 402Z" />
<glyph unicode="&#xc8;" glyph-name="Egrave" horiz-adv-x="1204" d="M1067 0H169Q100 0 100 39V1319Q100 1358 169 1358H1067Q1129 1358 1129 1323Q1129 1288 1067 1288H223V715H940Q1001 715 1001 680Q1001 645 940 645H223V70H1067Q1129 70 1129 35Q1129 0
1067 0ZM738 1414Q731 1414 722 1420L314 1721Q300 1731 300 1750Q300 1774 321 1802Q350 1838 379 1838Q393 1838 403 1828L774 1482Q783 1473 783 1464Q783 1452 768 1433Q753 1414 738 1414Z" />
<glyph unicode="&#xc9;" glyph-name="Eacute" horiz-adv-x="1204" d="M1067 0H169Q100 0 100 39V1319Q100 1358 169 1358H1067Q1129 1358 1129 1323Q1129 1288 1067 1288H223V715H940Q1001 715 1001 680Q1001 645 940 645H223V70H1067Q1129 70 1129 35Q1129 0
1067 0ZM526 1424Q511 1424 496 1443Q481 1462 481 1474Q481 1483 490 1492L861 1838Q871 1848 885 1848Q914 1848 943 1812Q964 1784 964 1760Q964 1741 950 1731L542 1430Q533 1424 526 1424Z" />
<glyph unicode="&#xca;" glyph-name="Ecircumflex" horiz-adv-x="1204" d="M1067 0H169Q100 0 100 39V1319Q100 1358 169 1358H1067Q1129 1358 1129 1323Q1129 1288 1067 1288H223V715H940Q1001 715 1001 680Q1001 645 940 645H223V70H1067Q1129 70 1129 35Q1129
0 1067 0ZM868 1434Q868 1416 829 1416Q800 1416 794 1430L604 1838L414 1430Q408 1416 379 1416Q340 1416 340 1434Q340 1438 342 1440L567 1925Q573 1939 604 1939Q633 1939 640 1924L866 1440Q868 1436 868 1434Z" />
<glyph unicode="&#xcb;" glyph-name="Edieresis" horiz-adv-x="1204" d="M1067 0H169Q100 0 100 39V1319Q100 1358 169 1358H1067Q1129 1358 1129 1323Q1129 1288 1067 1288H223V715H940Q1001 715 1001 680Q1001 645 940 645H223V70H1067Q1129 70 1129 35Q1129
0 1067 0ZM533 1514Q440 1514 440 1607Q440 1699 533 1699Q625 1699 625 1607Q625 1514 533 1514ZM772 1514Q679 1514 679 1607Q679 1699 772 1699Q864 1699 864 1607Q864 1514 772 1514Z" />
<glyph unicode="&#xcc;" glyph-name="Igrave" horiz-adv-x="223" d="M111 -23Q50 -23 50 12V1346Q50 1381 111 1381Q173 1381 173 1346V12Q173 -23 111 -23ZM103 1451Q96 1451 87 1457L-321 1758Q-335 1768 -335 1787Q-335 1811 -314 1839Q-285 1875 -256 1875Q-242
1875 -232 1865L139 1519Q148 1510 148 1501Q148 1489 133 1470Q118 1451 103 1451Z" />
<glyph unicode="&#xcd;" glyph-name="Iacute" horiz-adv-x="263" d="M132 -23Q193 -23 193 12V1346Q193 1381 132 1381Q70 1381 70 1346V12Q70 -23 132 -23ZM140 1451Q147 1451 156 1457L564 1758Q578 1768 578 1787Q578 1811 557 1839Q528 1875 499 1875Q485
1875 475 1865L104 1519Q95 1510 95 1501Q95 1489 110 1470Q125 1451 140 1451Z" />
<glyph unicode="&#xce;" glyph-name="Icircumflex" horiz-adv-x="223" d="M111 -23Q50 -23 50 12V1346Q50 1381 111 1381Q173 1381 173 1346V12Q173 -23 111 -23ZM375 1432Q375 1414 336 1414Q307 1414 301 1428L111 1836L-79 1428Q-85 1414 -114 1414Q-153 1414
-153 1432Q-153 1436 -151 1438L74 1923Q80 1937 111 1937Q140 1937 147 1922L373 1438Q375 1434 375 1432Z" />
<glyph unicode="&#xcf;" glyph-name="Idieresis" horiz-adv-x="223" d="M111 -23Q50 -23 50 12V1346Q50 1381 111 1381Q173 1381 173 1346V12Q173 -23 111 -23ZM28 1513Q-65 1513 -65 1606Q-65 1698 28 1698Q120 1698 120 1606Q120 1513 28 1513ZM267 1513Q174
1513 174 1606Q174 1698 267 1698Q359 1698 359 1606Q359 1513 267 1513Z" />
<glyph unicode="&#xd0;" glyph-name="Eth" horiz-adv-x="1512" d="M833 -24H367Q305 -24 305 11V619H142Q80 619 80 655Q80 690 142 690H305V1299Q305 1334 367 1334H833Q1122 1334 1277 1130T1432 651Q1432 375 1277 176T833 -24ZM833 46Q1075 46 1192 240T1309
651Q1309 866 1192 1065T833 1264H428V690H592Q654 690 654 655Q654 619 592 619H428V46H833Z" />
<glyph unicode="&#xd1;" glyph-name="Ntilde" horiz-adv-x="1318" d="M911 1448Q807 1448 739 1495T600 1611Q563 1647 514 1688T411 1730Q338 1730 305 1642T264 1497Q260 1463 198 1463Q141 1466 141 1500Q143 1625 222 1715Q301 1803 411 1803Q505 1803 572
1758T706 1648Q745 1610 799 1566T911 1521Q985 1521 1016 1615T1053 1770Q1056 1804 1115 1804Q1176 1804 1176 1768Q1176 1644 1106 1545Q1039 1448 911 1448ZM1138 -24Q1082 -24 1064 1L178 1231V-4Q178 -24 139 -24Q100 -24 100 -4V1336Q100 1381 180 1381Q235
1381 253 1355L1140 126V1360Q1140 1381 1179 1381Q1218 1381 1218 1360V20Q1218 -24 1138 -24Z" />
<glyph unicode="&#xd2;" glyph-name="Ograve" horiz-adv-x="1406" d="M724 1461Q739 1461 754 1480Q769 1499 769 1511Q769 1520 760 1529L389 1875Q379 1885 365 1885Q336 1885 307 1849Q286 1821 286 1797Q286 1778 300 1768L708 1467Q717 1461 724 1461ZM703
-24Q1004 -24 1180 179T1356 678Q1356 974 1180 1177T703 1381Q402 1381 226 1178T50 678Q50 382 226 179T703 -24ZM703 46Q444 46 309 241T173 678Q173 920 308 1115T703 1311Q962 1311 1097 1116T1233 678Q1233 437 1098 242T703 46Z" />
<glyph unicode="&#xd3;" glyph-name="Oacute" horiz-adv-x="1406" d="M682 1461Q667 1461 652 1480Q637 1499 637 1511Q637 1520 646 1529L1017 1875Q1027 1885 1041 1885Q1070 1885 1099 1849Q1120 1821 1120 1797Q1120 1778 1106 1768L698 1467Q689 1461 682
1461ZM703 -24Q402 -24 226 179T50 678Q50 974 226 1177T703 1381Q1004 1381 1180 1178T1356 678Q1356 382 1180 179T703 -24ZM703 46Q962 46 1097 241T1233 678Q1233 920 1098 1115T703 1311Q444 1311 309 1116T173 678Q173 437 308 242T703 46Z" />
<glyph unicode="&#xd4;" glyph-name="Ocircumflex" horiz-adv-x="1406" d="M967 1482Q967 1464 928 1464Q899 1464 893 1478L703 1886L513 1478Q507 1464 478 1464Q439 1464 439 1482Q439 1486 441 1488L666 1973Q672 1987 703 1987Q732 1987 739 1972L965 1488Q967
1484 967 1482ZM703 -24Q402 -24 226 179T50 678Q50 974 226 1177T703 1381Q1004 1381 1180 1178T1356 678Q1356 382 1180 179T703 -24ZM703 46Q962 46 1097 241T1233 678Q1233 920 1098 1115T703 1311Q444 1311 309 1116T173 678Q173 437 308 242T703 46Z" />
<glyph unicode="&#xd5;" glyph-name="Otilde" horiz-adv-x="1406" d="M703 -24Q402 -24 226 179T50 678Q50 974 226 1177T703 1381Q1004 1381 1180 1178T1356 678Q1356 382 1180 179T703 -24ZM703 46Q962 46 1097 241T1233 678Q1233 920 1098 1115T703 1311Q444
1311 309 1116T173 678Q173 437 308 242T703 46ZM970 1414Q866 1414 798 1461T659 1577Q622 1613 573 1654T470 1696Q397 1696 364 1608T323 1463Q319 1429 257 1429Q200 1432 200 1466Q202 1591 281 1681Q360 1769 470 1769Q564 1769 631 1724T765 1614Q804 1576
858 1532T970 1487Q1044 1487 1075 1581T1112 1736Q1115 1770 1174 1770Q1235 1770 1235 1734Q1235 1610 1165 1511Q1098 1414 970 1414Z" />
<glyph unicode="&#xd6;" glyph-name="Odieresis" horiz-adv-x="1406" d="M600 1464Q507 1464 507 1557Q507 1649 600 1649Q692 1649 692 1557Q692 1464 600 1464ZM839 1464Q746 1464 746 1557Q746 1649 839 1649Q931 1649 931 1557Q931 1464 839 1464ZM703 -24Q402
-24 226 179T50 678Q50 974 226 1177T703 1381Q1004 1381 1180 1178T1356 678Q1356 382 1180 179T703 -24ZM703 46Q962 46 1097 241T1233 678Q1233 920 1098 1115T703 1311Q444 1311 309 1116T173 678Q173 437 308 242T703 46Z" />
<glyph unicode="&#xd7;" glyph-name="multiply" horiz-adv-x="880" d="M740 120Q717 120 705 132L440 406L175 132Q163 120 140 120Q130 120 121 123Q100 131 100 144Q100 150 105 155L394 454L105 753Q100 758 100 764Q100 778 121 784Q130 787 141 787Q163 787
175 775L440 501L705 775Q717 787 740 787Q750 787 759 784Q780 778 780 764Q780 758 775 753L486 454L775 155Q780 150 780 144Q780 131 759 123Q750 120 740 120Z" />
<glyph unicode="&#xd8;" glyph-name="Oslash" horiz-adv-x="1466" d="M733 -24Q573 -24 445 37L424 -2Q412 -24 370 -24Q313 -24 313 7Q313 10 318 20L356 89Q80 285 80 678Q80 975 256 1178T733 1381Q892 1381 1022 1319Q1056 1380 1098 1380Q1154 1380 1154
1350Q1154 1344 1149 1337L1111 1266Q1386 1071 1386 678Q1386 382 1210 179T733 -24ZM401 173L982 1246Q871 1311 733 1311Q474 1311 339 1116T203 678Q203 356 401 173ZM733 46Q992 46 1127 241T1263 678Q1263 1000 1066 1183L485 110Q594 46 733 46Z" />
<glyph unicode="&#xd9;" glyph-name="Ugrave" horiz-adv-x="1269" d="M1046 1346Q1046 1381 1108 1381Q1169 1381 1169 1346V424Q1169 213 995 95T633 -24Q446 -24 273 95T100 424V1346Q100 1381 161 1381Q223 1381 223 1346V424Q223 260 351 153T633 46Q787 46
916 152T1046 424V1346ZM668 1464Q661 1464 652 1470L244 1771Q230 1781 230 1800Q230 1824 251 1852Q280 1888 309 1888Q323 1888 333 1878L704 1532Q713 1523 713 1514Q713 1502 698 1483Q683 1464 668 1464Z" />
<glyph unicode="&#xda;" glyph-name="Uacute" horiz-adv-x="1269" d="M1046 1346Q1046 1381 1108 1381Q1169 1381 1169 1346V424Q1169 213 995 95T633 -24Q446 -24 273 95T100 424V1346Q100 1381 161 1381Q223 1381 223 1346V424Q223 260 351 153T633 46Q787 46
916 152T1046 424V1346ZM596 1445Q581 1445 566 1464Q551 1483 551 1495Q551 1504 560 1513L931 1859Q941 1869 955 1869Q984 1869 1013 1833Q1034 1805 1034 1781Q1034 1762 1020 1752L612 1451Q603 1445 596 1445Z" />
<glyph unicode="&#xdb;" glyph-name="Ucircumflex" horiz-adv-x="1269" d="M1046 1346Q1046 1381 1108 1381Q1169 1381 1169 1346V424Q1169 213 995 95T633 -24Q446 -24 273 95T100 424V1346Q100 1381 161 1381Q223 1381 223 1346V424Q223 260 351 153T633 46Q787
46 916 152T1046 424V1346ZM898 1482Q898 1464 859 1464Q830 1464 824 1478L634 1886L444 1478Q438 1464 409 1464Q370 1464 370 1482Q370 1486 372 1488L597 1973Q603 1987 634 1987Q663 1987 670 1972L896 1488Q898 1484 898 1482Z" />
<glyph unicode="&#xdc;" glyph-name="Udieresis" horiz-adv-x="1269" d="M539 1474Q446 1474 446 1567Q446 1659 539 1659Q631 1659 631 1567Q631 1474 539 1474ZM778 1474Q685 1474 685 1567Q685 1659 778 1659Q870 1659 870 1567Q870 1474 778 1474ZM1046 1346Q1046
1381 1108 1381Q1169 1381 1169 1346V424Q1169 213 995 95T633 -24Q446 -24 273 95T100 424V1346Q100 1381 161 1381Q223 1381 223 1346V424Q223 260 351 153T633 46Q787 46 916 152T1046 424V1346Z" />
<glyph unicode="&#xdd;" glyph-name="Yacute" horiz-adv-x="1216" d="M615 1412Q600 1412 585 1431Q570 1450 570 1462Q570 1471 579 1480L950 1826Q960 1836 974 1836Q1003 1836 1032 1800Q1053 1772 1053 1748Q1053 1729 1039 1719L631 1418Q622 1412 615 1412ZM608
-24Q547 -24 547 10V645L30 1335Q25 1341 25 1348Q25 1381 94 1381Q144 1381 162 1358L636 725L1106 1367Q1116 1380 1147 1380Q1192 1380 1192 1360Q1192 1358 1189 1353L670 645V10Q670 -24 608 -24Z" />
<glyph unicode="&#xde;" glyph-name="Thorn" horiz-adv-x="1232" d="M162 -24Q100 -24 100 11V1329Q100 1364 162 1364Q223 1364 223 1329V1041H791Q942 1041 1062 942T1182 681Q1182 519 1062 420T791 320H223V11Q223 -24 162 -24ZM791 390Q904 390 981 479T1059
681Q1059 792 982 881T791 971H223V390H791Z" />
<glyph unicode="&#xdf;" glyph-name="germandbls" horiz-adv-x="1099" d="M112 -24Q50 -24 50 11V988Q50 1381 458 1381Q583 1381 697 1317T812 1110Q812 989 735 903T658 727Q658 600 853 512T1049 233Q1049 103 937 40T712 -23Q580 -23 491 37Q378 112 378 210Q378
246 436 246Q495 246 500 214Q516 129 584 83Q638 47 711 47Q925 47 925 233Q925 406 729 488T533 724Q533 828 610 913T688 1111Q688 1310 458 1310Q174 1310 174 988V11Q174 -24 112 -24Z" />
<glyph unicode="&#xe0;" glyph-name="agrave" horiz-adv-x="1066" d="M979 -24Q954 -24 935 -13Q852 36 835 134Q701 -24 453 -24Q326 -24 201 39T75 257Q75 434 204 480T472 527Q507 527 547 525T629 522Q760 522 825 564V672Q825 928 526 930Q410 930 324 872Q228
806 227 717Q227 682 165 682Q105 682 105 717Q106 833 230 917Q350 1000 526 1000Q678 1000 813 924T948 672V222Q948 80 1024 35Q1041 25 1041 11Q1041 -3 1022 -14Q1002 -24 979 -24ZM453 47Q576 47 700 127T825 351V472Q739 453 639 453Q596 453 552 455T464
457Q198 457 198 257Q198 47 453 47ZM515 1230Q530 1230 545 1249Q560 1268 560 1280Q560 1289 551 1298L180 1644Q170 1654 156 1654Q127 1654 98 1618Q77 1590 77 1566Q77 1547 91 1537L499 1236Q508 1230 515 1230Z" />
<glyph unicode="&#xe1;" glyph-name="aacute" horiz-adv-x="1066" d="M557 1224Q542 1224 527 1243Q512 1262 512 1274Q512 1283 521 1292L892 1638Q902 1648 916 1648Q945 1648 974 1612Q995 1584 995 1560Q995 1541 981 1531L573 1230Q564 1224 557 1224ZM979
-24Q954 -24 935 -13Q852 36 835 134Q701 -24 453 -24Q326 -24 201 39T75 257Q75 434 204 480T472 527Q507 527 547 525T629 522Q760 522 825 564V672Q825 928 526 930Q410 930 324 872Q228 806 227 717Q227 682 165 682Q105 682 105 717Q106 833 230 917Q350 1000
526 1000Q678 1000 813 924T948 672V222Q948 80 1024 35Q1041 25 1041 11Q1041 -3 1022 -14Q1002 -24 979 -24ZM453 47Q576 47 700 127T825 351V472Q739 453 639 453Q596 453 552 455T464 457Q198 457 198 257Q198 47 453 47Z" />
<glyph unicode="&#xe2;" glyph-name="acircumflex" horiz-adv-x="1066" d="M979 -24Q954 -24 935 -13Q852 36 835 134Q701 -24 453 -24Q326 -24 201 39T75 257Q75 434 204 480T472 527Q507 527 547 525T629 522Q760 522 825 564V672Q825 928 526 930Q410 930 324
872Q228 806 227 717Q227 682 165 682Q105 682 105 717Q106 833 230 917Q350 1000 526 1000Q678 1000 813 924T948 672V222Q948 80 1024 35Q1041 25 1041 11Q1041 -3 1022 -14Q1002 -24 979 -24ZM453 47Q576 47 700 127T825 351V472Q739 453 639 453Q596 453 552
455T464 457Q198 457 198 257Q198 47 453 47ZM808 1098Q808 1080 769 1080Q740 1080 734 1094L544 1502L354 1094Q348 1080 319 1080Q280 1080 280 1098Q280 1102 282 1104L507 1589Q513 1603 544 1603Q573 1603 580 1588L806 1104Q808 1100 808 1098Z" />
<glyph unicode="&#xe3;" glyph-name="atilde" horiz-adv-x="1066" d="M979 -24Q954 -24 935 -13Q852 36 835 134Q701 -24 453 -24Q326 -24 201 39T75 257Q75 434 204 480T472 527Q507 527 547 525T629 522Q760 522 825 564V672Q825 928 526 930Q410 930 324 872Q228
806 227 717Q227 682 165 682Q105 682 105 717Q106 833 230 917Q350 1000 526 1000Q678 1000 813 924T948 672V222Q948 80 1024 35Q1041 25 1041 11Q1041 -3 1022 -14Q1002 -24 979 -24ZM453 47Q576 47 700 127T825 351V472Q739 453 639 453Q596 453 552 455T464
457Q198 457 198 257Q198 47 453 47ZM1041 1060Q937 1060 869 1107T730 1223Q693 1259 644 1300T541 1342Q468 1342 435 1254T394 1109Q390 1075 328 1075Q271 1078 271 1112Q273 1237 352 1327Q431 1415 541 1415Q635 1415 702 1370T836 1260Q875 1222 929 1178T1041
1133Q1115 1133 1146 1227T1183 1382Q1186 1416 1245 1416Q1306 1416 1306 1380Q1306 1256 1236 1157Q1169 1060 1041 1060Z" />
<glyph unicode="&#xe4;" glyph-name="adieresis" horiz-adv-x="1066" d="M441 1099Q346 1099 346 1192Q346 1284 441 1284Q536 1284 536 1192Q536 1099 441 1099ZM686 1099Q591 1099 591 1192Q591 1284 686 1284Q780 1284 780 1192Q780 1099 686 1099ZM979 -24Q954
-24 935 -13Q852 36 835 134Q701 -24 453 -24Q326 -24 201 39T75 257Q75 434 204 480T472 527Q507 527 547 525T629 522Q760 522 825 564V672Q825 928 526 930Q410 930 324 872Q228 806 227 717Q227 682 165 682Q105 682 105 717Q106 833 230 917Q350 1000 526
1000Q678 1000 813 924T948 672V222Q948 80 1024 35Q1041 25 1041 11Q1041 -3 1022 -14Q1002 -24 979 -24ZM453 47Q576 47 700 127T825 351V472Q739 453 639 453Q596 453 552 455T464 457Q198 457 198 257Q198 47 453 47Z" />
<glyph unicode="&#xe5;" glyph-name="aring" horiz-adv-x="1066" d="M979 -24Q954 -24 935 -13Q852 36 835 134Q701 -24 453 -24Q326 -24 201 39T75 257Q75 434 204 480T472 527Q507 527 547 525T629 522Q760 522 825 564V672Q825 928 526 930Q410 930 324 872Q228
806 227 717Q227 682 165 682Q105 682 105 717Q106 833 230 917Q350 1000 526 1000Q678 1000 813 924T948 672V222Q948 80 1024 35Q1041 25 1041 11Q1041 -3 1022 -14Q1002 -24 979 -24ZM453 47Q576 47 700 127T825 351V472Q739 453 639 453Q596 453 552 455T464
457Q198 457 198 257Q198 47 453 47ZM537 1080Q260 1080 260 1347Q260 1615 536 1615Q813 1615 813 1347Q813 1080 537 1080ZM537 1134Q720 1134 720 1347Q720 1561 536 1561Q353 1561 353 1347Q353 1134 537 1134Z" />
<glyph unicode="&#xe6;" glyph-name="ae" horiz-adv-x="1842" d="M1306 -24Q1034 -24 902 190Q845 118 779 73Q634 -24 453 -24Q326 -24 201 39T75 257Q75 434 204 480T472 527Q507 527 547 525T629 522Q760 522 825 564V672Q825 928 526 930Q410 930 324 872Q228
806 227 717Q227 682 165 682Q105 682 105 717Q106 833 230 917Q350 1000 526 1000Q827 1000 921 803Q1058 1000 1313 1000Q1792 1000 1792 532Q1792 497 1733 497H943Q943 326 1034 186T1306 46Q1436 46 1539 119Q1645 193 1656 295Q1659 328 1714 328Q1774 328
1774 294Q1774 259 1752 213Q1716 134 1631 74Q1492 -24 1306 -24ZM1674 567Q1648 930 1313 930Q1015 930 950 567H1674ZM453 47Q576 47 700 127T825 351V472Q739 453 639 453Q596 453 552 455T464 457Q198 457 198 257Q198 47 453 47Z" />
<glyph unicode="&#xe7;" glyph-name="ccedilla" horiz-adv-x="1044" d="M994 292Q994 217 916 129Q781 -24 542 -24Q50 -24 50 483Q50 709 186 854T551 1000Q818 1000 941 820Q992 747 992 683Q992 649 931 649Q874 649 870 681Q835 930 551 930Q361 930 267 795T173
485Q173 312 263 179T542 46Q827 46 872 295Q877 327 933 327Q994 327 994 292ZM445 -454Q328 -454 285 -411Q280 -406 280 -402Q280 -390 300 -384Q312 -381 322 -381Q354 -381 374 -396T445 -412Q491 -412 548 -390T606 -307Q606 -214 471 -212Q450 -210 439
-205Q428 -199 428 -192Q428 -186 433 -176L483 -39Q489 -21 527 -21Q576 -21 568 -42L519 -174Q572 -182 631 -210T691 -307Q691 -392 600 -423T445 -454Z" />
<glyph unicode="&#xe8;" glyph-name="egrave" horiz-adv-x="1107" d="M596 1100Q589 1100 580 1106L172 1407Q158 1417 158 1436Q158 1460 179 1488Q208 1524 237 1524Q251 1524 261 1514L632 1168Q641 1159 641 1150Q641 1138 626 1119Q611 1100 596 1100ZM551
-24Q50 -24 50 479Q50 704 190 852T558 1000Q1057 1000 1057 532Q1057 497 996 497H173Q173 326 267 186T551 46Q686 46 794 119Q904 194 915 295Q919 328 976 328Q1038 328 1038 294Q1038 262 1015 214Q978 135 889 74Q746 -24 551 -24ZM934 567Q906 930 558 930Q247
930 180 567H934Z" />
<glyph unicode="&#xe9;" glyph-name="eacute" horiz-adv-x="1107" d="M553 1234Q538 1234 523 1253Q508 1272 508 1284Q508 1293 517 1302L888 1648Q898 1658 912 1658Q941 1658 970 1622Q991 1594 991 1570Q991 1551 977 1541L569 1240Q560 1234 553 1234ZM551
-24Q50 -24 50 479Q50 704 190 852T558 1000Q1057 1000 1057 532Q1057 497 996 497H173Q173 326 267 186T551 46Q686 46 794 119Q904 194 915 295Q919 328 976 328Q1038 328 1038 294Q1038 262 1015 214Q978 135 889 74Q746 -24 551 -24ZM934 567Q906 930 558 930Q247
930 180 567H934Z" />
<glyph unicode="&#xea;" glyph-name="ecircumflex" horiz-adv-x="1107" d="M551 -24Q50 -24 50 479Q50 704 190 852T558 1000Q1057 1000 1057 532Q1057 497 996 497H173Q173 326 267 186T551 46Q686 46 794 119Q904 194 915 295Q919 328 976 328Q1038 328 1038
294Q1038 262 1015 214Q978 135 889 74Q746 -24 551 -24ZM934 567Q906 930 558 930Q247 930 180 567H934ZM828 1098Q828 1080 789 1080Q760 1080 754 1094L564 1502L374 1094Q368 1080 339 1080Q300 1080 300 1098Q300 1102 302 1104L527 1589Q533 1603 564 1603Q593
1603 600 1588L826 1104Q828 1100 828 1098Z" />
<glyph unicode="&#xeb;" glyph-name="edieresis" horiz-adv-x="1107" d="M459 1101Q366 1101 366 1194Q366 1286 459 1286Q551 1286 551 1194Q551 1101 459 1101ZM698 1101Q605 1101 605 1194Q605 1286 698 1286Q790 1286 790 1194Q790 1101 698 1101ZM551 -24Q50
-24 50 479Q50 704 190 852T558 1000Q1057 1000 1057 532Q1057 497 996 497H173Q173 326 267 186T551 46Q686 46 794 119Q904 194 915 295Q919 328 976 328Q1038 328 1038 294Q1038 262 1015 214Q978 135 889 74Q746 -24 551 -24ZM934 567Q906 930 558 930Q247
930 180 567H934Z" />
<glyph unicode="&#xec;" glyph-name="igrave" horiz-adv-x="273" d="M137 -24Q75 -24 75 11V965Q75 1000 137 1000Q199 1000 199 965V11Q199 -24 137 -24ZM138 1111Q131 1111 122 1117L-286 1418Q-300 1428 -300 1447Q-300 1471 -279 1499Q-250 1535 -221 1535Q-207
1535 -197 1525L174 1179Q183 1170 183 1161Q183 1149 168 1130Q153 1111 138 1111Z" />
<glyph unicode="&#xed;" glyph-name="iacute" horiz-adv-x="273" d="M136 -24Q198 -24 198 11V965Q198 1000 136 1000Q74 1000 74 965V11Q74 -24 136 -24ZM135 1111Q142 1111 151 1117L559 1418Q573 1428 573 1447Q573 1471 552 1499Q523 1535 494 1535Q480 1535
470 1525L99 1179Q90 1170 90 1161Q90 1149 105 1130Q120 1111 135 1111Z" />
<glyph unicode="&#xee;" glyph-name="icircumflex" horiz-adv-x="273" d="M137 -24Q75 -24 75 11V965Q75 1000 137 1000Q199 1000 199 965V11Q199 -24 137 -24ZM400 1058Q400 1040 361 1040Q332 1040 326 1054L136 1462L-54 1054Q-60 1040 -89 1040Q-128 1040
-128 1058Q-128 1062 -126 1064L99 1549Q105 1563 136 1563Q165 1563 172 1548L398 1064Q400 1060 400 1058Z" />
<glyph unicode="&#xef;" glyph-name="idieresis" horiz-adv-x="273" d="M137 -24Q75 -24 75 11V965Q75 1000 137 1000Q199 1000 199 965V11Q199 -24 137 -24ZM308 1099Q215 1099 215 1192Q215 1284 308 1284Q400 1284 400 1192Q400 1099 308 1099ZM547 1099Q454
1099 454 1192Q454 1284 547 1284Q639 1284 639 1192Q639 1099 547 1099Z" />
<glyph unicode="&#xf0;" glyph-name="eth" horiz-adv-x="1170" d="M585 -24Q363 -24 222 118T80 488Q80 716 221 858T585 1000Q744 1000 865 924Q797 1061 687 1184L531 1101Q513 1092 489 1092Q462 1092 445 1102Q428 1112 428 1126Q428 1141 447 1151L626 1247Q591
1281 535 1326Q524 1334 524 1346Q524 1363 550 1374Q569 1381 586 1381Q619 1381 635 1366Q691 1320 717 1296L859 1371Q879 1381 902 1381Q927 1381 946 1370Q963 1359 963 1346Q963 1332 943 1321L779 1234Q895 1110 969 970Q1090 743 1090 488Q1090 260 949
118T585 -24ZM585 46Q767 46 867 180T967 488Q967 661 867 795T585 930Q404 930 304 796T203 488Q203 314 303 180T585 46Z" />
<glyph unicode="&#xf1;" glyph-name="ntilde" horiz-adv-x="1080" d="M918 -24Q857 -24 857 11V550Q857 692 781 810T551 928Q387 928 305 800T223 523V11Q223 -24 162 -24Q100 -24 100 11V965Q100 1000 162 1000Q223 1000 223 965V824Q318 1000 551 1000Q712
999 846 885T980 551V11Q980 -24 918 -24ZM1049 1060Q945 1060 877 1107T738 1223Q701 1259 652 1300T549 1342Q476 1342 443 1254T402 1109Q398 1075 336 1075Q279 1078 279 1112Q281 1237 360 1327Q439 1415 549 1415Q643 1415 710 1370T844 1260Q883 1222 937
1178T1049 1133Q1123 1133 1154 1227T1191 1382Q1194 1416 1253 1416Q1314 1416 1314 1380Q1314 1256 1244 1157Q1177 1060 1049 1060Z" />
<glyph unicode="&#xf2;" glyph-name="ograve" horiz-adv-x="1110" d="M577 1051Q570 1051 561 1057L153 1358Q139 1368 139 1387Q139 1411 160 1439Q189 1475 218 1475Q232 1475 242 1465L613 1119Q622 1110 622 1101Q622 1089 607 1070Q592 1051 577 1051ZM555
1000Q777 1000 918 858T1060 488Q1060 260 919 118T555 -24Q333 -24 192 118T50 488Q50 716 191 858T555 1000ZM555 930Q374 930 274 796T173 488Q173 315 273 181T555 46Q737 46 837 180T937 488Q937 662 837 796T555 930Z" />
<glyph unicode="&#xf3;" glyph-name="oacute" horiz-adv-x="1110" d="M533 1051Q540 1051 549 1057L957 1358Q971 1368 971 1387Q971 1411 950 1439Q921 1475 892 1475Q878 1475 868 1465L497 1119Q488 1110 488 1101Q488 1089 503 1070Q518 1051 533 1051ZM555
1000Q333 1000 192 858T50 488Q50 260 191 118T555 -24Q777 -24 918 118T1060 488Q1060 716 919 858T555 1000ZM555 930Q736 930 836 796T937 488Q937 315 837 181T555 46Q373 46 273 180T173 488Q173 662 273 796T555 930Z" />
<glyph unicode="&#xf4;" glyph-name="ocircumflex" horiz-adv-x="1110" d="M811 1067Q811 1049 772 1049Q743 1049 737 1063L547 1471L357 1063Q351 1049 322 1049Q283 1049 283 1067Q283 1071 285 1073L510 1558Q516 1572 547 1572Q576 1572 583 1557L809 1073Q811
1069 811 1067ZM555 1000Q777 1000 918 858T1060 488Q1060 260 919 118T555 -24Q333 -24 192 118T50 488Q50 716 191 858T555 1000ZM555 930Q374 930 274 796T173 488Q173 315 273 181T555 46Q737 46 837 180T937 488Q937 662 837 796T555 930Z" />
<glyph unicode="&#xf5;" glyph-name="otilde" horiz-adv-x="1110" d="M555 1000Q777 1000 918 858T1060 488Q1060 260 919 118T555 -24Q333 -24 192 118T50 488Q50 716 191 858T555 1000ZM555 930Q374 930 274 796T173 488Q173 315 273 181T555 46Q737 46 837
180T937 488Q937 662 837 796T555 930ZM1063 1060Q959 1060 891 1107T752 1223Q715 1259 666 1300T563 1342Q490 1342 457 1254T416 1109Q412 1075 350 1075Q293 1078 293 1112Q295 1237 374 1327Q453 1415 563 1415Q657 1415 724 1370T858 1260Q897 1222 951 1178T1063
1133Q1137 1133 1168 1227T1205 1382Q1208 1416 1267 1416Q1328 1416 1328 1380Q1328 1256 1258 1157Q1191 1060 1063 1060Z" />
<glyph unicode="&#xf6;" glyph-name="odieresis" horiz-adv-x="1110" d="M460 1050Q367 1050 367 1143Q367 1235 460 1235Q552 1235 552 1143Q552 1050 460 1050ZM699 1050Q606 1050 606 1143Q606 1235 699 1235Q791 1235 791 1143Q791 1050 699 1050ZM555 1000Q777
1000 918 858T1060 488Q1060 260 919 118T555 -24Q333 -24 192 118T50 488Q50 716 191 858T555 1000ZM555 930Q374 930 274 796T173 488Q173 315 273 181T555 46Q737 46 837 180T937 488Q937 662 837 796T555 930Z" />
<glyph unicode="&#xf7;" glyph-name="divide" horiz-adv-x="923" d="M462 706Q386 706 386 781Q386 856 462 856Q537 856 537 781Q537 706 462 706ZM812 517H112Q50 517 50 553Q50 589 112 589H812Q873 589 873 553Q873 517 812 517ZM462 250Q386 250 386 325Q386
400 462 400Q537 400 537 325Q537 250 462 250Z" />
<glyph unicode="&#xf8;" glyph-name="oslash" horiz-adv-x="1291" d="M646 -24Q531 -24 429 13Q408 -24 378 -24Q339 -24 339 -5Q339 -2 340 0L363 42Q100 180 100 488Q100 724 258 862T646 1000Q760 1000 862 963Q881 1000 913 1000Q952 1000 952 982Q952 981
950 975L928 934Q1191 798 1191 488Q1191 252 1033 114T646 -24ZM394 100L833 910Q747 947 646 947Q446 947 321 817T195 488Q195 227 394 100ZM646 30Q1096 30 1096 488Q1096 749 897 877L458 66Q542 30 646 30Z" />
<glyph unicode="&#xf9;" glyph-name="ugrave" horiz-adv-x="1080" d="M617 1048Q610 1048 601 1054L193 1355Q179 1365 179 1384Q179 1408 200 1436Q229 1472 258 1472Q272 1472 282 1462L653 1116Q662 1107 662 1098Q662 1086 647 1067Q632 1048 617 1048ZM162
1000Q223 1000 223 965V426Q223 284 299 166T529 48Q693 48 775 176T857 453V965Q857 1000 918 1000Q980 1000 980 965V11Q980 -24 918 -24Q857 -24 857 11V152Q762 -24 529 -24Q368 -23 234 91T100 425V965Q100 1000 162 1000Z" />
<glyph unicode="&#xfa;" glyph-name="uacute" horiz-adv-x="1080" d="M541 1178Q526 1178 511 1197Q496 1216 496 1228Q496 1237 505 1246L876 1592Q886 1602 900 1602Q929 1602 958 1566Q979 1538 979 1514Q979 1495 965 1485L557 1184Q548 1178 541 1178ZM162
1000Q223 1000 223 965V426Q223 284 299 166T529 48Q693 48 775 176T857 453V965Q857 1000 918 1000Q980 1000 980 965V11Q980 -24 918 -24Q857 -24 857 11V152Q762 -24 529 -24Q368 -23 234 91T100 425V965Q100 1000 162 1000Z" />
<glyph unicode="&#xfb;" glyph-name="ucircumflex" horiz-adv-x="1080" d="M801 1067Q801 1049 762 1049Q733 1049 727 1063L537 1471L347 1063Q341 1049 312 1049Q273 1049 273 1067Q273 1071 275 1073L500 1558Q506 1572 537 1572Q566 1572 573 1557L799 1073Q801
1069 801 1067ZM162 1000Q223 1000 223 965V426Q223 284 299 166T529 48Q693 48 775 176T857 453V965Q857 1000 918 1000Q980 1000 980 965V11Q980 -24 918 -24Q857 -24 857 11V152Q762 -24 529 -24Q368 -23 234 91T100 425V965Q100 1000 162 1000Z" />
<glyph unicode="&#xfc;" glyph-name="udieresis" horiz-adv-x="1080" d="M429 1060Q336 1060 336 1153Q336 1245 429 1245Q521 1245 521 1153Q521 1060 429 1060ZM668 1060Q575 1060 575 1153Q575 1245 668 1245Q760 1245 760 1153Q760 1060 668 1060ZM162 1000Q223
1000 223 965V426Q223 284 299 166T529 48Q693 48 775 176T857 453V965Q857 1000 918 1000Q980 1000 980 965V11Q980 -24 918 -24Q857 -24 857 11V152Q762 -24 529 -24Q368 -23 234 91T100 425V965Q100 1000 162 1000Z" />
<glyph unicode="&#xfd;" glyph-name="yacute" horiz-adv-x="1080" d="M492 1186Q477 1186 462 1205Q447 1224 447 1236Q447 1245 456 1254L827 1600Q837 1610 851 1610Q880 1610 909 1574Q930 1546 930 1522Q930 1503 916 1493L508 1192Q499 1186 492 1186ZM516
-400Q407 -400 290 -361T107 -224Q103 -217 103 -211Q103 -177 165 -177Q207 -177 222 -199Q309 -330 516 -330Q856 -330 856 24V124Q747 -18 543 -18Q100 -18 100 429V971Q100 1006 162 1006Q223 1006 223 971V429Q223 283 305 168T543 52Q692 52 774 169T857
429V971Q857 1006 918 1006Q980 1006 980 971V24Q980 -400 516 -400Z" />
<glyph unicode="&#xfe;" glyph-name="thorn" horiz-adv-x="1094" d="M162 -402Q100 -402 100 -367V1347Q100 1382 162 1382Q223 1382 223 1347V828Q323 1002 572 1002Q791 1002 917 854T1044 490Q1044 275 918 127T572 -22Q332 -22 223 152V-367Q223 -402 162
-402ZM572 48Q747 48 834 190T921 490Q921 648 834 790T572 932Q397 932 310 790T223 490Q223 332 310 190T572 48Z" />
<glyph unicode="&#xff;" glyph-name="ydieresis" horiz-adv-x="1080" d="M445 1068Q352 1068 352 1161Q352 1253 445 1253Q537 1253 537 1161Q537 1068 445 1068ZM684 1068Q591 1068 591 1161Q591 1253 684 1253Q776 1253 776 1161Q776 1068 684 1068ZM516 -400Q407
-400 290 -361T107 -224Q103 -217 103 -211Q103 -177 165 -177Q207 -177 222 -199Q309 -330 516 -330Q856 -330 856 24V124Q747 -18 543 -18Q100 -18 100 429V971Q100 1006 162 1006Q223 1006 223 971V429Q223 283 305 168T543 52Q692 52 774 169T857 429V971Q857
1006 918 1006Q980 1006 980 971V24Q980 -400 516 -400Z" />
<glyph unicode="&#x2013;" glyph-name="endash" horiz-adv-x="992" d="M892 524L891 404H100L101 524H892Z" />
<glyph unicode="&#x2014;" glyph-name="emdash" horiz-adv-x="1431" d="M1331 572V452H100V572H1331Z" />
<glyph unicode="&#x2018;" glyph-name="quoteleft" horiz-adv-x="261" d="M176 1487Q200 1495 215 1495Q239 1495 239 1483Q239 1478 230 1474Q192 1458 170 1418Q155 1390 151 1358Q169 1361 170 1361Q261 1361 261 1268Q261 1175 170 1175Q127 1175 97 1206Q66
1240 66 1294Q66 1350 96 1407Q127 1465 176 1487Z" />
<glyph unicode="&#x2019;" glyph-name="quoteright" horiz-adv-x="261" d="M85 1258Q61 1250 46 1250Q22 1250 22 1262Q22 1267 31 1271Q69 1287 91 1327Q106 1355 110 1387Q92 1384 91 1384Q0 1384 0 1477Q0 1570 91 1570Q134 1570 164 1539Q195 1505 195 1451Q195
1395 165 1338Q134 1280 85 1258Z" />
<glyph unicode="&#x201a;" glyph-name="quotesinglbase" horiz-adv-x="341" d="M165 -151Q141 -159 126 -159Q102 -159 102 -147Q102 -142 111 -138Q149 -122 171 -82Q186 -54 190 -22Q172 -25 171 -25Q80 -25 80 68Q80 161 171 161Q214 161 244 130Q275 96 275
42Q275 -14 245 -71Q214 -129 165 -151Z" />
<glyph unicode="&#x201c;" glyph-name="quotedblleft" horiz-adv-x="470" d="M385 1487Q409 1495 424 1495Q448 1495 448 1483Q448 1478 439 1474Q401 1458 379 1418Q364 1390 360 1358Q378 1361 379 1361Q470 1361 470 1268Q470 1175 379 1175Q336 1175 306 1206Q275
1240 275 1294Q275 1350 305 1407Q336 1465 385 1487ZM176 1487Q200 1495 215 1495Q239 1495 239 1483Q239 1478 230 1474Q192 1458 170 1418Q155 1390 151 1358Q169 1361 170 1361Q261 1361 261 1268Q261 1175 170 1175Q127 1175 97 1206Q66 1240 66 1294Q66 1350
96 1407Q127 1465 176 1487Z" />
<glyph unicode="&#x201d;" glyph-name="quotedblright" horiz-adv-x="470" d="M85 1256Q61 1248 46 1248Q22 1248 22 1260Q22 1265 31 1269Q69 1285 91 1325Q106 1353 110 1385Q92 1382 91 1382Q0 1382 0 1475Q0 1568 91 1568Q134 1568 164 1537Q195 1503 195
1449Q195 1393 165 1336Q134 1278 85 1256ZM294 1256Q270 1248 255 1248Q231 1248 231 1260Q231 1265 240 1269Q278 1285 300 1325Q315 1353 319 1385Q301 1382 300 1382Q209 1382 209 1475Q209 1568 300 1568Q343 1568 373 1537Q404 1503 404 1449Q404 1393 374
1336Q343 1278 294 1256Z" />
<glyph unicode="&#x201e;" glyph-name="quotedblbase" horiz-adv-x="470" d="M85 -101Q61 -109 46 -109Q22 -109 22 -97Q22 -92 31 -88Q69 -72 91 -32Q106 -4 110 28Q92 25 91 25Q0 25 0 118Q0 211 91 211Q134 211 164 180Q195 146 195 92Q195 36 165 -21Q134
-79 85 -101ZM294 -101Q270 -109 255 -109Q231 -109 231 -97Q231 -92 240 -88Q278 -72 300 -32Q315 -4 319 28Q301 25 300 25Q209 25 209 118Q209 211 300 211Q343 211 373 180Q404 146 404 92Q404 36 374 -21Q343 -79 294 -101Z" />
<glyph unicode="&#x2022;" glyph-name="bullet" horiz-adv-x="430" d="M215 500Q80 500 80 635Q80 770 215 770Q350 770 350 635Q350 500 215 500Z" />
</font>
</defs>
</svg>
