<?xml version="1.0" standalone="no"?>
<!DOCTYPE svg PUBLIC "-//W3C//DTD SVG 20010904//EN"
 "http://www.w3.org/TR/2001/REC-SVG-20010904/DTD/svg10.dtd">
<svg version="1.0" xmlns="http://www.w3.org/2000/svg"
 width="700.000000pt" height="700.000000pt" viewBox="0 0 700.000000 700.000000"
 preserveAspectRatio="xMidYMid meet">
<metadata>
Created by potrace 1.11, written by Peter Selinger 2001-2013
</metadata>
<g transform="translate(0.000000,700.000000) scale(0.100000,-0.100000)"
fill="#000000" stroke="none">
<path d="M3368 6695 c-2 -1 -52 -5 -113 -9 -116 -7 -121 -8 -280 -32 -337 -51
-745 -193 -1049 -366 -805 -457 -1368 -1221 -1560 -2119 -49 -230 -69 -418
-70 -659 -1 -150 10 -365 18 -379 2 -3 7 -37 10 -74 3 -37 11 -88 16 -113 6
-24 13 -61 16 -82 3 -20 17 -80 30 -132 14 -52 27 -104 29 -115 27 -115 149
-425 232 -585 191 -369 473 -729 760 -967 25 -21 60 -50 77 -65 101 -89 356
-256 540 -354 252 -133 604 -256 871 -303 33 -6 71 -13 84 -16 13 -2 49 -7 80
-10 31 -4 63 -8 71 -10 74 -19 494 -26 650 -12 125 12 171 17 200 22 14 3 63
12 110 20 906 160 1732 744 2192 1550 177 311 327 719 372 1016 3 20 7 42 10
50 3 8 8 39 11 69 3 30 8 73 11 95 17 133 21 234 18 425 -2 118 -6 229 -8 245
-3 17 -7 55 -11 85 -5 47 -31 202 -50 304 -22 111 -90 334 -150 486 -166 420
-399 774 -720 1095 -404 403 -884 682 -1425 828 -143 39 -362 81 -470 92 -36
3 -86 8 -112 11 -52 6 -385 14 -390 9z m432 -138 c14 -3 54 -8 90 -12 36 -3
72 -8 80 -10 8 -3 34 -7 57 -10 155 -19 454 -106 662 -192 247 -102 567 -293
746 -444 274 -233 465 -444 639 -708 238 -359 396 -765 471 -1206 5 -33 12
-88 25 -210 8 -76 6 -517 -3 -580 -2 -16 -7 -57 -11 -90 -4 -33 -9 -67 -11
-75 -3 -8 -7 -31 -9 -50 -14 -107 -64 -304 -116 -455 -311 -918 -1042 -1642
-1960 -1944 -201 -65 -462 -120 -660 -138 -108 -10 -480 -10 -585 -1 -548 51
-1100 264 -1543 597 -162 122 -170 129 -333 291 -200 198 -332 366 -473 598
-201 332 -346 739 -402 1121 -4 25 -8 53 -9 62 -20 111 -27 512 -12 689 5 51
10 97 12 100 2 3 6 32 10 64 3 33 8 62 10 65 2 4 6 27 10 51 21 149 110 438
196 639 374 872 1154 1538 2069 1766 159 40 352 73 476 81 49 4 91 8 93 10 5
5 449 -4 481 -9z"/>
<path d="M3527 6053 c-9 -31 -11 -50 -4 -54 5 -4 7 -11 4 -15 -3 -5 -8 -31
-11 -59 -6 -42 -87 -235 -99 -235 -5 0 -4 15 8 112 3 32 2 65 -3 74 -6 11 -11
-10 -15 -68 -3 -45 -9 -104 -13 -130 -8 -54 8 -66 28 -23 6 14 15 25 20 25 5
0 2 -13 -7 -30 -8 -16 -15 -48 -15 -71 0 -41 0 -42 -20 -24 -12 11 -18 27 -16
39 2 12 -1 31 -8 43 -18 34 -105 122 -137 138 -20 11 -38 35 -58 79 -51 113
-69 88 -30 -40 27 -87 42 -117 83 -160 28 -30 34 -33 40 -18 5 13 12 10 36
-21 24 -30 30 -34 30 -18 0 10 -14 32 -31 49 -38 36 -74 93 -65 102 8 7 94
-80 114 -116 6 -12 12 -36 12 -54 0 -39 -54 -138 -75 -138 -21 0 -19 6 20 57
37 49 44 66 21 57 -23 -9 -114 57 -121 88 -9 40 -63 81 -146 114 -41 16 -94
40 -119 54 -62 36 -105 52 -125 48 -13 -2 -3 -13 31 -37 32 -23 42 -27 30 -13
-24 28 -11 28 34 0 27 -17 31 -23 17 -26 -9 -2 -15 -8 -12 -13 11 -17 14 -50
6 -71 -6 -17 -10 -13 -26 28 -18 50 -35 78 -42 71 -2 -3 6 -28 17 -57 38 -97
21 -103 -39 -12 -30 46 -58 85 -64 89 -6 4 -8 -12 -3 -45 5 -40 4 -52 -6 -52
-15 0 -24 -12 -69 -83 -42 -68 -113 -91 -125 -42 -8 33 -22 23 -16 -13 2 -18
-2 -33 -12 -41 -21 -18 -20 -32 2 -24 13 5 14 3 6 -6 -9 -10 -17 -10 -32 -2
-31 16 -55 14 -48 -5 4 -11 -5 -20 -37 -32 -23 -9 -61 -26 -84 -38 -46 -23
-46 -19 2 41 74 92 70 126 -5 46 -28 -30 -48 -45 -45 -34 9 48 19 81 33 108
14 27 14 29 -1 17 -17 -14 -61 -139 -73 -204 -3 -21 -10 -38 -15 -38 -19 0
-20 54 -1 140 11 49 16 90 12 90 -5 0 -14 -26 -20 -57 -6 -32 -13 -70 -16 -85
-7 -35 -14 -35 -45 -2 -44 47 -99 63 -99 29 0 -7 16 -30 35 -49 19 -20 35 -37
35 -39 0 -1 -21 -3 -46 -5 -83 -4 -84 -26 -1 -37 28 -3 61 -8 72 -11 11 -2 2
5 -20 16 -27 14 -32 19 -15 15 14 -2 37 -5 53 -5 32 0 37 -25 10 -56 -127
-141 -176 -194 -180 -190 -2 2 10 32 27 66 17 34 28 65 25 69 -9 8 -50 -43
-74 -91 -10 -21 -20 -35 -23 -33 -3 3 -4 35 -2 71 2 37 0 63 -4 60 -7 -8 -8
-15 -17 -99 -3 -33 -7 -63 -9 -64 -2 -2 -15 23 -29 54 -49 107 -59 109 -18 4
l22 -53 -43 6 c-24 3 -50 2 -58 -4 -16 -10 -12 -12 31 -15 47 -4 79 -15 79
-29 0 -12 -15 -19 -70 -31 -54 -12 -70 -18 -70 -27 0 -7 17 -8 48 -3 69 11
102 13 107 5 2 -4 -6 -27 -19 -51 -13 -24 -43 -93 -66 -154 -23 -60 -46 -114
-50 -118 -15 -16 -32 64 -26 114 4 29 3 49 -3 49 -15 0 -38 -83 -40 -148 -1
-19 -4 -21 -21 -12 -16 8 -18 8 -14 -4 3 -8 12 -17 20 -20 8 -3 14 -10 14 -15
0 -10 -126 52 -145 71 -7 7 3 8 30 4 34 -5 36 -4 15 5 -26 10 -70 5 -70 -10 0
-4 44 -31 98 -60 97 -52 98 -55 11 -30 -26 7 -54 9 -65 4 -14 -6 -3 -11 46
-23 l65 -15 -34 -14 c-45 -19 -36 -23 31 -14 l56 7 -10 -30 c-5 -17 -13 -105
-17 -196 l-7 -165 -23 50 c-12 28 -26 59 -31 70 -6 14 -7 10 -3 -15 7 -47 39
-120 52 -120 6 0 9 -10 7 -22 -3 -13 -5 -29 -5 -35 -1 -18 -76 -15 -121 3 -34
14 -33 14 37 10 l73 -5 -20 39 c-26 50 -41 121 -42 194 -1 41 -4 54 -10 42
-14 -24 4 -181 24 -219 5 -10 8 -20 6 -22 -2 -1 -29 -6 -61 -9 -33 -4 -71 -12
-85 -18 -26 -11 -25 -11 24 -19 107 -17 108 -24 11 -54 -48 -15 -86 -30 -83
-32 3 -3 51 7 106 22 56 14 104 24 107 22 2 -3 -33 -28 -79 -56 -97 -60 -123
-79 -116 -86 2 -3 51 22 109 54 57 33 105 58 107 56 2 -1 5 -38 8 -81 4 -88
18 -171 39 -241 8 -26 15 -58 15 -69 0 -33 -6 -34 -150 -21 -58 6 -61 5 -27
-4 21 -6 55 -20 75 -30 l37 -19 -55 2 c-30 0 -66 -2 -79 -7 -39 -12 -4 -25 74
-26 l70 -1 -55 -24 c-64 -29 -130 -73 -130 -86 0 -5 15 -1 33 8 17 10 64 30
102 46 61 25 60 30 -2 13 -10 -3 -3 2 16 10 18 9 46 19 62 22 26 5 29 3 29
-22 0 -26 -37 -91 -47 -82 -2 3 3 21 11 41 8 20 13 36 10 36 -6 0 -64 -128
-64 -141 0 -23 23 -4 57 47 35 52 38 55 44 33 3 -13 3 -30 -2 -38 -4 -8 -1
-24 7 -36 16 -25 94 -256 94 -279 0 -9 -4 -16 -10 -16 -18 0 -10 -22 10 -27
21 -6 28 -23 9 -23 -21 0 -139 -62 -134 -71 3 -4 21 1 39 12 34 20 121 35 111
19 -3 -5 -30 -14 -59 -21 -30 -6 -67 -22 -83 -35 -37 -30 -14 -31 61 -3 31 12
59 20 62 17 2 -3 -9 -30 -26 -61 -23 -43 -27 -57 -17 -65 13 -11 77 12 77 28
0 5 -14 2 -31 -7 -16 -8 -33 -13 -36 -9 -9 9 46 95 69 107 22 12 22 12 5 -14
-9 -15 -17 -29 -17 -32 0 -11 24 -4 42 12 18 16 20 16 46 -17 15 -19 55 -66
89 -105 43 -48 61 -76 57 -87 -4 -14 1 -18 24 -18 18 0 37 -10 52 -25 23 -25
23 -26 4 -39 -79 -56 -77 -69 5 -36 l50 19 24 -28 c26 -31 62 -47 71 -32 4 5
1 13 -5 17 -8 5 -8 9 2 14 12 8 59 -21 107 -66 12 -12 43 -29 70 -39 26 -10
60 -27 77 -39 16 -12 55 -33 85 -48 l55 -27 -40 -2 c-22 -1 -52 -1 -67 -1 -16
0 -28 -3 -28 -8 0 -4 49 -6 108 -4 78 3 120 0 148 -10 l39 -15 -65 -1 c-127
-4 -122 -15 7 -15 72 0 129 3 127 6 -1 3 53 5 121 5 91 -1 121 -4 111 -12 -11
-7 20 -11 112 -12 70 -2 134 -5 143 -7 28 -9 639 -12 692 -4 29 5 67 11 84 14
18 3 57 8 85 11 29 3 60 10 68 15 10 6 1 7 -25 5 -22 -3 -67 -8 -100 -11 -33
-4 -71 -8 -85 -10 -14 -2 -52 -7 -85 -10 -33 -4 -63 -9 -67 -11 -5 -3 -8 -1
-8 4 0 18 81 45 143 47 38 2 83 11 112 24 47 21 47 21 42 1 -3 -11 -2 -20 1
-20 11 0 34 17 33 24 0 3 2 13 6 22 5 12 15 15 51 10 24 -3 54 0 65 5 11 7 87
11 184 11 90 0 162 2 160 4 -9 9 -63 13 -202 14 l-150 1 40 20 c22 11 77 31
123 46 45 14 101 40 124 57 22 17 48 36 56 41 8 6 34 30 58 55 l44 45 0 -35
c0 -19 -7 -59 -14 -87 -14 -52 -6 -81 12 -46 9 16 19 77 22 128 1 19 2 19 10
-1 4 -11 11 -47 15 -80 10 -82 28 -107 21 -29 -3 33 -8 76 -12 95 -3 19 -7 45
-9 58 -5 32 11 27 62 -18 50 -44 75 -44 43 -1 -21 30 -18 41 12 41 34 0 18 21
-32 42 -56 23 -61 33 -26 49 33 16 75 98 130 258 25 73 50 140 54 148 6 10 16
-2 35 -45 27 -60 51 -90 60 -75 4 7 -30 118 -58 186 -4 10 -3 17 3 17 36 0
103 -51 150 -114 12 -17 22 -24 22 -15 0 8 -22 37 -50 64 -55 55 -61 70 -27
78 12 4 31 13 42 21 17 14 18 17 5 26 -8 5 -28 10 -45 10 l-29 0 47 47 c77 76
57 99 -33 37 -28 -19 -54 -34 -56 -31 -2 2 3 35 11 72 9 37 18 102 21 144 5
81 23 179 34 186 4 2 25 -11 48 -30 22 -19 45 -35 51 -35 5 0 -8 39 -29 86
-22 47 -40 88 -40 90 0 8 42 4 62 -7 18 -10 20 -9 15 6 -4 9 -7 20 -7 25 0 5
-11 10 -26 12 -25 3 -24 4 25 58 65 70 66 88 1 48 -28 -17 -52 -29 -55 -26 -3
2 13 42 35 87 22 45 40 84 40 87 0 15 -21 -3 -53 -46 -38 -51 -63 -66 -52 -31
3 11 -1 25 -9 34 -9 9 -17 46 -22 98 -4 46 -15 113 -25 149 -10 36 -16 66 -15
68 2 2 20 -19 40 -46 40 -55 66 -72 66 -44 0 9 -25 48 -55 85 -53 65 -64 87
-47 87 22 0 156 -105 172 -135 7 -14 17 -25 22 -25 22 0 -31 63 -89 107 -35
26 -63 50 -63 53 0 3 21 6 46 8 48 2 84 16 84 32 0 17 -53 23 -111 14 l-57
-10 33 66 c48 93 65 139 55 145 -7 4 -57 -54 -102 -119 -15 -22 -17 2 -3 47 8
26 10 47 6 47 -5 0 -14 -20 -21 -45 -7 -25 -16 -47 -19 -49 -3 -2 -36 57 -72
131 l-66 134 37 -4 c44 -5 80 7 80 28 0 8 -5 15 -11 15 -6 0 3 13 20 29 17 16
31 34 31 40 0 14 -34 14 -79 1 -19 -5 -36 -8 -38 -6 -2 2 14 32 36 66 61 97
37 115 -42 33 l-37 -38 6 78 c8 93 -9 106 -26 20 -6 -32 -17 -73 -26 -92 l-15
-33 -55 86 c-31 47 -59 84 -64 81 -6 -3 -30 36 -30 49 0 2 19 11 43 21 42 17
87 51 87 67 0 11 -41 10 -79 -3 -18 -6 -34 -9 -37 -6 -3 3 13 30 35 60 23 29
41 57 41 60 0 15 -29 5 -66 -21 -65 -47 -66 -47 -58 -16 11 43 -11 21 -31 -32
-10 -25 -21 -42 -26 -37 -5 5 -11 44 -14 88 -4 44 -8 86 -11 94 -5 17 -17 7
-20 -17 -1 -9 -5 -42 -8 -72 -10 -81 -14 -84 -66 -50 -25 17 -50 30 -56 30 -6
0 -23 9 -37 20 -14 11 -27 16 -29 10 -2 -6 -20 1 -40 15 -20 14 -45 25 -55 25
-33 0 -46 15 -34 38 15 28 14 32 -5 25 -17 -6 -14 15 13 91 14 41 28 136 20
136 -2 0 -20 -30 -38 -66 -19 -37 -45 -77 -59 -89 -14 -12 -47 -42 -75 -66
-27 -24 -60 -52 -72 -62 -20 -18 -23 -18 -50 -2 l-28 16 28 -6 c15 -3 27 -1
27 5 0 5 18 21 41 35 57 37 38 67 -28 43 -26 -9 -30 7 -14 58 63 205 65 242 5
119 -57 -116 -65 -135 -55 -135 5 0 16 18 25 40 18 46 29 53 20 13 -20 -85
-40 -111 -116 -149 -40 -20 -84 -44 -98 -53 -42 -29 -70 -16 -71 32 0 25 -5
17 -25 -43 -14 -41 -30 -80 -36 -87 -8 -10 -5 -13 10 -13 15 0 20 -5 16 -15
-4 -8 -13 -15 -20 -15 -8 0 -17 -7 -20 -15 -4 -8 -15 -15 -27 -15 -18 0 -19 2
-5 18 8 9 16 24 16 32 1 8 4 62 7 120 6 84 4 109 -8 124 -13 18 -14 18 -19 -7
-3 -15 -1 -24 3 -21 5 3 9 -1 9 -10 0 -8 3 -21 6 -30 3 -9 1 -16 -4 -16 -6 0
-13 8 -15 18 -3 9 -5 0 -6 -20 -1 -38 -9 -46 -27 -28 -5 5 -15 6 -24 0 -12 -8
-13 -15 -3 -40 10 -27 10 -30 -3 -20 -21 18 -17 52 9 92 13 19 27 48 31 64 4
16 25 64 47 108 21 43 39 82 39 87 0 13 -33 -3 -52 -26 -10 -11 -18 -18 -18
-15 -1 3 -4 16 -6 30 -3 13 -9 29 -14 34 -10 10 -6 -34 6 -72 2 -7 -5 -34 -15
-60 -10 -26 -17 -61 -15 -78 2 -21 -3 -38 -16 -52 -11 -12 -20 -29 -20 -39 0
-15 -4 -14 -21 7 l-20 25 6 -25 c6 -24 5 -24 -9 -6 -9 11 -16 28 -16 38 0 10
-4 18 -9 18 -11 0 -25 -56 -17 -69 7 -10 -3 -41 -13 -41 -9 0 -31 51 -31 73 0
10 -4 15 -10 12 -6 -4 -10 10 -10 34 0 52 0 52 -12 74 -7 13 -5 23 5 35 8 9
20 34 26 54 22 68 32 58 47 -47 10 -73 26 -93 21 -27 -5 64 10 49 19 -19 8
-61 19 -78 36 -61 25 25 16 269 -12 295 -8 8 -11 8 -6 0 8 -14 21 -243 13
-243 -3 0 -13 26 -22 57 -9 32 -25 74 -36 95 -10 20 -19 49 -19 63 0 42 -17
28 -35 -27 -10 -29 -36 -99 -58 -156 -31 -78 -38 -108 -31 -120 8 -11 6 -24
-4 -45 -8 -15 -12 -31 -9 -34 10 -10 38 59 37 90 -1 18 -1 39 -1 47 1 13 3 13
10 0 10 -17 8 -72 -4 -110 -4 -14 -30 -53 -58 -88 -49 -63 -51 -63 -91 -58
-23 3 -50 5 -60 5 -35 1 -5 16 35 17 22 1 48 9 59 19 18 16 18 16 13 -7 -4
-18 -2 -20 5 -8 15 20 25 104 23 188 -1 68 2 79 39 149 22 41 52 91 65 111 30
44 24 53 -16 23 l-31 -23 5 38 c12 83 19 184 13 184 -3 0 -12 -21 -19 -47z
m-356 -220 c29 -66 49 -123 44 -123 -8 0 -52 94 -63 133 -14 51 -5 47 19 -10z
m-337 -122 c38 -56 45 -81 23 -81 -13 0 -57 79 -72 130 -9 32 2 21 49 -49z
m187 23 c20 -25 4 -24 -26 1 -26 21 -27 23 -8 18 12 -3 28 -12 34 -19z m449
-10 c-18 -21 -24 -10 -8 15 7 12 14 17 16 11 2 -6 -2 -17 -8 -26z m984 -11
c-38 -129 -48 -142 -133 -168 -21 -6 -19 -2 15 34 44 48 88 112 105 153 19 46
28 32 13 -19z m-1415 -35 c7 -11 19 -17 26 -14 7 2 18 -1 24 -7 14 -14 14 -2
1 24 -14 26 -1 24 34 -5 l30 -23 -30 -7 c-16 -4 -31 -11 -34 -16 -3 -5 -26 -4
-51 2 -43 10 -45 12 -41 41 3 20 1 28 -7 23 -6 -4 -11 -5 -11 -2 0 2 -3 13 -7
23 -7 17 -6 17 22 -1 17 -11 36 -28 44 -38z m764 37 c-3 -9 -8 -14 -10 -11 -3
3 -2 9 2 15 9 16 15 13 8 -4z m-1002 -91 c-14 -6 -36 -15 -49 -18 -24 -8 -25
-10 13 77 l16 38 23 -43 23 -43 -26 -11z m346 70 l28 -25 -32 15 c-33 16 -52
36 -34 36 5 0 23 -11 38 -26z m-429 -70 c-7 -15 -14 -21 -16 -15 -2 7 2 18 8
26 18 22 21 18 8 -11z m1600 -45 c-29 -27 -62 -55 -73 -61 -20 -11 -20 -11 -1
13 40 49 121 120 124 109 2 -6 -20 -33 -50 -61z m-1098 14 c27 -21 49 -41 49
-44 2 -11 -77 -49 -81 -39 -5 15 -128 -110 -128 -129 0 -11 5 -9 16 7 8 12 21
22 28 22 15 0 83 69 76 77 -3 3 5 8 17 9 20 3 19 -1 -16 -54 -104 -155 -115
-182 -189 -442 -31 -109 -48 -206 -31 -179 5 7 9 23 9 35 0 11 14 67 31 124
17 56 32 110 34 120 2 10 15 47 29 82 14 36 26 68 26 73 0 13 62 117 67 112 2
-3 -3 -19 -12 -37 -9 -17 -18 -44 -20 -60 -2 -16 -17 -58 -34 -93 -17 -36 -31
-70 -31 -76 0 -6 -13 -60 -30 -119 -16 -59 -32 -123 -35 -142 -3 -19 -14 -71
-25 -115 -30 -125 -40 -191 -45 -298 -5 -107 -5 -707 0 -742 2 -16 6 -75 10
-130 8 -152 12 -177 56 -354 23 -91 43 -176 45 -190 3 -14 10 -43 15 -65 6
-21 13 -57 15 -79 3 -23 8 -45 10 -49 3 -5 9 -22 14 -38 12 -41 -7 -39 -26 3
-14 29 -14 29 -9 5 4 -22 2 -26 -10 -22 -8 4 -15 1 -15 -4 0 -6 9 -14 20 -17
18 -6 29 -35 13 -35 -13 0 -43 33 -43 48 0 9 -3 13 -6 9 -7 -6 8 -57 39 -135
20 -51 20 -55 4 -67 -9 -7 -17 -22 -17 -34 0 -12 -4 -20 -9 -16 -11 6 -10 45
0 45 15 0 -5 84 -24 103 -14 14 -17 27 -13 48 6 31 -18 62 -73 95 l-29 17 44
90 c24 50 44 96 44 103 0 30 -29 -2 -66 -71 -39 -75 -53 -90 -55 -57 0 9 -2
26 -4 37 -2 11 -7 47 -10 80 -4 39 -13 66 -25 77 -10 9 -23 40 -29 68 -18 84
-20 81 59 74 50 -5 70 -4 70 5 0 6 -8 11 -17 11 -10 1 -29 7 -42 14 -24 13
-24 14 -4 25 25 13 68 79 59 89 -4 3 -36 -8 -72 -26 -35 -18 -66 -32 -69 -32
-2 0 8 26 21 57 27 59 39 173 19 171 -5 -1 -17 -24 -26 -52 -16 -50 -16 -51
-24 -21 -4 17 -11 44 -16 60 -9 29 -9 28 -3 -5 15 -97 16 -130 6 -130 -6 0
-16 8 -21 18 -7 12 -9 4 -5 -33 10 -99 -19 -95 -104 16 -48 62 -72 83 -72 62
0 -8 53 -77 97 -126 13 -16 23 -31 21 -33 -3 -2 -41 3 -86 12 -46 10 -85 14
-89 11 -18 -19 103 -97 150 -97 24 0 21 -9 -15 -47 -17 -18 -29 -36 -25 -39
11 -11 66 17 92 48 28 34 25 39 55 -87 12 -49 26 -94 31 -99 5 -6 9 -28 9 -50
0 -23 9 -60 19 -83 l19 -42 -46 30 c-46 29 -100 49 -136 49 -43 0 36 -54 123
-85 l36 -12 -54 -17 c-30 -9 -60 -16 -66 -16 -26 0 -125 220 -170 376 -41 140
-98 436 -112 576 l-5 57 58 -24 c33 -13 76 -27 96 -30 l38 -7 -45 -51 c-25
-29 -45 -55 -45 -59 0 -21 28 -3 82 52 57 58 69 68 67 53 -1 -5 -1 -30 0 -56
1 -39 5 -50 20 -54 12 -3 22 -16 24 -32 2 -14 4 -3 3 24 -1 28 -5 55 -9 62 -4
6 -6 38 -5 71 2 44 6 58 15 55 7 -3 14 -19 15 -37 l1 -31 4 33 c4 30 19 39 56
33 5 -1 6 3 2 9 -3 5 -16 10 -28 10 -18 0 -15 6 25 48 39 40 78 98 78 117 0
14 -22 1 -68 -40 -27 -25 -52 -45 -55 -45 -3 0 3 26 13 58 35 116 31 175 -6
81 -20 -47 -33 -43 -32 12 0 22 -2 43 -6 46 -3 4 -6 -10 -6 -29 0 -46 -11 -98
-20 -98 -4 0 -6 32 -5 71 1 38 -1 72 -5 74 -11 7 -12 -156 0 -170 8 -10 7 -21
-4 -44 -9 -16 -12 -32 -8 -35 5 -3 23 25 42 62 18 37 35 62 37 55 8 -22 -40
-113 -70 -135 l-30 -22 -34 39 c-36 42 -63 117 -63 177 0 24 -4 37 -10 33 -13
-8 -13 -90 1 -140 6 -22 22 -55 35 -72 28 -37 30 -36 -56 -33 -25 1 -58 -3
-73 -9 -24 -9 -27 -8 -33 14 -6 25 11 313 22 370 3 16 10 35 16 42 6 8 8 29 5
51 -4 23 -3 32 2 23 7 -11 10 -7 13 15 3 28 4 29 55 26 99 -5 100 -8 28 -87
-35 -38 -64 -73 -65 -77 0 -18 22 -5 73 42 30 28 58 50 61 50 3 0 6 -10 6 -22
0 -13 7 -41 14 -63 l14 -40 7 37 c4 20 4 41 0 47 -3 6 -1 11 4 11 6 0 11 -19
12 -42 1 -35 2 -38 8 -18 7 24 8 24 18 5 6 -11 9 -37 8 -57 -1 -21 1 -38 4
-38 4 0 8 19 9 43 1 23 3 51 5 62 2 11 -4 42 -14 70 -14 39 -15 53 -6 63 14
13 107 48 151 56 15 3 34 10 42 17 44 36 -74 56 -148 24 -21 -8 -38 -13 -38
-10 0 3 27 41 60 83 55 72 74 112 51 112 -16 0 -120 -122 -138 -161 -30 -65
-38 -51 -48 81 -7 97 -12 123 -26 114 -14 -8 -9 -137 7 -199 7 -28 11 -51 9
-53 -2 -2 -22 2 -46 8 -23 7 -56 9 -72 6 l-30 -6 7 52 c4 29 16 87 27 130 27
109 23 117 -11 18 -33 -97 -30 -48 4 65 l22 70 64 21 c36 11 79 28 97 37 18
10 34 17 36 17 3 0 -8 -44 -24 -97 -31 -106 -37 -168 -16 -176 9 -3 21 28 41
107 35 138 54 186 73 186 11 0 13 -5 8 -17 -13 -30 -46 -165 -42 -170 2 -2 12
27 21 64 20 81 36 123 46 123 5 0 6 -10 4 -22 -4 -20 -3 -20 4 -4 4 10 23 24
42 30 18 6 35 16 37 22 6 17 -53 36 -136 44 -2 0 4 9 15 21 12 14 15 22 7 27
-8 5 -1 19 18 42 23 27 27 29 18 10 -7 -14 -17 -28 -23 -32 -6 -4 -8 -10 -5
-13 13 -12 94 84 120 143 37 83 36 93 -2 20 -17 -34 -36 -58 -45 -58 -16 0
-16 5 2 75 4 17 3 17 -6 5 -15 -20 -4 44 22 128 21 68 37 80 40 30 2 -45 1
-50 -7 -73 -6 -19 -6 -19 5 -2 11 18 13 17 40 -8 15 -15 31 -22 34 -17 3 6 -6
40 -19 77 -14 37 -24 69 -23 70 2 2 22 0 45 -4 69 -13 72 5 8 49 -49 34 -58
62 -25 80 18 9 20 8 20 -15 0 -30 9 -31 41 -6 42 32 134 79 147 74 6 -3 12 2
12 11 0 20 -2 20 -53 -5 -49 -25 -44 -16 10 17 47 29 32 31 -22 4 l-40 -21 28
26 c36 32 44 65 15 57 -14 -3 -19 -1 -14 6 12 20 35 13 86 -25z m1006 22 c-11
-8 -27 -15 -35 -15 -13 1 -12 4 3 15 11 8 27 15 35 15 13 -1 12 -4 -3 -15z
m-1176 -15 c0 -5 -7 -10 -16 -10 -8 0 -12 5 -9 10 3 6 10 10 16 10 5 0 9 -4 9
-10z m391 -77 c-9 -15 -10 -11 -11 19 0 54 14 83 18 36 2 -21 -1 -46 -7 -55z
m-648 60 c-7 -2 -21 -2 -30 0 -10 3 -4 5 12 5 17 0 24 -2 18 -5z m1352 -3 c3
-5 1 -10 -4 -10 -6 0 -11 5 -11 10 0 6 2 10 4 10 3 0 8 -4 11 -10z m-1136 -14
c10 -12 8 -17 -8 -25 -26 -14 -38 -14 -24 0 6 6 9 18 6 25 -7 18 11 18 26 0z
m88 -7 c-22 -11 -41 -18 -44 -15 -4 3 9 12 28 20 50 22 60 18 16 -5z m1025 4
c4 -14 -2 -18 -26 -19 l-30 -1 23 18 c28 23 28 23 33 2z m-1462 -3 c0 -5 -5
-10 -11 -10 -5 0 -7 5 -4 10 3 6 8 10 11 10 2 0 4 -4 4 -10z m180 -15 c0 -5
-55 -35 -65 -35 -16 0 -1 20 23 28 32 12 42 14 42 7z m460 -20 c0 -14 -87 -91
-95 -84 -2 3 15 28 37 57 38 49 58 58 58 27z m400 -5 c6 -11 8 -20 6 -20 -3 0
-10 9 -16 20 -6 11 -8 20 -6 20 3 0 10 -9 16 -20z m520 -13 c0 -19 -1 -20 -20
-2 -11 10 -20 21 -20 26 0 4 9 5 20 2 12 -3 20 -14 20 -26z m-1505 -7 c-18
-35 -25 -39 -20 -10 5 26 14 40 26 40 5 0 3 -13 -6 -30z m923 -57 c41 -87 123
-322 121 -353 0 -17 -18 29 -85 220 -26 74 -51 137 -54 140 -8 6 -40 66 -40
75 0 3 4 5 8 5 4 0 27 -39 50 -87z m160 46 c-3 -41 -14 -36 -16 6 -1 21 3 33
8 30 6 -4 9 -20 8 -36z m657 28 c29 -22 2 -28 -31 -6 -25 16 -26 19 -8 19 11
0 28 -6 39 -13z m-1813 -22 c-5 -26 -16 -32 -27 -15 -10 16 2 40 18 40 10 0
13 -8 9 -25z m1078 -43 c16 -25 30 -55 30 -66 -1 -20 -1 -20 -20 3 -11 13 -20
29 -20 36 0 6 -9 20 -19 29 -19 17 -20 17 -23 -6 -3 -13 -4 -2 -4 24 1 54 9
51 56 -20z m306 44 c-1 -23 -2 -23 -18 -9 -19 17 -15 33 7 33 7 0 12 -10 11
-24z m169 -16 c14 -23 36 -42 50 -46 14 -3 30 -15 35 -25 13 -23 97 -82 109
-75 4 3 24 -8 44 -25 44 -37 158 -184 150 -192 -3 -4 0 -13 7 -22 7 -8 8 -15
2 -15 -5 0 -39 33 -75 73 -120 132 -137 150 -137 141 0 -5 32 -47 70 -94 39
-47 94 -114 124 -150 29 -36 56 -78 60 -94 4 -16 36 -77 72 -136 43 -70 70
-127 78 -166 8 -32 23 -90 35 -129 12 -38 24 -83 27 -99 2 -16 6 -32 8 -35 2
-3 7 -31 11 -61 4 -30 12 -61 17 -68 15 -18 21 -114 22 -349 1 -112 4 -203 7
-203 14 0 36 136 38 230 l1 55 25 -38 c27 -39 43 -50 25 -18 -5 11 -10 29 -10
41 0 11 -9 38 -20 59 -10 21 -21 51 -24 66 -9 46 23 9 61 -72 35 -75 42 -117
21 -127 -7 -3 -4 -4 7 -3 16 2 19 9 18 34 -4 50 -42 140 -79 188 -44 58 -45
84 -4 79 36 -4 101 -36 119 -58 18 -21 0 -21 -40 0 -17 8 -33 14 -35 11 -9 -9
84 -50 100 -44 24 9 9 32 -45 68 l-44 29 44 0 c56 0 50 7 -9 11 -56 3 -72 8
-64 20 3 6 41 9 85 8 44 -1 83 1 86 5 3 3 -7 6 -23 7 -49 2 -106 7 -109 11 -2
2 17 37 41 78 71 120 57 134 -34 35 -33 -36 -62 -65 -64 -65 -3 0 -3 23 0 50
5 53 -4 62 -33 34 -9 -9 -17 -15 -19 -13 -1 2 -14 49 -28 105 l-25 101 61 -30
c62 -32 136 -42 143 -20 4 12 -119 81 -201 113 -75 29 -53 52 26 28 29 -9 41
-9 47 0 4 7 12 8 21 2 8 -6 24 -10 35 -10 33 1 -4 18 -69 33 l-56 12 37 20
c21 11 59 32 84 47 25 16 51 28 58 28 6 0 21 -21 32 -46 20 -48 20 -73 -1 -35
-6 12 -15 19 -20 16 -5 -3 14 -51 41 -107 33 -64 52 -116 54 -142 3 -53 23
-196 44 -316 21 -115 19 -174 -8 -283 -11 -45 -22 -92 -24 -105 -2 -12 -9 -28
-15 -34 -8 -8 -12 -56 -12 -147 0 -79 -6 -160 -14 -194 -11 -49 -11 -56 0 -46
8 6 14 18 14 27 0 8 2 13 5 10 3 -3 -4 -40 -15 -84 -11 -43 -20 -94 -20 -111
0 -18 -12 -63 -26 -100 -14 -38 -27 -82 -29 -98 -3 -27 -41 -105 -51 -105 -3
0 5 18 16 40 11 23 19 44 16 49 -3 4 6 35 20 69 26 66 44 190 26 178 -6 -3
-13 -25 -17 -49 -16 -99 -73 -233 -122 -287 -27 -29 -21 -41 7 -15 20 18 21
18 14 -1 -11 -31 -23 -41 -52 -47 -15 -3 -58 -36 -96 -72 -39 -37 -75 -68 -80
-69 -6 -1 -16 -5 -22 -8 -6 -4 -23 -12 -38 -18 l-27 -10 27 36 c21 27 25 37
15 44 -9 5 -10 10 -2 14 6 4 11 2 11 -3 0 -20 15 -11 32 17 8 15 14 41 12 57
-1 17 -6 55 -9 85 l-6 55 29 -45 c39 -61 80 -102 92 -95 30 18 -11 142 -69
207 l-32 37 28 -7 c15 -3 53 -6 83 -6 42 -1 55 3 58 15 2 11 -10 21 -35 31
l-38 15 52 22 c85 37 103 78 21 48 -67 -24 -117 -36 -122 -28 -3 4 12 50 34
102 21 52 42 119 46 149 l7 54 54 -59 c29 -33 53 -64 53 -68 0 -14 -42 20 -61
50 -15 22 -19 24 -19 9 0 -22 62 -86 84 -86 25 0 19 34 -14 75 -16 21 -30 39
-30 41 0 2 22 -10 49 -26 47 -29 91 -39 91 -21 0 5 -23 34 -50 65 l-51 55 43
19 c40 17 76 48 67 56 -2 2 -30 -1 -62 -6 -32 -6 -61 -8 -64 -5 -3 3 8 25 24
49 45 67 77 141 66 152 -3 3 -18 -14 -33 -37 -30 -47 -106 -127 -120 -127 -10
0 16 77 32 94 4 6 8 21 8 35 -1 24 -2 23 -21 -11 -11 -21 -24 -38 -29 -38 -5
0 -11 -15 -13 -32 -2 -18 -3 35 -2 119 1 84 -2 154 -6 155 -5 2 -10 67 -11
146 -2 78 -6 142 -9 142 -10 0 -4 -431 6 -453 12 -29 -3 -195 -25 -277 -25
-88 -70 -221 -80 -235 -4 -5 -26 -57 -49 -115 -41 -105 -112 -237 -149 -276
-10 -11 -52 -69 -92 -130 -40 -60 -98 -140 -128 -178 -30 -38 -48 -65 -39 -60
31 18 279 365 347 487 17 31 37 57 43 57 5 0 3 -8 -6 -18 -10 -10 -17 -24 -17
-31 0 -33 -164 -341 -182 -341 -13 0 -10 6 33 77 52 86 55 91 41 78 -14 -13
-75 -97 -148 -202 -31 -45 -75 -100 -98 -121 -24 -22 -46 -47 -49 -56 -8 -21
-66 -56 -92 -56 -17 0 -14 6 18 38 56 56 191 247 237 335 22 42 38 77 36 77
-12 0 -96 -121 -91 -130 6 -10 -36 -83 -55 -95 -18 -11 -11 6 20 45 29 37 38
56 21 46 -4 -3 -34 -44 -66 -91 -64 -94 -73 -104 -104 -110 -53 -10 -50 6 11
81 33 41 62 74 64 74 2 0 -5 -15 -16 -32 -38 -62 -20 -53 21 10 22 34 37 67
34 73 -4 5 -2 8 4 7 12 -4 111 139 146 210 33 70 100 266 108 317 4 22 -10 -8
-30 -67 -20 -59 -38 -106 -40 -104 -2 2 8 43 22 91 14 48 25 95 24 104 0 9
-11 -23 -24 -71 -13 -47 -31 -103 -40 -123 -19 -47 -19 -68 0 -35 21 36 18 19
-7 -47 -22 -61 -66 -138 -74 -130 -7 6 26 78 48 106 12 16 17 34 14 47 -3 12
0 40 8 62 12 33 41 159 60 262 38 209 57 312 61 345 10 82 4 576 -8 605 -3 8
-8 44 -11 80 -4 36 -9 84 -12 108 -7 49 2 56 14 10 4 -18 11 -28 14 -23 10 18
-123 431 -176 545 -14 30 -23 62 -21 71 4 10 -17 50 -50 98 -57 83 -64 97 -42
85 7 -4 9 -3 4 2 -5 5 -10 7 -11 4 -2 -3 -11 2 -21 10 -11 9 -6 -4 12 -30 91
-135 86 -171 -6 -45 -89 120 -90 121 -141 164 -19 16 -31 33 -27 38 5 4 13 -1
19 -11 10 -18 12 -18 23 -2 11 15 17 11 50 -34 20 -27 41 -48 46 -44 5 3 9 0
9 -7 0 -7 3 -9 6 -6 4 4 -15 32 -42 63 -27 31 -60 71 -73 88 -22 28 -23 29 -3
12 31 -27 27 -4 -4 28 -15 14 -22 26 -16 26 6 0 24 -19 41 -42 16 -24 46 -59
66 -78 20 -19 50 -54 67 -78 16 -24 32 -41 35 -38 5 4 -55 86 -77 106 -24 21
-109 140 -101 140 6 0 22 -18 36 -40z m210 19 c5 -5 -13 -9 -45 -9 -53 1 -54
1 -30 15 25 14 56 11 75 -6z m-1521 -30 c-24 -26 -25 -29 -7 -20 30 15 33 14
33 -14 0 -23 -4 -25 -42 -26 -58 -2 -83 -5 -102 -12 -9 -4 -16 -3 -16 1 0 10
153 112 159 106 3 -2 -9 -18 -25 -35z m943 9 c-3 -7 -5 -2 -5 12 0 14 2 19 5
13 2 -7 2 -19 0 -25z m-1152 5 c-2 -10 -4 -21 -4 -25 -1 -5 -5 -8 -10 -8 -10
0 -9 19 2 38 11 17 16 15 12 -5z m1296 0 c13 -16 12 -17 -3 -4 -10 7 -18 15
-18 17 0 8 8 3 21 -13z m-1366 -24 c22 -41 15 -45 -23 -11 -18 16 -29 32 -25
35 14 15 33 5 48 -24z m165 11 c-14 -11 -20 -20 -14 -20 5 0 19 7 30 15 41 31
34 13 -12 -31 -44 -41 -59 -51 -87 -53 -5 -1 -5 -5 -2 -11 3 -5 28 -10 55 -10
27 0 51 -3 53 -8 3 -4 -20 -34 -50 -67 -70 -76 -118 -145 -115 -166 1 -8 -7
-24 -19 -35 -14 -12 -19 -13 -14 -4 6 12 5 13 -5 3 -8 -7 -15 -28 -16 -47 -4
-48 -31 -86 -60 -86 -29 0 -23 -22 11 -40 33 -18 36 -30 14 -75 -40 -81 -68
-163 -89 -255 -20 -86 -25 -117 -29 -172 0 -10 -6 -18 -12 -18 -11 0 -7 45 16
160 5 21 4 22 -5 7 -6 -9 -13 -27 -16 -40 -4 -23 -21 -118 -29 -164 -2 -15 -9
-51 -15 -80 -7 -30 -13 -67 -14 -83 -1 -15 -7 -35 -14 -42 -18 -22 -37 -303
-22 -313 3 -2 7 38 8 90 1 88 8 155 17 163 2 2 2 -45 1 -105 -2 -59 1 -113 6
-120 12 -15 26 -191 16 -206 -6 -9 -8 -9 -8 1 0 6 -5 12 -11 12 -27 0 31 -350
64 -388 8 -9 39 -89 70 -177 30 -88 63 -178 72 -200 16 -37 16 -38 0 -25 -23
19 -94 165 -125 255 -29 85 -41 102 -35 49 l5 -39 -14 30 c-9 17 -15 38 -16
48 0 10 -7 34 -16 55 -9 20 -31 102 -50 182 -19 80 -32 125 -29 100 3 -25 19
-97 35 -160 17 -63 37 -142 45 -175 9 -33 34 -104 56 -158 22 -54 37 -102 34
-107 -4 -6 7 -27 24 -47 17 -21 31 -41 31 -45 0 -14 128 -218 136 -218 2 0 1
7 -2 15 -9 22 9 18 23 -4 9 -14 9 -21 1 -23 -14 -5 12 -48 29 -48 7 0 13 -4
13 -10 0 -24 -22 -5 -81 70 -34 44 -64 80 -66 80 -8 0 39 -69 80 -118 15 -18
27 -38 27 -45 0 -7 18 -32 40 -56 45 -50 49 -62 20 -54 -11 3 -20 9 -20 14 0
4 -10 14 -22 20 -22 12 -22 11 -5 -8 9 -11 17 -23 17 -26 0 -16 -110 62 -164
117 -33 33 -62 54 -64 48 -5 -16 -29 -15 -35 1 -3 6 -6 2 -6 -10 -1 -22 -11
-29 -24 -17 -11 11 15 65 29 60 22 -8 16 13 -9 37 -12 12 -38 42 -57 67 -19
24 -46 56 -58 70 -29 31 -112 199 -116 234 -1 14 -11 34 -20 45 -12 13 -15 27
-11 42 5 16 4 19 -6 14 -9 -6 -11 -4 -6 8 3 8 -7 47 -24 85 -36 88 -62 253
-85 547 -22 276 11 601 66 650 19 17 29 52 12 41 -11 -7 -7 51 8 113 21 87 78
245 93 256 8 5 22 25 31 44 21 39 81 126 113 161 13 14 23 29 23 34 0 9 -28
-11 -47 -34 -24 -29 -13 4 17 49 30 47 150 172 150 157 0 -5 -19 -29 -41 -54
-30 -31 -38 -46 -29 -52 9 -5 -2 -28 -39 -80 -28 -40 -51 -78 -51 -84 0 -12
112 153 114 169 4 29 226 242 239 229 3 -3 10 4 16 15 7 11 28 32 49 46 43 30
58 33 22 5z m610 1 c-12 -23 -29 -35 -36 -28 -10 9 16 47 32 47 11 0 12 -4 4
-19z m48 2 c-2 -10 -11 -19 -21 -21 -16 -3 -17 -1 -7 17 13 25 33 28 28 4z
m91 -24 c-13 -19 -25 -27 -27 -20 -4 13 38 65 46 57 2 -3 -6 -19 -19 -37z
m1451 21 c-13 -25 -99 -110 -111 -110 -24 0 -4 33 48 79 60 54 81 64 63 31z
m-2824 -6 c13 -9 34 -30 45 -45 18 -26 19 -28 2 -22 -30 11 -72 43 -83 64 -13
24 1 25 36 3z m339 -4 c-10 -11 -25 -20 -34 -20 -12 1 -10 5 8 20 30 26 49 26
26 0z m465 -35 c0 -42 -1 -44 -35 -51 -19 -3 -43 -3 -52 2 -14 6 -8 9 22 13
38 6 40 8 37 38 -2 18 -1 37 3 43 13 20 25 -2 25 -45z m1086 -105 c86 -129
167 -235 103 -135 -17 28 -48 74 -67 103 -38 56 -37 84 0 37 13 -15 52 -74 88
-130 85 -135 94 -147 79 -115 -7 14 -13 34 -15 46 -2 22 -53 106 -117 192 -21
30 -37 56 -34 58 2 2 17 -15 33 -38 16 -24 32 -45 35 -48 29 -26 149 -241 169
-304 7 -23 15 -34 19 -27 10 15 30 -31 80 -183 25 -76 41 -112 44 -100 3 10 3
3 0 -17 -3 -21 0 -40 6 -43 6 -4 8 -18 5 -31 -3 -13 -2 -30 2 -37 5 -7 7 -26
6 -43 -2 -23 0 -26 7 -15 8 12 10 11 8 -7 0 -12 -5 -19 -11 -16 -5 4 -7 -1 -3
-11 4 -10 8 -34 8 -54 1 -37 1 -37 8 -7 6 24 9 13 17 -55 7 -58 7 -90 -1 -99
-7 -11 -7 -13 2 -8 7 5 12 1 11 -10 0 -10 3 -63 8 -118 13 -160 9 -512 -6
-530 -7 -9 -14 -39 -16 -68 -2 -28 -6 -70 -9 -92 -3 -22 -8 -62 -11 -90 -15
-124 -107 -410 -144 -449 -36 -37 -40 -7 -8 67 37 87 89 239 84 244 -2 3 -10
-13 -16 -34 -22 -66 -103 -267 -118 -290 -8 -13 -21 -23 -28 -23 -17 0 -18
-17 -2 -22 8 -3 0 -17 -21 -36 -19 -17 -32 -35 -28 -38 4 -4 7 -2 7 4 0 7 5
12 10 12 6 0 10 -7 10 -16 0 -11 -6 -15 -19 -11 -16 4 -24 -5 -40 -39 -12 -24
-23 -44 -26 -44 -6 0 11 45 30 79 38 69 75 152 66 146 -6 -3 -34 -52 -62 -108
-59 -118 -59 -119 -79 -107 -12 7 -12 12 -2 22 6 6 12 22 12 34 0 12 16 56 35
98 50 110 42 108 -13 -3 -44 -88 -72 -124 -87 -109 -4 3 9 43 28 87 20 45 32
81 27 81 -4 0 -2 19 5 43 7 23 13 45 13 50 0 4 6 32 12 63 l12 56 34 -51 c19
-29 39 -49 45 -46 5 4 -1 19 -15 36 -14 17 -31 48 -38 71 -10 35 -10 43 2 50
8 5 48 28 89 51 86 48 105 74 47 63 -21 -4 -44 -10 -53 -13 -13 -5 -13 -2 1
26 23 44 6 38 -26 -9 -47 -68 -58 -51 -27 43 15 45 31 100 34 122 11 63 -9 31
-35 -55 -25 -86 -65 -166 -75 -151 -3 6 -4 15 0 20 3 5 -1 16 -9 23 -7 8 -30
51 -51 96 -21 45 -41 82 -45 82 -4 0 2 -33 12 -72 11 -40 23 -86 27 -103 19
-73 57 -115 76 -85 3 6 11 10 16 10 6 0 3 -7 -6 -16 -21 -22 -53 -12 -105 31
-41 34 -83 45 -95 25 -3 -5 -2 -10 4 -10 14 0 100 -53 101 -62 0 -4 -16 -10
-35 -14 -19 -3 -35 -11 -35 -16 0 -6 11 -8 25 -6 44 9 36 -8 -30 -61 -36 -29
-63 -57 -60 -61 6 -10 92 24 116 46 26 23 29 17 23 -43 -7 -67 3 -68 12 -2 7
59 23 98 45 109 22 12 34 -3 21 -27 -6 -10 -12 -34 -15 -53 -4 -19 -11 -55
-17 -80 -6 -25 -12 -58 -12 -75 -1 -16 -8 -46 -17 -65 l-16 -35 -3 53 c-2 35
2 59 12 74 9 12 16 34 15 48 -1 22 -2 22 -10 -7 -5 -18 -16 -33 -24 -33 -8 0
-17 -12 -20 -27 -19 -91 -57 -183 -76 -183 -19 0 -21 72 -4 116 9 25 15 47 12
50 -2 3 -8 -7 -11 -22 -4 -14 -10 -24 -13 -20 -3 3 -12 1 -19 -5 -9 -8 -17 -4
-29 14 -14 23 -14 32 4 118 26 122 30 144 38 204 8 65 -4 54 -17 -16 -6 -30
-12 -65 -15 -79 -29 -144 -36 -225 -24 -267 9 -34 9 -50 0 -71 -10 -24 -10
-25 3 -9 13 17 15 15 36 -18 12 -20 21 -38 19 -39 -2 -2 -23 -6 -47 -10 -41
-5 -42 -5 -32 17 11 21 10 21 -9 -2 -27 -30 -27 -11 -1 58 12 29 19 58 18 63
-2 5 -14 -24 -28 -64 -13 -40 -30 -79 -37 -86 -17 -17 -17 -17 8 59 23 68 36
141 20 104 -5 -11 -19 -53 -32 -93 -13 -43 -26 -69 -31 -64 -5 5 -3 27 6 53 8
24 18 60 22 79 4 19 8 37 9 40 1 3 5 23 10 45 4 22 14 47 22 56 7 9 18 31 24
50 14 49 37 241 40 334 1 44 5 82 10 85 4 3 10 53 14 110 3 58 8 122 11 143 3
25 0 37 -8 37 -10 0 -13 25 -13 94 0 52 3 92 8 89 4 -2 7 67 6 154 0 98 -4
150 -9 138 -7 -17 -9 -14 -11 15 -1 19 -3 40 -4 45 -1 6 -5 51 -10 100 -5 50
-9 99 -10 110 -1 11 -5 61 -9 110 -5 50 -12 95 -17 101 -8 10 -17 48 -34 154
-3 19 -10 53 -15 75 -20 84 -7 76 15 -10 12 -49 23 -83 24 -75 0 8 -10 61 -24
118 -14 57 -25 115 -25 130 0 15 -12 63 -26 107 -14 44 -27 99 -29 123 -2 23
-13 67 -24 98 -24 63 -24 64 -11 64 6 0 10 -8 10 -17 1 -10 12 -38 25 -63 18
-33 23 -38 19 -17 -6 28 -3 30 51 30 50 0 52 -2 74 -78 15 -53 25 -73 35 -69
10 4 29 -31 65 -118 75 -177 75 -178 83 -178 10 0 -8 48 -84 220 -63 143 -83
210 -58 195 13 -8 13 -4 -5 38 -14 33 -12 47 7 47 4 0 8 -6 8 -13 0 -6 16 -34
35 -62 20 -27 46 -73 60 -102 13 -29 26 -53 29 -53 3 0 -4 21 -15 46 -12 25
-19 48 -17 50 3 2 19 -16 37 -41 46 -64 49 -56 4 13 -20 31 -52 85 -70 119
-22 40 -39 60 -47 57 -20 -8 -29 13 -21 44 6 25 7 26 17 7 6 -11 48 -76 94
-145z m344 140 c-8 -5 -40 -9 -70 -9 -68 1 -40 15 34 17 37 2 47 0 36 -8z
m162 -17 c18 -15 43 -38 54 -52 14 -15 27 -21 34 -16 10 6 12 -3 7 -45 -7 -60
-12 -69 -29 -52 -19 19 -33 14 -15 -6 21 -23 21 -40 2 -83 l-15 -34 3 50 c2
33 -2 58 -12 75 -10 15 -11 21 -3 17 27 -17 9 7 -43 57 -30 30 -64 56 -75 59
-25 7 -18 -7 35 -65 72 -78 71 -84 -3 -13 -39 39 -81 74 -92 79 -26 12 -25 20
3 33 20 9 33 5 85 -28 34 -21 64 -39 67 -39 7 0 -16 40 -39 68 -27 31 -4 28
36 -5z m254 -31 c-11 -10 -14 3 -8 33 l7 30 3 -28 c2 -16 1 -31 -2 -35z
m-2219 -39 c-11 -11 -21 -10 -60 3 -26 9 -49 20 -52 25 -3 4 9 2 27 -5 56 -23
78 -28 78 -17 0 5 -12 12 -27 16 -16 3 -37 13 -48 21 -20 15 -20 15 0 30 17
13 22 11 57 -23 31 -31 36 -40 25 -50z m978 50 c6 -38 -10 -54 -19 -19 -5 22
2 62 10 54 1 -2 5 -18 9 -35z m1146 10 c27 -14 49 -32 49 -38 0 -7 11 -24 24
-38 13 -14 22 -28 19 -31 -9 -9 25 -55 100 -138 38 -42 87 -103 108 -135 22
-32 39 -54 39 -50 0 15 -86 141 -121 177 -54 56 -109 123 -109 132 0 20 42 5
67 -24 16 -18 39 -44 53 -58 46 -45 97 -124 105 -160 4 -19 18 -57 30 -85 13
-27 47 -113 75 -190 28 -77 55 -149 59 -160 5 -12 2 -33 -5 -50 -15 -33 -17
-30 -18 35 -1 30 -22 96 -66 202 -36 87 -68 158 -72 158 -4 0 -3 -12 3 -27 9
-24 8 -26 -4 -13 -35 38 -87 119 -73 114 9 -3 16 -11 16 -17 0 -6 3 -7 6 -4 4
4 -6 23 -22 44 -59 78 -264 322 -296 352 -40 38 -31 39 33 4z m-331 -23 c32
-32 39 -46 18 -34 -22 12 -58 47 -58 56 0 14 10 9 40 -22z m-590 0 c7 -13 7
-20 1 -20 -6 0 -15 9 -21 20 -7 13 -7 20 -1 20 6 0 15 -9 21 -20z m373 7 c3
-8 1 -20 -5 -28 -8 -11 -9 -11 -5 2 3 9 0 22 -6 28 -8 8 -8 11 0 11 6 0 13 -6
16 -13z m-1753 -15 c0 -5 -16 -16 -36 -25 -39 -19 -114 -85 -114 -100 0 -5 20
9 45 32 24 22 52 41 61 41 9 0 27 9 41 20 32 25 45 25 74 1 l24 -19 -27 5
c-20 4 -28 0 -33 -16 -3 -12 -10 -21 -15 -21 -4 0 -11 -7 -14 -16 -3 -8 -2
-12 4 -9 16 10 11 -1 -7 -16 -11 -10 -14 -10 -9 -1 13 22 -10 13 -36 -15 -29
-30 -51 -77 -40 -87 5 -6 142 132 142 144 0 2 -5 -1 -12 -8 -7 -7 -16 -12 -21
-12 -13 0 2 19 25 31 15 8 19 8 14 0 -9 -15 7 -14 22 1 6 6 15 8 19 4 5 -4
-10 -22 -32 -39 -59 -47 -143 -138 -156 -169 -16 -39 -27 -27 -24 27 3 48 21
84 64 125 14 14 35 36 46 49 l20 25 -32 -23 c-18 -12 -35 -26 -38 -31 -4 -6
-15 -10 -25 -10 -30 0 -76 -92 -82 -162 -3 -40 -16 -34 -28 13 -6 23 -13 39
-16 37 -6 -7 26 -108 48 -153 l21 -40 -21 19 c-43 38 -72 160 -62 258 1 9 20
33 43 55 61 55 72 63 98 68 12 3 27 9 33 15 12 12 36 13 36 2z m771 -15 c-10
-9 -11 -8 -5 6 3 10 9 15 12 12 3 -3 0 -11 -7 -18z m100 -27 c-3 -19 -12 -36
-18 -37 -17 -4 -16 -1 4 42 20 42 23 41 14 -5z m99 25 c0 -4 -70 -45 -76 -45
-7 0 17 44 29 51 8 6 47 1 47 -6z m-547 -2 c-7 -2 -21 -2 -30 0 -10 3 -4 5 12
5 17 0 24 -2 18 -5z m177 -3 c8 -5 12 -12 9 -15 -8 -8 -39 5 -39 16 0 11 11
11 30 -1z m221 -62 c-27 -60 -66 -180 -120 -377 l-20 -73 20 5 c22 6 120 -35
120 -49 0 -5 -28 -13 -61 -19 -73 -12 -76 -31 -5 -29 28 1 67 2 88 3 21 1 36
5 33 10 -3 4 -18 7 -33 5 -27 -4 -28 -3 -3 5 16 5 30 4 40 -4 9 -8 23 -10 35
-5 11 5 28 9 38 9 18 1 18 -1 -2 -31 -65 -99 -113 -236 -86 -244 10 -4 130
215 122 223 -5 4 -28 -34 -72 -120 -17 -32 -31 -50 -33 -42 -5 20 53 143 80
173 22 22 45 31 33 11 -4 -6 3 -21 15 -35 22 -23 23 -26 12 -106 -7 -46 -11
-101 -11 -123 1 -31 3 -26 10 25 15 120 19 143 23 148 3 2 24 -14 47 -37 39
-38 59 -50 59 -34 0 3 -17 29 -39 57 -55 74 -56 71 7 68 32 -2 68 1 82 7 20 8
13 10 -41 9 -69 0 -110 14 -143 51 l-19 21 35 -14 c34 -15 63 -22 123 -32 17
-3 36 -7 44 -10 11 -4 12 -2 1 11 -7 8 -27 15 -44 16 -17 1 -42 4 -56 8 -25 7
-25 7 11 24 19 10 51 31 70 47 48 41 17 39 -65 -5 -74 -39 -86 -42 -86 -19 0
17 146 169 169 176 12 3 11 21 -5 108 -10 58 -20 95 -22 82 -2 -12 -7 -20 -11
-18 -4 3 -5 -8 -3 -24 2 -17 8 -28 12 -25 9 6 24 -64 16 -73 -3 -3 -6 2 -6 11
0 9 -4 18 -8 21 -5 3 -7 -7 -5 -22 4 -22 -4 -34 -41 -64 -24 -21 -59 -58 -77
-83 -18 -25 -34 -43 -37 -40 -3 2 0 30 6 62 7 32 14 75 18 97 3 21 7 46 8 55
2 9 0 27 -5 41 -6 22 -7 23 -8 4 -1 -12 -8 -39 -17 -59 -8 -21 -12 -41 -7 -44
11 -7 -5 -111 -17 -111 -5 0 -7 10 -4 23 2 12 6 47 9 77 5 63 33 201 42 209 3
3 3 -6 1 -22 -3 -15 -1 -30 3 -33 5 -3 9 5 10 18 2 53 19 94 19 45 0 -15 4
-27 9 -27 5 0 7 24 4 53 -10 92 -9 102 7 102 11 0 17 -15 21 -50 3 -27 7 -42
7 -32 2 20 12 21 45 6 20 -9 28 -25 42 -85 10 -41 19 -73 22 -71 2 3 -1 26 -8
53 -6 27 -13 60 -15 74 -3 14 -10 42 -15 64 -6 21 -8 40 -6 42 7 7 50 -138 81
-270 4 -15 9 -26 12 -23 3 2 -4 42 -16 87 -25 97 -21 119 5 28 24 -85 28 -115
17 -122 -11 -6 7 -79 22 -93 5 -4 6 -3 2 5 -4 6 -3 12 2 12 16 0 26 -51 37
-200 3 -41 7 -86 9 -100 2 -14 7 -47 11 -73 4 -27 8 -58 10 -69 3 -11 7 -46
10 -77 4 -31 8 -63 10 -71 2 -8 7 -62 10 -120 4 -58 8 -121 11 -140 15 -128
21 -333 12 -417 -4 -37 -3 -53 5 -53 8 0 8 -3 2 -8 -6 -4 -11 -16 -11 -27 0
-11 5 -23 11 -27 7 -5 7 -8 -1 -8 -7 0 -11 -27 -11 -72 0 -118 -13 -292 -22
-297 -4 -4 -11 -27 -15 -52 -4 -25 -8 -57 -11 -70 -14 -92 -28 -213 -30 -264
-2 -82 -25 -175 -42 -175 -9 0 -12 7 -9 18 12 45 17 87 7 71 -5 -8 -12 -28
-15 -43 -11 -58 -28 -98 -38 -88 -8 8 -5 32 6 78 9 36 15 68 13 70 -4 4 -33
-85 -41 -126 -3 -14 -12 -50 -21 -80 -9 -30 -19 -65 -22 -78 -10 -40 -21 -33
-17 11 5 48 32 165 44 187 6 11 -9 26 -63 62 -77 51 -102 56 -46 8 39 -33 31
-40 -11 -10 -31 22 -46 60 -24 60 7 0 36 -9 64 -20 52 -20 105 -26 114 -12 2
4 -7 9 -21 10 -40 3 -103 22 -103 30 0 4 20 8 45 9 68 2 145 30 145 53 0 4
-28 2 -63 -4 -35 -7 -79 -11 -98 -10 -19 0 -46 2 -60 3 l-27 1 18 58 c10 31
21 77 25 101 6 38 5 43 -9 38 -9 -4 -16 -1 -17 6 -3 34 4 104 11 116 4 9 -4
42 -21 84 -16 38 -29 71 -29 73 0 2 19 -3 41 -11 43 -15 130 -20 142 -8 4 4
-7 13 -25 21 -18 8 -27 16 -20 19 23 9 12 22 -29 33 -26 7 -44 8 -48 2 -8 -13
-51 4 -51 20 0 7 25 49 55 92 30 44 55 83 55 88 0 13 -52 -17 -77 -44 -12 -13
-36 -48 -52 -78 -26 -47 -31 -51 -32 -30 -3 52 3 103 20 172 11 42 16 83 12
97 -10 36 -4 123 10 131 8 5 5 27 -9 74 -11 36 -19 66 -17 66 1 0 24 -9 50
-21 49 -21 122 -28 163 -15 22 8 23 9 5 21 -10 7 -58 25 -107 41 -89 28 -89
28 -60 41 16 6 36 12 45 13 21 0 126 69 162 106 27 27 63 84 53 84 -2 0 -24
-16 -48 -36 -93 -78 -223 -143 -244 -122 -3 4 12 30 33 60 59 80 85 126 81
143 -2 9 -32 -22 -78 -80 -41 -52 -79 -95 -83 -95 -11 0 5 147 23 211 17 59
14 70 -15 57 -17 -8 -31 -27 -42 -59 -10 -27 -20 -44 -23 -38 -4 5 -6 -31 -4
-81 1 -49 -2 -88 -6 -85 -10 6 -60 131 -60 150 0 7 -5 17 -11 21 -8 4 -9 -5
-5 -32 10 -71 16 -92 36 -138 30 -71 2 -57 -65 32 -22 29 -41 48 -43 43 -6
-18 51 -113 80 -134 59 -43 43 -48 -72 -22 -48 11 -115 14 -128 6 -9 -5 5 -15
45 -29 83 -31 142 -42 191 -36 34 4 42 2 36 -8 -5 -7 -32 -49 -61 -92 -48 -72
-67 -126 -44 -126 5 0 27 31 50 70 48 81 64 94 61 54 -5 -71 1 -268 8 -258 4
7 5 76 2 154 -5 134 -1 174 16 157 4 -4 8 -63 8 -132 1 -91 5 -127 15 -137 11
-11 12 -10 7 8 -10 33 -15 204 -6 204 21 0 33 -36 34 -108 1 -60 -4 -87 -21
-124 -28 -60 -42 -139 -37 -200 3 -37 0 -48 -11 -48 -25 0 -83 67 -103 121
-24 64 -37 50 -17 -19 15 -51 60 -101 111 -124 13 -6 21 -15 18 -20 -3 -4 -10
-5 -16 -2 -7 5 -9 2 -6 -8 4 -8 0 -15 -7 -15 -8 0 -13 5 -12 10 1 5 -24 15
-56 22 -31 6 -54 8 -49 3 5 -5 28 -12 53 -17 33 -7 37 -9 16 -10 -33 -1 -129
38 -122 49 3 4 -2 10 -10 14 -8 3 -15 15 -15 27 0 12 -3 19 -7 16 -9 -10 -11
-60 -3 -72 3 -5 7 -23 8 -38 2 -35 24 -77 30 -59 2 7 -1 26 -7 42 -12 35 -11
35 58 14 29 -8 77 -15 107 -15 30 0 54 -2 54 -5 0 -2 -30 -49 -66 -104 -62
-95 -78 -133 -44 -107 8 7 38 43 65 80 28 38 59 80 70 93 l20 25 0 -133 c0
-133 7 -188 24 -188 6 0 6 13 0 33 -11 35 -22 237 -13 237 31 0 56 -234 32
-301 -29 -82 -178 -199 -253 -199 -22 0 -67 180 -110 440 -3 19 -8 46 -10 60
-3 14 -7 39 -9 57 -3 18 -8 38 -13 45 -4 7 -8 60 -9 118 -1 198 -4 241 -14
235 -5 -3 -7 -20 -5 -38 l5 -32 -10 30 c-10 28 -15 453 -6 500 2 11 7 70 10
130 7 103 12 165 21 225 2 14 7 45 10 70 3 25 8 58 11 73 3 16 1 26 -5 23 -9
-6 -24 -86 -36 -196 -4 -30 -8 -66 -10 -80 -7 -50 -18 -166 -18 -197 0 -18 -4
-30 -9 -27 -5 4 -7 12 -4 20 3 7 2 16 -3 18 -4 3 -7 -12 -7 -33 1 -21 5 -37
11 -35 6 3 8 -17 5 -53 -10 -124 2 -438 21 -568 6 -38 10 -99 10 -135 0 -36 3
-82 8 -102 5 -21 5 -38 1 -38 -7 0 -20 87 -34 225 -13 127 -19 172 -23 190 -3
11 -6 155 -8 320 -2 165 -1 288 1 273 3 -16 9 -28 14 -28 5 0 7 8 6 18 -15 84
-16 96 -7 82 9 -13 11 -13 11 3 0 9 -6 17 -12 17 -10 0 -9 3 1 9 9 6 12 20 9
40 -3 18 0 31 6 32 6 0 5 3 -1 6 -7 2 -13 12 -13 21 0 13 2 14 9 4 5 -8 11 12
15 55 3 37 8 84 11 103 2 19 7 58 10 85 11 84 54 268 84 358 29 86 121 290
128 284 2 -2 -10 -33 -26 -69z m1794 62 c-9 -15 -75 -41 -113 -44 -44 -3 -27
12 40 35 60 21 82 24 73 9z m-1643 -31 c-18 -12 -35 -19 -38 -16 -3 3 7 12 23
21 42 23 53 19 15 -5z m26 -81 c-15 -60 -17 -87 -9 -100 5 -9 8 -27 5 -40 -3
-13 -10 -76 -17 -142 l-12 -118 -85 6 c-102 8 -160 22 -160 39 0 7 4 28 9 47
5 19 12 53 15 76 6 48 64 235 77 249 12 13 12 -17 -1 -51 -6 -15 -9 -29 -6
-31 2 -2 10 15 18 39 12 36 19 43 41 44 34 1 34 -5 -3 -118 -16 -50 -30 -93
-30 -96 0 -2 11 6 24 19 28 29 48 87 51 147 1 25 9 50 19 60 16 16 17 15 11
-17 -3 -19 -7 -37 -9 -40 -2 -3 -7 -28 -10 -55 -4 -27 -9 -53 -12 -58 -3 -4
-1 -8 4 -8 5 0 12 12 15 28 4 15 13 60 22 101 14 65 33 99 56 101 3 0 -3 -37
-13 -82z m1294 -32 c-26 -24 -49 -43 -51 -41 -2 2 2 18 8 36 6 18 11 44 11 60
0 15 3 35 7 45 5 15 11 12 39 -19 l34 -36 -48 -45z m-1230 79 c3 -14 1 -25 -3
-25 -5 0 -9 11 -9 25 0 14 2 25 4 25 2 0 6 -11 8 -25z m-612 -46 c-6 -18 -10
-47 -10 -64 0 -16 -11 -52 -25 -80 l-24 -50 4 40 c4 30 3 35 -4 19 -32 -73 -9
-116 26 -47 18 37 43 56 43 31 -1 -37 -114 -210 -122 -186 -2 7 -6 51 -7 98
-3 96 -7 110 -27 81 -16 -23 -31 -141 -18 -141 5 0 9 18 10 40 0 22 5 45 10
50 6 6 10 -22 12 -76 1 -54 -2 -83 -8 -79 -6 3 -10 17 -10 31 0 13 -4 24 -9
24 -5 0 -8 -8 -7 -17 1 -14 -5 -17 -29 -15 -16 2 -34 7 -38 11 -10 10 61 176
103 240 26 41 58 72 119 118 21 15 22 13 11 -28z m1996 -84 c16 -27 16 -29 1
-16 -12 9 -21 10 -29 3 -7 -5 -26 -8 -43 -7 -16 2 -43 3 -58 4 l-29 1 33 41
33 42 24 -29 c25 -31 26 -30 4 36 -6 19 41 -36 64 -75z m-532 -65 c102 -154
157 -289 217 -534 21 -83 0 -40 -40 84 -69 211 -104 292 -195 442 -83 138 -71
142 18 8z m234 95 c-3 -3 -9 2 -12 12 -6 14 -5 15 5 6 7 -7 10 -15 7 -18z
m-2380 -39 c1 -19 9 -55 16 -80 10 -32 11 -44 3 -39 -34 19 -97 67 -97 74 0
11 64 87 70 83 3 -1 7 -18 8 -38z m3042 -18 c-21 -40 -60 -87 -81 -99 -20 -10
-20 -10 -4 21 18 35 86 113 92 106 3 -2 -1 -15 -7 -28z m-2928 -85 c2 -28 0
-49 -4 -47 -13 8 -20 65 -12 107 9 45 11 38 16 -60z m2568 50 l25 -25 -72 7
c-40 4 -81 8 -90 10 -10 2 -31 4 -46 4 -36 1 -26 18 16 29 58 15 139 3 167
-25z m-2686 -72 c31 -34 3 -24 -40 14 -36 33 -37 35 -9 21 17 -7 39 -23 49
-35z m2681 33 c37 -6 55 -17 82 -46 34 -37 123 -170 118 -178 -2 -3 -23 -13
-47 -20 -24 -8 -58 -23 -77 -34 l-33 -19 7 24 c43 131 36 153 -17 51 -19 -38
-40 -66 -47 -64 -8 2 -11 -3 -8 -12 3 -8 0 -20 -8 -26 -11 -9 -19 -1 -40 42
-14 29 -19 45 -11 34 8 -10 20 -15 27 -11 9 6 10 0 5 -21 l-8 -29 26 24 c17
16 24 32 21 50 -4 38 -4 38 -19 18 -12 -16 -19 -10 -70 58 -31 41 -56 76 -56
78 0 3 25 -3 55 -11 73 -20 93 -5 38 29 l-38 24 40 6 c37 6 35 6 -20 8 -61 3
-79 5 -124 16 -20 5 -22 8 -10 16 13 9 150 5 214 -7z m-2726 -36 c31 -23 59
-45 64 -48 4 -4 -18 -6 -50 -5 -32 1 -80 -4 -106 -12 -27 -8 -52 -12 -55 -8
-11 11 14 60 37 72 14 6 28 19 33 27 12 22 14 21 77 -26z m488 -36 c-12 -34
-28 -62 -35 -62 -8 0 -12 3 -10 8 23 49 63 121 65 118 2 -1 -7 -30 -20 -64z
m2658 39 c-11 -18 -60 -40 -99 -44 -68 -8 -38 24 44 46 59 15 66 15 55 -2z
m-1665 -8 c0 -5 -19 -19 -43 -32 -44 -25 -42 -19 7 17 31 24 36 26 36 15z
m1047 -27 c10 -19 30 -56 44 -83 28 -52 48 -115 30 -98 -9 9 -111 203 -111
211 0 2 4 4 9 4 5 0 18 -15 28 -34z m90 10 l28 -15 -25 0 c-14 0 -36 8 -50 19
-24 18 -24 19 -3 15 12 -2 34 -10 50 -19z m348 -4 c2 -11 11 -34 20 -52 9 -18
14 -34 11 -37 -6 -7 -46 81 -46 103 0 22 9 13 15 -14z m-2028 -24 c-3 -8 -6
-5 -6 6 -1 11 2 17 5 13 3 -3 4 -12 1 -19z m702 -57 c1 -35 -5 -22 -12 24 -5
28 -4 34 3 20 5 -11 9 -31 9 -44z m1451 37 c0 -4 -7 -8 -15 -8 -8 0 -15 4 -15
8 0 5 7 9 15 9 8 0 15 -4 15 -9z m-3107 -5 c-7 -2 -21 -2 -30 0 -10 3 -4 5 12
5 17 0 24 -2 18 -5z m-6 -46 c-59 -26 -65 -31 -50 -42 16 -12 15 -16 -5 -70
-12 -32 -20 -60 -18 -62 4 -5 38 66 51 106 3 12 13 21 21 21 20 0 19 -4 -21
-77 -19 -35 -30 -61 -24 -57 7 4 8 -7 4 -33 -5 -34 -4 -36 6 -13 6 14 29 62
50 108 21 46 35 81 31 78 -4 -2 -18 1 -31 8 l-23 13 30 12 c32 14 102 31 102
26 0 -15 -15 -35 -26 -35 -27 0 -117 -187 -133 -275 l-7 -40 -28 43 c-19 27
-31 60 -34 92 -2 28 -8 50 -13 50 -13 0 -22 -68 -16 -127 5 -51 5 -54 -11 -40
-29 26 -85 26 -80 1 3 -17 125 -72 151 -68 9 1 17 -2 17 -6 0 -10 -18 -16 -77
-25 -43 -7 -123 -40 -123 -52 0 -3 19 -2 43 2 23 4 56 9 72 11 17 3 36 7 43 9
27 9 9 -12 -39 -44 -66 -45 -112 -100 -98 -118 13 -15 34 -6 92 40 21 16 40
28 42 26 2 -3 -10 -35 -26 -72 -25 -57 -29 -74 -23 -118 5 -35 10 -46 16 -37
6 9 8 4 6 -16 -5 -48 -24 -40 -48 19 -22 53 -40 71 -40 40 0 -9 7 -29 15 -45
9 -17 20 -41 25 -55 l10 -26 -34 26 c-37 28 -56 32 -56 10 0 -8 20 -28 44 -45
58 -39 62 -47 22 -42 -18 2 -50 -1 -71 -7 -48 -13 -53 -7 -47 59 3 33 0 50 -7
50 -12 0 -4 103 8 107 3 2 5 20 5 40 -3 80 17 191 47 271 6 14 6 21 0 17 -5
-3 -17 -29 -25 -58 -23 -77 -34 -87 -29 -25 2 29 15 78 29 109 13 31 27 72 30
90 7 40 65 191 71 186 2 -2 -1 -16 -7 -31 -5 -15 -10 -33 -9 -39 1 -17 48 85
48 106 2 46 14 52 117 53 l97 1 -66 -30z m949 15 c-3 -5 -7 -19 -9 -33 -3 -13
-14 -69 -25 -124 -37 -177 -42 -214 -61 -445 -14 -171 -5 -584 15 -700 6 -37
32 -208 39 -260 3 -25 8 -62 11 -83 16 -115 68 -375 93 -462 33 -116 45 -162
38 -155 -16 15 -78 237 -101 355 -3 17 -15 77 -26 135 -11 58 -25 137 -31 175
-6 39 -16 73 -21 76 -6 4 -12 31 -14 60 -2 30 -7 70 -10 89 -10 54 -13 794 -4
885 10 97 18 156 32 215 5 25 12 56 14 70 10 51 44 192 50 201 3 5 7 9 10 9 3
0 3 -4 0 -8z m-474 -24 c-9 -9 -15 -9 -24 0 -9 9 -7 12 12 12 19 0 21 -3 12
-12z m106 -30 c44 -42 17 -51 -48 -18 -22 11 -40 24 -40 29 0 29 52 22 88 -11z
m193 -24 c18 -11 -8 -21 -44 -19 -18 2 -42 3 -54 4 -15 1 -21 6 -17 15 4 11
19 13 55 11 27 -2 54 -7 60 -11z m-228 -25 c5 -3 -11 -14 -34 -23 -23 -9 -44
-15 -47 -12 -2 3 1 19 8 35 11 27 14 29 38 18 15 -6 31 -14 35 -18z m720 2
c16 -16 -70 -13 -113 5 -35 14 -34 14 33 10 38 -2 74 -9 80 -15z m-637 -112
c-28 -106 -54 -181 -55 -160 -1 17 47 197 62 233 21 49 18 22 -7 -73z m2263
73 c-52 -32 -100 -54 -106 -49 -4 5 82 61 107 70 40 14 39 4 -1 -21z m-2358
-8 c-18 -8 -36 -13 -39 -10 -6 7 37 25 58 25 8 -1 0 -7 -19 -15z m1198 -169
c11 -66 23 -151 26 -190 4 -38 8 -77 10 -85 2 -8 7 -51 11 -95 3 -44 8 -88 10
-98 1 -10 -1 -15 -7 -12 -9 6 -13 -14 -9 -50 1 -13 -2 -17 -8 -10 -9 9 -15
125 -10 190 1 18 -4 63 -16 160 -2 17 -7 54 -11 84 -4 30 -8 61 -10 70 -2 9
-6 44 -10 76 -4 33 -9 69 -11 79 -2 12 0 16 5 10 5 -5 18 -63 30 -129z m-2038
11 c-9 -19 -31 30 -31 68 l1 41 17 -50 c10 -27 16 -54 13 -59z m3349 69 c0 -5
-5 -3 -10 5 -5 8 -10 20 -10 25 0 6 5 3 10 -5 5 -8 10 -19 10 -25z m87 -92
c-5 -4 -47 109 -46 123 0 5 11 -20 25 -55 14 -35 23 -65 21 -68z m120 76 c-8
-19 -32 -54 -53 -78 l-38 -44 -13 49 c-7 27 -13 55 -13 62 0 24 18 3 25 -28 4
-17 10 -30 15 -30 5 0 25 25 46 55 40 61 54 67 31 14z m-3324 -78 c26 -47 26
-49 6 -44 -20 6 -31 26 -50 86 -12 42 11 20 44 -42z m77 22 c-11 -17 -11 -17
-6 0 3 10 7 26 7 35 1 15 2 15 6 0 2 -10 -1 -25 -7 -35z m2950 -79 c0 -7 -49
0 -75 11 -30 12 -85 55 -85 66 0 5 36 -9 80 -31 44 -22 80 -43 80 -46z m-3114
51 c15 -11 16 -14 3 -15 -8 0 -24 7 -35 15 -15 11 -16 14 -3 15 8 0 24 -7 35
-15z m3519 -5 c8 -14 -55 -26 -100 -21 -14 2 -8 7 18 15 50 15 75 17 82 6z
m-227 -105 c2 -41 8 -75 12 -75 4 0 6 14 5 31 -3 29 11 97 15 74 1 -5 3 -19 5
-30 2 -11 5 -78 8 -150 l4 -130 -15 98 c-9 53 -20 97 -25 97 -5 0 -7 -7 -4
-15 4 -8 9 -56 13 -107 4 -56 13 -105 23 -123 9 -16 19 -41 23 -55 6 -21 3 64
-7 236 0 17 2 39 5 49 6 18 37 -111 46 -195 9 -74 15 -100 24 -100 16 0 12
-15 -14 -53 -21 -30 -22 -36 -9 -42 14 -5 12 -9 -8 -31 -21 -23 -24 -23 -30
-7 -4 10 -8 12 -8 5 -1 -7 5 -23 13 -35 20 -30 14 -326 -9 -447 -3 -14 -7 -41
-10 -60 -3 -19 -14 -47 -25 -62 -11 -14 -32 -70 -49 -125 -49 -164 -124 -327
-155 -339 -8 -3 -37 -35 -67 -72 -29 -37 -45 -61 -36 -53 9 7 17 10 17 7 0
-17 -41 -84 -67 -107 -35 -33 -197 -139 -212 -139 -6 0 -11 -4 -11 -8 0 -5
-11 -14 -25 -20 -31 -14 -35 -15 -35 -2 0 5 42 34 94 64 51 31 99 63 106 71 8
9 -22 -5 -66 -32 -92 -56 -134 -76 -134 -64 0 5 13 14 29 19 30 10 137 96 206
166 l40 40 -45 -35 c-77 -60 -78 -54 -2 21 59 59 75 70 86 61 12 -10 23 -2 59
44 54 69 117 191 121 237 5 47 17 91 31 108 6 8 26 78 43 155 33 144 41 201
17 130 -7 -22 -13 -37 -14 -34 -2 10 39 302 44 320 14 44 27 337 15 344 -8 5
-15 46 -26 170 -3 38 -11 73 -17 77 -6 3 -12 14 -13 22 -1 9 2 14 7 10 5 -3 6
-10 3 -16 -4 -6 -2 -8 4 -4 6 3 9 16 7 29 -2 12 -6 58 -9 102 -5 63 -4 77 6
67 7 -7 14 -46 16 -87z m-2444 56 c-9 -16 -37 -51 -61 -77 -41 -45 -43 -46
-28 -15 15 30 91 121 102 121 2 0 -4 -13 -13 -29z m2078 -20 c3 8 3 3 1 -9 -3
-17 0 -21 8 -16 8 4 9 3 5 -4 -12 -20 -24 -13 -35 19 -15 42 -13 50 3 20 10
-18 15 -21 18 -10z m-307 -121 c3 -36 8 -90 10 -120 4 -49 3 -51 -5 -18 -5 20
-11 51 -14 70 -17 132 -18 152 -8 143 5 -5 13 -39 17 -75z m-2541 22 c-58 -52
-134 -105 -134 -93 0 17 50 69 97 100 65 44 88 39 37 -7z m437 -5 c-10 -9 -11
-8 -5 6 3 10 9 15 12 12 3 -3 0 -11 -7 -18z m414 -7 c23 -9 21 -10 -66 -34
-31 -9 -75 -24 -98 -35 -41 -18 -44 -18 -133 1 -99 20 -110 24 -88 38 20 12
76 2 123 -21 l38 -20 57 33 c83 48 122 57 167 38z m-845 -55 c-10 -42 -23
-161 -24 -207 0 -16 -3 -28 -7 -28 -8 0 -4 125 6 168 3 15 7 37 10 50 6 35 16
64 20 60 2 -2 0 -21 -5 -43z m3031 -29 c-39 -60 -57 -76 -82 -76 -6 0 -2 12 9
28 35 48 104 123 110 118 2 -3 -14 -34 -37 -70z m-1676 -67 c-9 -62 -14 -125
-11 -140 6 -31 -9 -48 -27 -29 -9 9 -8 11 3 8 11 -2 14 4 10 27 -10 63 -3 180
14 219 9 22 19 37 22 33 3 -3 -2 -56 -11 -118z m1523 65 c-3 -14 -5 -12 -10 9
-3 19 -2 25 4 19 6 -6 8 -18 6 -28z m47 -63 c-16 -15 -17 -13 -10 34 10 68 19
79 23 26 2 -31 -2 -49 -13 -60z m-2539 27 c-3 -35 -8 -72 -10 -83 -3 -11 -5
-30 -5 -42 -1 -13 -6 -23 -12 -23 -5 0 -8 3 -6 8 4 6 18 143 20 190 0 6 4 12
10 12 5 0 6 -27 3 -62z m273 -23 l10 -40 -19 24 c-21 24 -25 43 -13 54 9 9 9
8 22 -38z m2228 3 c-3 -7 -5 -2 -5 12 0 14 2 19 5 13 2 -7 2 -19 0 -25z
m-1298 -116 c-13 -10 -37 -26 -54 -35 -33 -19 -184 -62 -169 -48 5 4 38 15 74
25 36 9 85 30 110 46 50 32 76 40 39 12z m-1611 -67 c-3 -3 -9 2 -12 12 -6 14
-5 15 5 6 7 -7 10 -15 7 -18z m1897 -85 c4 -52 10 -99 13 -104 3 -5 0 -6 -6
-2 -5 3 -13 0 -15 -6 -3 -7 -6 27 -6 75 -1 52 -5 86 -10 82 -5 -3 -12 -1 -16
5 -3 5 1 10 9 10 10 0 16 9 16 22 0 53 9 4 15 -82z m1514 58 c-8 -14 -14 -18
-17 -10 -4 13 17 46 25 38 3 -2 -1 -15 -8 -28z m-3640 -115 c-1 -96 -4 -127
-9 -103 -13 56 -8 240 6 240 2 0 4 -62 3 -137z m2800 90 l-2 -48 -6 40 c-7 38
-5 55 5 55 2 0 3 -21 3 -47z m-1170 -63 c19 -60 19 -61 0 -45 -10 10 -21 26
-24 36 -8 24 -23 24 -49 2 -20 -17 -20 -17 -6 2 8 11 23 30 33 42 18 20 18 22
1 31 -10 5 -14 14 -9 21 11 18 32 -16 54 -89z m-195 74 c20 -3 39 -10 41 -15
3 -4 -5 -6 -17 -4 -61 12 -78 17 -85 27 -4 7 0 9 10 5 8 -3 32 -9 51 -13z
m311 -39 c80 -19 112 -34 80 -36 -52 -3 -93 5 -137 27 -48 24 -63 40 -30 30 9
-2 49 -12 87 -21z m-1600 -4 c13 -1 16 -4 8 -12 -5 -5 -32 -9 -59 -7 -45 3
-47 4 -24 14 14 6 32 10 40 8 8 -1 24 -3 35 -3z m3524 -8 c-18 -23 -31 -33
-44 -33 -5 1 3 12 18 25 33 29 45 33 26 8z m-3531 -37 c-2 -1 -30 -21 -64 -43
l-61 -41 0 44 -1 43 57 3 c50 3 78 0 69 -6z m59 -36 c1 -11 -3 -20 -8 -20 -6
0 -7 5 -4 10 3 6 2 10 -3 10 -8 0 -57 -50 -92 -94 -14 -18 -13 -18 8 -12 21 7
22 5 22 -63 0 -38 4 -73 10 -76 6 -4 8 25 6 80 -2 47 1 88 5 91 10 6 12 -16 9
-82 -1 -24 5 -47 12 -55 8 -8 13 -30 13 -49 -1 -19 2 -43 7 -52 16 -32 -28
-21 -55 13 -14 18 -27 27 -31 21 -3 -6 10 -31 29 -56 19 -25 32 -46 28 -46 -3
0 -30 8 -60 17 -51 16 -53 18 -53 52 0 20 -4 52 -10 71 -5 19 -11 63 -13 98
-5 61 -4 64 27 87 28 21 132 75 146 75 3 0 6 -9 7 -20z m825 -37 c-25 -35 -51
-58 -77 -67 -12 -4 1 14 30 43 55 55 78 67 47 24z m-795 -80 c-2 -16 -4 -3 -4
27 0 30 2 43 4 28 2 -16 2 -40 0 -55z m3426 10 c9 -24 15 -43 12 -43 -10 0
-55 80 -55 97 0 27 24 -3 43 -54z m-3445 20 c0 -28 -2 -33 -8 -18 -6 17 -3 55
5 55 2 0 3 -17 3 -37z m-29 -40 c-1 -47 -3 -59 -8 -38 -6 29 -3 105 5 105 2 0
3 -30 3 -67z m1939 -113 c-3 -220 -15 -241 -16 -30 -1 132 2 190 8 180 6 -8 9
-74 8 -150z m-1270 96 c47 2 51 -4 22 -31 -16 -14 -30 -17 -74 -12 -65 6 -126
34 -105 48 8 4 37 5 64 1 28 -4 69 -6 93 -6z m-635 -96 c4 -34 11 -70 17 -80
8 -16 7 -20 -4 -20 -25 0 -37 37 -34 100 1 33 6 60 9 60 3 0 9 -27 12 -60z
m3208 18 c-3 -21 -6 -26 -9 -15 -3 17 3 47 11 47 2 0 1 -15 -2 -32z m-1785
-53 c-3 -8 -8 -34 -11 -58 -3 -23 -8 -51 -10 -62 -2 -11 -4 -31 -6 -45 -1 -20
-3 -18 -8 10 -10 53 14 170 35 170 4 0 4 -7 0 -15z m1587 -16 c-19 -33 -59
-69 -76 -69 -6 0 11 23 38 50 27 28 51 50 53 50 2 0 -5 -14 -15 -31z m-3213
-54 c0 -12 -5 -13 -17 -7 -10 5 -25 12 -33 15 -8 3 0 6 18 6 22 1 32 -4 32
-14z m602 -40 c2 -19 0 -35 -4 -35 -4 0 -8 16 -8 35 0 19 2 35 4 35 2 0 6 -16
8 -35z m-377 17 c18 -13 15 -30 -6 -35 -19 -5 -49 15 -49 34 0 11 41 12 55 1z
m1473 -41 c-18 -28 -34 -46 -36 -41 -5 15 50 89 66 90 1 0 -13 -22 -30 -49z
m1558 34 c-11 -8 -33 -15 -50 -15 -36 0 -29 10 16 20 49 12 55 11 34 -5z
m-3171 -5 c3 -6 -1 -7 -9 -4 -18 7 -21 14 -7 14 6 0 13 -4 16 -10z m2671 -82
c-4 -46 -11 -101 -15 -123 -7 -28 -8 -14 -4 50 3 50 7 97 9 105 1 8 3 23 3 33
1 9 4 17 7 17 4 0 3 -37 0 -82z m-2658 56 c21 -3 46 -7 57 -9 11 -2 35 -4 53
-4 43 -1 33 -17 -12 -19 -36 -1 -117 -30 -127 -44 -10 -15 -30 18 -36 58 -5
33 -4 37 11 31 10 -4 34 -10 54 -13z m3075 -7 c37 -16 124 -94 114 -103 -3 -3
-31 9 -62 27 -31 19 -67 40 -81 47 -24 13 -33 42 -14 42 6 0 25 -6 43 -13z
m-2566 -64 c-3 -10 -5 -2 -5 17 0 19 2 27 5 18 2 -10 2 -26 0 -35z m-417 16
c-23 -16 -102 -50 -106 -46 -9 8 37 40 68 47 47 11 55 11 38 -1z m40 -23 c0
-14 -11 -38 -25 -54 -23 -28 -24 -31 -11 -78 8 -27 19 -62 25 -77 15 -38 15
-37 -19 -25 -37 12 -36 11 -65 105 -13 43 -24 71 -24 63 -1 -8 8 -44 19 -78
11 -35 17 -68 14 -74 -3 -5 1 -17 9 -26 17 -19 39 -93 31 -101 -9 -9 -23 21
-54 116 -40 123 -49 168 -39 184 5 8 9 10 9 5 0 -5 7 -3 16 4 11 10 94 54 112
59 1 1 2 -10 2 -23z m419 -56 c6 -36 11 -72 11 -80 -1 -34 -18 16 -25 70 -3
30 -9 64 -12 75 -4 14 -2 17 5 10 6 -5 16 -39 21 -75z m2979 48 c-28 -43 -127
-109 -116 -78 3 8 118 99 127 100 2 0 -3 -10 -11 -22z m-2623 -45 c-3 -16 -10
-32 -15 -37 -5 -5 -4 7 2 27 13 43 23 50 13 10z m2072 -5 c-3 -8 -6 -5 -6 6
-1 11 2 17 5 13 3 -3 4 -12 1 -19z m-1452 3 c3 -5 1 -12 -5 -16 -5 -3 -10 1
-10 9 0 18 6 21 15 7z m99 -1 c7 0 21 -7 32 -15 18 -14 18 -15 -8 -11 -29 5
-68 23 -68 32 0 4 7 3 16 0 9 -3 21 -6 28 -6z m371 -127 c-4 -71 -9 -137 -11
-148 -2 -10 -6 -37 -10 -60 -3 -22 -10 -44 -16 -50 -7 -7 -9 -7 -6 0 3 6 9 41
13 78 3 37 8 78 11 90 2 12 6 63 9 112 2 50 4 93 5 98 0 4 3 7 6 7 3 0 3 -57
-1 -127z m972 85 c-3 -8 -6 -5 -6 6 -1 11 2 17 5 13 3 -3 4 -12 1 -19z m-1444
-3 c-3 -9 -8 -14 -10 -11 -3 3 -2 9 2 15 9 16 15 13 8 -4z m-1373 -135 c-1 -8
-9 10 -20 40 -11 30 -19 66 -19 80 0 14 9 -4 20 -40 10 -36 19 -72 19 -80z
m30 -5 c-1 -22 -28 55 -34 96 -5 38 -3 34 14 -21 11 -36 20 -69 20 -75z m824
120 c-7 -18 -36 -35 -58 -35 -27 0 -18 19 17 34 42 19 47 19 41 1z m2501 5
c20 -1 20 -1 1 -15 -22 -17 -96 -20 -96 -5 0 13 39 29 60 24 8 -1 24 -3 35 -4z
m-2779 -45 c65 -19 104 -21 131 -7 18 10 29 9 57 -5 19 -9 33 -20 30 -25 -3
-4 -19 -1 -35 8 -28 14 -33 14 -70 -4 -46 -23 -99 -16 -156 19 -54 33 -38 38
43 14z m1477 -15 c3 -11 1 -18 -4 -14 -5 3 -9 12 -9 20 0 20 7 17 13 -6z
m-1031 -15 c3 -14 2 -25 -2 -25 -4 0 -10 11 -12 25 -3 14 -2 25 2 25 4 0 10
-11 12 -25z m-267 -120 c21 -95 23 -125 5 -125 -11 0 -41 112 -47 178 -5 42
-3 54 7 50 7 -2 23 -47 35 -103z m1490 86 c-6 -5 -27 -16 -49 -25 -33 -14 -37
-14 -26 -1 7 8 27 19 44 24 42 12 41 12 31 2z m-1168 -228 c20 -84 40 -148 43
-143 9 15 32 -58 25 -80 -8 -24 -8 -24 45 -5 24 8 52 17 64 19 12 2 38 12 59
21 37 15 38 15 28 -3 -5 -10 -17 -24 -25 -32 -9 -7 -16 -17 -16 -22 0 -17 28
11 57 58 26 42 43 55 43 35 0 -15 -91 -111 -100 -106 -9 6 -92 -46 -85 -53 13
-13 81 14 117 46 38 34 40 35 34 12 l-7 -25 20 25 c11 14 21 23 22 20 0 -3 2
-16 5 -30 11 -66 37 -190 50 -239 14 -55 11 -78 -6 -51 -5 8 -19 53 -32 99
-12 46 -23 80 -25 75 -2 -5 5 -42 15 -82 10 -40 16 -74 14 -77 -3 -3 -14 -5
-24 -5 -24 0 -34 26 -18 45 10 12 9 15 -9 15 -19 0 -23 5 -20 28 1 4 6 6 13 4
6 -1 0 6 -13 17 -14 10 -31 17 -38 14 -7 -3 -24 2 -38 11 -29 19 -32 11 -9
-22 8 -12 12 -22 8 -22 -3 0 1 -12 11 -26 9 -14 14 -29 10 -32 -11 -12 -43 36
-60 91 -18 53 -31 75 -40 66 -6 -7 42 -132 73 -187 35 -65 20 -61 -24 5 -36
54 -86 184 -129 338 -9 33 -21 71 -26 85 -13 36 -69 307 -68 328 1 9 5 -1 10
-23 5 -22 25 -109 46 -192z m708 180 c-18 -150 -26 -197 -34 -207 -5 -6 -11
-22 -14 -36 -2 -14 -2 0 0 30 3 30 6 61 8 70 1 8 6 40 10 70 7 57 23 120 31
120 3 0 2 -21 -1 -47z m945 -8 c-7 -9 -15 -13 -18 -10 -3 2 1 11 8 20 7 9 15
13 18 10 3 -2 -1 -11 -8 -20z m-2759 -27 c-27 -10 -26 -10 -36 20 l-7 23 33
-17 c33 -17 33 -17 10 -26z m79 22 c0 -5 -5 -10 -11 -10 -5 0 -7 5 -4 10 3 6
8 10 11 10 2 0 4 -4 4 -10z m374 -138 c50 -110 52 -117 35 -106 -15 9 -75 140
-84 184 -10 50 -3 38 49 -78z m2296 98 c0 -5 -7 -10 -16 -10 -8 0 -12 5 -9 10
3 6 10 10 16 10 5 0 9 -4 9 -10z m101 -6 c45 -14 51 -18 33 -24 -29 -11 -114
8 -114 26 0 18 14 18 81 -2z m-2771 -31 c-18 -21 -47 -52 -64 -70 l-31 -32
-17 29 c-14 25 -15 29 -1 34 9 4 22 1 29 -5 12 -9 13 -9 9 3 -5 11 9 25 47 47
29 17 55 31 57 31 1 0 -12 -17 -29 -37z m1974 6 c-60 -48 -84 -55 -34 -10 25
22 51 41 59 41 8 0 -4 -14 -25 -31z m-2020 12 c3 -5 -3 -11 -15 -14 -16 -4
-18 -3 -8 9 13 16 16 17 23 5z m76 -19 c0 -4 -21 -30 -46 -57 -52 -57 -47 -39
6 23 37 44 40 46 40 34z m2688 -67 c27 -36 68 -142 59 -151 -16 -16 -117 146
-117 187 0 22 28 5 58 -36z m-2663 -19 c-4 -25 -11 -46 -15 -46 -7 0 -5 29 5
80 2 8 4 17 4 19 1 2 4 2 7 -1 3 -4 2 -27 -1 -52z m-31 -56 c4 -47 11 -87 17
-88 9 -3 63 -84 83 -122 19 -37 -108 110 -132 154 -14 26 -28 43 -30 37 -2 -6
4 -21 12 -33 22 -31 20 -46 -3 -17 -45 59 -45 65 0 114 23 25 43 44 44 43 1
-2 5 -41 9 -88z m2330 53 c-10 -41 -34 -96 -40 -91 -3 4 6 37 31 106 9 23 15
12 9 -15z m-1598 -69 c11 -77 5 -95 -15 -46 -12 28 -16 65 -13 111 3 43 17 11
28 -65z m-642 12 c15 -26 25 -50 23 -52 -4 -5 -57 89 -57 102 0 11 4 5 34 -50z
m1643 32 c-3 -8 -6 -5 -6 6 -1 11 2 17 5 13 3 -3 4 -12 1 -19z m891 -51 c14
-90 8 -106 -56 -134 -30 -13 -56 -22 -59 -20 -4 4 39 49 73 77 17 14 17 15 1
18 -9 2 -17 9 -17 17 0 27 34 115 41 108 4 -4 12 -34 17 -66z m381 6 c-55 -98
-111 -173 -130 -173 -19 0 29 86 74 133 27 28 56 62 64 75 29 43 24 21 -8 -35z
m-2814 -212 c-8 -7 -43 34 -81 92 -14 22 -28 37 -31 34 -5 -6 20 -48 54 -90
24 -30 29 -47 14 -47 -12 0 -96 129 -107 165 -5 17 -8 46 -6 65 3 33 6 31 83
-89 44 -68 77 -126 74 -130z m625 199 c-11 -22 -23 -40 -25 -40 -3 0 4 18 15
40 11 22 23 40 25 40 3 0 -4 -18 -15 -40z m511 -23 c-10 -9 -11 -8 -5 6 3 10
9 15 12 12 3 -3 0 -11 -7 -18z m-903 -25 c6 -18 -15 -14 -22 4 -4 10 -1 14 6
12 6 -2 14 -10 16 -16z m203 -2 l24 -21 -32 16 c-32 15 -42 25 -24 25 5 0 19
-9 32 -20z m-121 -33 c0 -16 -18 3 -23 25 -6 22 -5 22 8 4 8 -11 15 -24 15
-29z m903 36 c-7 -2 -19 -2 -25 0 -7 3 -2 5 12 5 14 0 19 -2 13 -5z m870 -18
c-3 -9 -8 -14 -10 -11 -3 3 -2 9 2 15 9 16 15 13 8 -4z m-63 -19 c0 -16 -26
-39 -38 -34 -15 5 6 48 23 48 8 0 15 -6 15 -14z m-1739 -22 c7 -8 9 -17 6 -21
-8 -7 -57 24 -57 36 0 13 37 2 51 -15z m1178 -39 c-7 -31 -16 -58 -20 -60 -4
-3 -1 21 7 52 7 32 13 62 14 67 0 5 3 7 6 3 3 -3 0 -31 -7 -62z m171 40 c0 -8
-4 -15 -10 -15 -5 0 -7 7 -4 15 4 8 8 15 10 15 2 0 4 -7 4 -15z m86 -67 c-17
-55 -41 -96 -52 -85 -3 3 9 37 27 76 19 38 36 68 37 66 2 -2 -3 -27 -12 -57z
m-1069 27 c25 -22 26 -24 8 -25 -11 0 -33 11 -50 25 -28 23 -29 24 -8 25 12 0
35 -11 50 -25z m-303 -1 c3 -8 2 -12 -4 -9 -6 3 -10 10 -10 16 0 14 7 11 14
-7z m-57 -2 c6 -4 17 -20 23 -36 10 -28 10 -28 -11 -14 -36 23 -48 73 -12 50z
m324 -24 c58 -28 69 -38 78 -69 11 -37 5 -99 -9 -99 -5 0 -25 33 -46 74 -21
41 -40 73 -42 71 -2 -2 17 -46 42 -98 49 -101 50 -105 37 -125 -7 -12 -13 -11
-37 1 -41 22 -78 64 -109 125 -35 71 -25 78 14 10 29 -52 71 -108 71 -95 0 4
-21 39 -47 79 -82 125 -88 144 -50 151 12 2 24 5 27 6 2 0 35 -14 71 -31z
m1379 23 c0 -10 -30 -24 -37 -17 -3 3 -2 9 2 15 8 13 35 15 35 2z m-755 -28
c31 -15 53 -33 51 -39 -3 -7 -10 -39 -17 -73 -14 -72 -31 -82 -24 -13 l5 47
-13 -50 -13 -50 -23 44 c-21 41 -42 161 -28 161 4 0 32 -12 62 -27z m805 7
c-6 -11 -13 -20 -16 -20 -2 0 0 9 6 20 6 11 13 20 16 20 2 0 0 -9 -6 -20z
m-1539 -99 c27 -51 47 -96 43 -100 -7 -7 -52 45 -100 116 -50 75 -52 85 -20
81 23 -2 35 -17 77 -97z m-1 41 c0 -3 -7 3 -15 14 -8 10 -14 26 -15 34 0 8 7
2 15 -14 8 -15 15 -31 15 -34z m2234 43 c3 -8 2 -15 -3 -15 -5 0 -14 7 -21 15
-10 12 -10 15 3 15 8 0 17 -7 21 -15z m-1926 -13 c6 -18 -15 -14 -22 4 -4 10
-1 14 6 12 6 -2 14 -10 16 -16z m1557 8 c-3 -5 -12 -10 -18 -10 -7 0 -6 4 3
10 19 12 23 12 15 0z m-1965 -52 c0 -18 -27 11 -33 35 -6 22 -6 22 14 -2 10
-13 19 -28 19 -33z m1554 38 c-6 -16 -34 -30 -34 -18 0 5 5 13 12 20 16 16 29
15 22 -2z m326 -6 c0 -5 -5 -10 -11 -10 -5 0 -7 5 -4 10 3 6 8 10 11 10 2 0 4
-4 4 -10z m-2195 -9 c10 -17 -12 -21 -25 -6 -10 12 -10 15 3 15 9 0 18 -4 22
-9z m-45 -11 c0 -6 -13 -10 -30 -10 -39 0 -39 14 0 17 17 1 30 -2 30 -7z m740
0 c0 -5 -6 -10 -14 -10 -8 0 -18 5 -21 10 -3 6 3 10 14 10 12 0 21 -4 21 -10z
m1120 6 c0 -2 -8 -10 -17 -17 -16 -13 -17 -12 -4 4 13 16 21 21 21 13z m416
-21 c-26 -19 -42 -19 -26 0 7 8 20 15 29 15 13 -1 13 -3 -3 -15z m-921 -4 c3
-5 1 -12 -5 -16 -5 -3 -10 1 -10 9 0 18 6 21 15 7z m865 -6 c-14 -17 -30 -20
-30 -6 0 5 8 12 18 14 9 3 19 5 21 6 2 0 -2 -6 -9 -14z m-2250 -9 c0 -11 -19
-15 -25 -6 -3 5 1 10 9 10 9 0 16 -2 16 -4z m50 -1 c0 -2 -15 -12 -32 -20
l-33 -16 24 21 c22 19 41 26 41 15z m371 -26 c11 -22 6 -24 -22 -9 -23 13 -26
42 -4 34 9 -4 20 -15 26 -25z m369 12 c0 -11 -5 -23 -11 -26 -13 -8 -15 -6
-23 23 -6 18 -3 22 13 22 14 0 21 -6 21 -19z m1113 5 c-13 -21 -61 -76 -68
-76 -6 0 21 46 43 73 18 20 37 23 25 3z m-1048 -104 c-7 -7 -35 57 -35 80 1
15 7 7 20 -26 11 -28 18 -52 15 -54z m485 88 c0 -32 -34 -141 -48 -152 -13
-11 -14 -9 -8 24 12 65 37 138 46 138 6 0 10 -5 10 -10z m250 6 c0 -2 -9 -6
-20 -9 -11 -3 -18 -1 -14 4 5 9 34 13 34 5z m140 -10 c0 -24 -17 -28 -23 -6
-3 13 0 20 9 20 8 0 14 -6 14 -14z m60 -2 c0 -3 -12 -22 -26 -44 -14 -21 -24
-44 -22 -50 4 -13 61 58 61 77 0 7 3 11 5 8 3 -3 14 2 24 12 61 55 -33 -89
-111 -169 -50 -52 -196 -146 -162 -105 7 9 20 17 27 17 8 0 14 5 14 12 0 6 8
20 18 31 21 25 -2 14 -35 -16 -28 -25 -30 -14 -3 23 11 15 17 30 14 33 -3 3
14 38 37 78 l43 72 13 -31 c20 -49 40 -51 34 -4 -3 22 38 72 54 65 8 -3 15 -7
15 -9z m414 1 c-4 -11 -2 -13 9 -9 19 7 44 -33 29 -48 -6 -6 -17 0 -31 18 -22
28 -28 54 -11 54 5 0 7 -7 4 -15z m-2154 -4 c0 -5 -7 -17 -16 -26 -14 -13 -19
-14 -25 -3 -5 8 -1 17 14 25 27 15 27 15 27 4z m1330 5 c0 -3 -4 -8 -10 -11
-5 -3 -10 -1 -10 4 0 6 5 11 10 11 6 0 10 -2 10 -4z m1134 -18 c-42 -49 -50
-56 -82 -72 -55 -28 -46 -14 26 42 74 57 84 62 56 30z m-894 7 c0 -12 -45
-122 -56 -140 -22 -32 -18 -48 8 -34 21 11 21 11 -3 -19 -25 -31 -63 -55 -72
-45 -3 3 7 30 23 62 16 31 31 70 35 86 l6 30 -18 -21 c-10 -12 -26 -36 -35
-53 -9 -17 -24 -31 -33 -31 -12 0 -14 4 -7 17 7 12 5 24 -5 39 -8 13 -13 35
-11 51 3 26 9 29 73 45 76 18 95 21 95 13z m23 -25 c-3 -11 -10 -23 -16 -27
-5 -3 -8 -2 -5 3 3 5 8 17 11 27 9 24 16 22 10 -3z m676 -11 c-39 -30 -54 -22
-23 12 9 10 23 15 31 12 13 -5 11 -9 -8 -24z m-1619 -9 c0 -16 -4 -30 -9 -30
-5 0 -8 8 -6 18 2 9 4 23 4 30 2 26 11 11 11 -18z m1454 -6 c-2 -20 -13 -52
-24 -72 l-20 -37 4 40 c5 45 14 74 29 93 14 18 16 15 11 -24z m-1658 -36 c8
-16 11 -28 7 -28 -13 0 -72 73 -66 82 7 12 41 -20 59 -54z m335 30 c7 -18 26
-55 42 -81 29 -48 30 -64 3 -54 -22 9 -87 132 -80 151 9 24 20 19 35 -16z
m529 22 c0 -5 -5 -10 -11 -10 -5 0 -7 5 -4 10 3 6 8 10 11 10 2 0 4 -4 4 -10z
m873 -52 c17 -16 17 -18 -12 -32 -17 -9 -32 -16 -36 -16 -3 0 -5 23 -5 52 0
51 1 52 17 33 10 -11 26 -28 36 -37z m-1180 12 c4 -15 1 -17 -17 -11 -11 5
-22 15 -24 24 -5 23 35 10 41 -13z m-602 -32 c24 -24 40 -40 35 -35 -6 4 -20
7 -32 7 -23 0 -54 33 -54 57 0 19 2 17 51 -29z m759 20 c0 -6 6 -6 14 1 12 10
14 9 11 -6 -2 -10 -4 -33 -4 -50 -1 -53 -28 -41 -40 17 -14 63 -14 60 4 54 8
-4 15 -11 15 -16z m-404 -21 c37 -57 41 -91 8 -69 -16 10 -54 88 -47 96 11 11
18 6 39 -27z m512 -42 c-17 -41 -35 -75 -39 -75 -5 0 -3 10 5 23 8 12 15 25
15 30 -1 16 34 97 42 97 4 0 -6 -34 -23 -75z m-618 28 c0 -20 -3 -24 -11 -16
-7 7 -9 19 -6 27 10 24 17 19 17 -11z m1388 -20 c-8 -15 -20 -27 -27 -25 -7 1
-24 -5 -38 -13 -14 -9 -27 -14 -30 -12 -2 3 8 14 24 24 15 10 39 31 53 47 28
33 38 20 18 -21z m-1494 12 c18 -14 38 -25 44 -25 6 0 30 -18 54 -40 24 -22
38 -40 32 -40 -23 0 -72 26 -105 56 -73 66 -90 99 -25 49z m185 -20 c-9 -8
-40 25 -34 35 5 8 12 4 22 -10 8 -12 13 -23 12 -25z m281 25 c0 -5 -2 -10 -4
-10 -3 0 -8 5 -11 10 -3 6 -1 10 4 10 6 0 11 -4 11 -10z m811 0 c11 0 17 -4
14 -10 -6 -9 -51 -11 -68 -3 -14 8 5 25 20 19 8 -3 24 -6 34 -6z m-519 -22
c-7 -7 -12 -8 -12 -2 0 14 12 26 19 19 2 -3 -1 -11 -7 -17z m68 13 c0 -11 -19
-24 -37 -27 -14 -2 -18 18 -6 29 10 10 43 8 43 -2z m27 -18 c-15 -16 -17 -16
-17 -1 0 9 6 18 13 21 20 7 22 -2 4 -20z m704 4 c-10 -9 -11 -8 -5 6 3 10 9
15 12 12 3 -3 0 -11 -7 -18z m85 8 c-11 -8 -25 -15 -30 -15 -6 0 -2 7 8 15 11
8 25 15 30 15 6 0 2 -7 -8 -15z m-1481 -21 c14 -9 23 -20 20 -24 -3 -5 7 -13
22 -18 16 -6 23 -11 17 -11 -17 -1 -104 39 -104 48 0 8 11 21 17 21 2 0 15 -7
28 -16z m275 6 c0 -5 -2 -10 -4 -10 -3 0 -8 5 -11 10 -3 6 -1 10 4 10 6 0 11
-4 11 -10z m-100 -20 c6 -11 8 -20 6 -20 -3 0 -10 9 -16 20 -6 11 -8 20 -6 20
3 0 10 -9 16 -20z m213 3 c-7 -2 -19 -2 -25 0 -7 3 -2 5 12 5 14 0 19 -2 13
-5z m662 -3 c-3 -5 -12 -10 -18 -10 -7 0 -6 4 3 10 19 12 23 12 15 0z m-1389
-14 c10 -8 17 -17 14 -19 -3 -3 -16 3 -30 13 -29 22 -14 27 16 6z m66 -16 c27
-24 29 -28 11 -24 -24 7 -73 54 -55 54 6 0 26 -13 44 -30z m888 11 c0 -14 -18
-23 -30 -16 -6 4 -8 11 -5 16 8 12 35 12 35 0z m40 -6 c-7 -9 -15 -13 -17 -11
-7 7 7 26 19 26 6 0 6 -6 -2 -15z m60 5 c0 -12 -28 -25 -36 -17 -9 9 6 27 22
27 8 0 14 -5 14 -10z m604 -4 c-5 -13 -34 -26 -59 -26 -11 0 45 38 57 39 4 1
5 -5 2 -13z m-1489 -22 c20 -13 42 -44 31 -44 -18 0 -73 28 -94 47 l-26 24 33
-6 c18 -3 43 -12 56 -21z m510 16 c3 -5 2 -10 -4 -10 -5 0 -13 5 -16 10 -3 6
-2 10 4 10 5 0 13 -4 16 -10z m103 -9 c3 -9 -8 -11 -34 -9 -20 2 -39 8 -41 15
-3 8 7 11 33 9 21 -2 40 -9 42 -15z m32 9 c0 -5 -4 -10 -10 -10 -5 0 -10 5
-10 10 0 6 5 10 10 10 6 0 10 -4 10 -10z m-461 -9 c7 -5 12 -14 9 -21 -2 -7
-10 -4 -22 9 -19 21 -12 28 13 12z m1031 -6 c-7 -8 -20 -15 -28 -15 -13 0 -12
3 4 15 25 19 40 19 24 0z m-880 -5 c0 -5 -2 -10 -4 -10 -3 0 -8 5 -11 10 -3 6
-1 10 4 10 6 0 11 -4 11 -10z m780 -5 c-7 -9 -15 -13 -19 -10 -3 3 1 10 9 15
21 14 24 12 10 -5z m265 5 c-3 -5 -12 -10 -18 -10 -7 0 -6 4 3 10 19 12 23 12
15 0z m-1291 -49 c-7 -8 -34 9 -45 30 -12 22 -11 22 18 -2 17 -13 29 -26 27
-28z m648 27 c-7 -7 -12 -8 -12 -2 0 14 12 26 19 19 2 -3 -1 -11 -7 -17z
m-283 -14 c2 -2 -13 -4 -34 -4 -32 0 -36 2 -25 15 9 11 17 12 34 3 11 -6 23
-12 25 -14z m826 12 c-33 -23 -140 -48 -121 -28 8 8 104 40 126 41 10 1 8 -3
-5 -13z m-647 -8 c8 -8 15 -8 27 2 12 10 15 10 15 -3 0 -24 -15 -28 -61 -18
-57 13 -74 31 -28 31 19 0 40 -5 47 -12z m-388 -8 c0 -13 -11 -13 -30 0 -12 8
-11 10 8 10 12 0 22 -4 22 -10z m75 0 c-3 -5 -15 -10 -26 -10 -10 0 -19 5 -19
10 0 6 12 10 26 10 14 0 23 -4 19 -10z m805 -5 c0 -10 -60 -35 -84 -35 -14 0
-27 -4 -30 -9 -5 -8 -65 -6 -73 3 -2 2 18 7 46 11 27 4 69 13 93 20 24 8 44
14 46 14 1 1 2 -1 2 -4z m-500 -52 c3 -2 -28 -3 -69 -1 -40 1 -74 5 -76 9 -5
7 138 -1 145 -8z m99 11 c41 -8 40 -21 -1 -22 -47 -2 -75 8 -57 19 17 11 18
11 58 3z"/>
<path d="M2811 4764 c0 -11 3 -14 6 -6 3 7 2 16 -1 19 -3 4 -6 -2 -5 -13z"/>
<path d="M2743 4610 c-1 -11 2 -20 8 -20 5 0 9 9 9 20 0 11 -4 20 -8 20 -4 0
-8 -9 -9 -20z"/>
<path d="M2743 4265 c0 -22 2 -30 4 -17 2 12 2 30 0 40 -3 9 -5 -1 -4 -23z"/>
<path d="M2621 4008 c0 -48 3 -89 7 -92 4 -2 6 28 4 67 -5 111 -9 121 -11 25z"/>
<path d="M2710 3703 c0 -5 5 -15 10 -23 7 -12 9 -10 7 8 -1 19 -17 33 -17 15z"/>
<path d="M2721 3644 c0 -11 3 -14 6 -6 3 7 2 16 -1 19 -3 4 -6 -2 -5 -13z"/>
<path d="M2732 3590 c0 -14 2 -19 5 -12 2 6 2 18 0 25 -3 6 -5 1 -5 -13z"/>
<path d="M2660 3540 c-3 -39 -3 -54 4 -90 2 -14 5 -38 5 -53 1 -16 5 -26 11
-22 6 3 10 -1 10 -9 0 -17 12 -21 23 -9 4 3 1 13 -6 22 -8 9 -19 50 -26 91
-18 108 -18 108 -21 70z"/>
<path d="M2707 3469 c4 -13 8 -18 11 -10 2 7 -1 18 -6 23 -8 8 -9 4 -5 -13z"/>
<path d="M2716 3119 c2 -26 14 -75 25 -110 22 -73 18 -40 -11 76 -13 54 -18
65 -14 34z"/>
<path d="M3041 2834 c0 -11 3 -14 6 -6 3 7 2 16 -1 19 -3 4 -6 -2 -5 -13z"/>
<path d="M4366 5172 c10 -19 25 -39 33 -45 9 -8 8 0 -5 21 -10 19 -25 39 -33
45 -9 8 -8 0 5 -21z"/>
<path d="M4420 5094 c0 -6 7 -19 15 -30 8 -10 14 -14 14 -9 0 6 -6 19 -14 29
-8 11 -15 15 -15 10z"/>
<path d="M4402 5063 c22 -50 75 -151 85 -161 7 -7 13 -18 13 -24 0 -6 2 -9 4
-7 2 2 -2 27 -9 54 -8 28 -14 41 -15 30 -1 -12 -14 6 -36 48 -19 37 -37 67
-40 67 -3 0 -4 -3 -2 -7z"/>
<path d="M4546 4897 c3 -10 9 -15 12 -12 3 3 0 11 -7 18 -10 9 -11 8 -5 -6z"/>
<path d="M4562 4860 c3 -8 22 -66 43 -128 21 -62 40 -111 42 -108 5 5 -74 237
-84 245 -3 3 -4 -1 -1 -9z"/>
<path d="M4514 4835 c4 -16 12 -34 17 -40 5 -5 4 6 -2 25 -15 45 -24 54 -15
15z"/>
<path d="M4550 4735 c0 -5 5 -17 10 -25 5 -8 10 -10 10 -5 0 6 -5 17 -10 25
-5 8 -10 11 -10 5z"/>
<path d="M4590 4625 c0 -5 5 -17 10 -25 5 -8 10 -10 10 -5 0 6 -5 17 -10 25
-5 8 -10 11 -10 5z"/>
<path d="M4651 4600 c0 -8 4 -24 9 -35 5 -13 9 -14 9 -5 0 8 -4 24 -9 35 -5
13 -9 14 -9 5z"/>
<path d="M4631 4514 c0 -11 3 -14 6 -6 3 7 2 16 -1 19 -3 4 -6 -2 -5 -13z"/>
<path d="M4641 4480 c0 -8 4 -22 9 -30 12 -18 12 -2 0 25 -6 13 -9 15 -9 5z"/>
<path d="M4661 4262 c1 -62 4 -111 6 -108 7 6 4 209 -3 215 -3 3 -4 -46 -3
-107z"/>
<path d="M4704 4088 c1 -142 4 -245 9 -230 8 31 6 386 -3 447 -4 22 -6 -76 -6
-217z"/>
<path d="M4617 4205 c2 -71 8 -155 13 -185 10 -61 5 39 -10 220 -7 83 -8 79
-3 -35z"/>
<path d="M4673 4040 c0 -41 2 -58 4 -37 2 20 2 54 0 75 -2 20 -4 3 -4 -38z"/>
<path d="M4615 3683 c-39 -198 -45 -236 -41 -241 6 -5 22 54 35 133 6 33 13
69 15 80 10 55 17 115 13 115 -2 0 -12 -39 -22 -87z"/>
<path d="M4855 3758 c-2 -7 -6 -47 -9 -88 -8 -112 -40 -239 -95 -377 -11 -29
-19 -53 -16 -53 13 0 100 241 109 303 4 27 10 59 12 70 16 77 16 196 -1 145z"/>
<path d="M4681 3716 c0 -16 -17 -92 -36 -169 -20 -77 -34 -144 -32 -150 3 -10
47 151 68 250 6 29 9 63 6 75 -4 19 -5 18 -6 -6z"/>
<path d="M4730 3674 c0 -8 -12 -56 -26 -105 -14 -50 -24 -93 -21 -95 2 -3 9
15 15 38 7 24 20 73 31 111 11 37 15 67 10 67 -5 0 -9 -7 -9 -16z"/>
<path d="M4667 3441 c-4 -17 -3 -21 5 -13 5 5 8 16 6 23 -3 8 -7 3 -11 -10z"/>
<path d="M4656 3393 c-6 -14 -5 -15 5 -6 7 7 10 15 7 18 -3 3 -9 -2 -12 -12z"/>
<path d="M2510 5209 c-46 -55 -55 -69 -47 -69 2 0 27 29 55 65 66 82 60 86 -8
4z"/>
<path d="M2602 5208 c-22 -29 -47 -69 -57 -88 -22 -44 -10 -31 40 45 22 33 47
65 55 72 8 6 12 14 8 18 -3 4 -24 -17 -46 -47z"/>
<path d="M2592 5143 c-26 -38 -34 -53 -29 -53 2 0 16 18 31 40 29 45 28 56 -2
13z"/>
<path d="M2522 5045 c-29 -45 -22 -45 12 0 15 19 23 35 19 35 -4 0 -18 -16
-31 -35z"/>
<path d="M2447 4824 c-21 -44 -51 -105 -66 -136 -27 -55 -27 -57 -7 -55 16 2
26 18 46 77 15 41 36 96 49 122 13 26 21 53 19 59 -2 6 -21 -24 -41 -67z"/>
<path d="M2488 4848 c-29 -59 -72 -197 -64 -205 2 -3 10 15 16 38 6 24 27 81
47 127 40 93 40 120 1 40z"/>
<path d="M2228 4790 c-21 -32 -38 -64 -38 -72 0 -8 -5 -19 -12 -26 -6 -6 -9
-14 -6 -17 3 -3 26 34 51 82 26 47 46 88 44 89 -1 1 -19 -24 -39 -56z"/>
<path d="M2511 4837 c-15 -19 -63 -148 -57 -155 3 -3 9 4 12 14 4 10 20 49 35
87 28 68 30 78 10 54z"/>
<path d="M2331 4528 c-7 -21 -10 -46 -8 -55 3 -13 5 -12 6 5 0 13 6 32 12 43
6 11 8 25 6 32 -2 7 -9 -5 -16 -25z"/>
<path d="M2304 4406 c-3 -8 -4 -27 -2 -43 3 -23 5 -20 9 15 5 43 2 53 -7 28z"/>
<path d="M2344 4405 c-3 -8 -4 -20 -2 -27 3 -7 7 -1 10 15 6 29 1 36 -8 12z"/>
<path d="M2147 4393 c-9 -14 -36 -125 -29 -118 4 3 14 33 23 66 15 55 17 70 6
52z"/>
<path d="M2272 4365 c0 -16 2 -22 5 -12 2 9 2 23 0 30 -3 6 -5 -1 -5 -18z"/>
<path d="M2323 4270 c-5 -39 -6 -73 -3 -75 7 -5 23 135 17 142 -2 2 -8 -28
-14 -67z"/>
<path d="M2086 4313 c-16 -50 -44 -239 -37 -246 5 -5 11 22 15 60 4 37 13 97
21 133 13 61 14 93 1 53z"/>
<path d="M2266 4313 c-6 -14 -5 -15 5 -6 7 7 10 15 7 18 -3 3 -9 -2 -12 -12z"/>
<path d="M2292 4285 c0 -16 2 -22 5 -12 2 9 2 23 0 30 -3 6 -5 -1 -5 -18z"/>
<path d="M2261 4274 c0 -11 3 -14 6 -6 3 7 2 16 -1 19 -3 4 -6 -2 -5 -13z"/>
<path d="M2106 4218 c-17 -102 -25 -228 -13 -228 4 0 7 24 8 53 0 51 1 63 14
160 6 53 0 64 -9 15z"/>
<path d="M2269 4063 c-1 -16 -3 -52 -5 -80 -3 -29 -1 -53 3 -53 5 0 9 36 11
80 2 44 0 80 -3 80 -3 0 -5 -12 -6 -27z"/>
<path d="M2260 3905 c0 -8 4 -15 8 -15 5 0 9 7 9 15 0 8 -4 15 -9 15 -4 0 -8
-7 -8 -15z"/>
<path d="M2243 3815 c0 -44 2 -61 4 -37 2 23 2 59 0 80 -2 20 -4 1 -4 -43z"/>
<path d="M2267 3873 c-10 -9 -9 -23 1 -23 5 0 9 7 9 15 0 17 -1 18 -10 8z"/>
<path d="M2268 3805 c2 -19 6 -35 8 -35 2 0 4 16 4 35 0 19 -4 35 -8 35 -4 0
-6 -16 -4 -35z"/>
<path d="M2330 3821 c0 -6 4 -13 10 -16 6 -3 7 1 4 9 -7 18 -14 21 -14 7z"/>
<path d="M2313 3775 c0 -27 2 -38 4 -22 2 15 2 37 0 50 -2 12 -4 0 -4 -28z"/>
<path d="M2335 3780 c3 -5 8 -10 11 -10 2 0 4 5 4 10 0 6 -5 10 -11 10 -5 0
-7 -4 -4 -10z"/>
<path d="M2130 3744 c1 -21 7 -68 15 -104 13 -60 14 -61 9 -15 -13 145 -25
203 -24 119z"/>
<path d="M2098 3753 c-5 -26 21 -216 42 -308 16 -67 58 -191 59 -173 1 9 -10
52 -23 95 -22 70 -34 123 -51 218 -3 17 -8 64 -11 105 -6 79 -10 93 -16 63z"/>
<path d="M2294 3605 c14 -142 46 -299 66 -319 5 -5 0 25 -10 65 -11 41 -22 90
-25 109 -3 19 -7 46 -10 60 -2 14 -7 52 -10 84 -3 33 -8 62 -11 65 -4 3 -3
-25 0 -64z"/>
<path d="M2250 3625 c0 -8 4 -15 10 -15 5 0 7 7 4 15 -4 8 -8 15 -10 15 -2 0
-4 -7 -4 -15z"/>
<path d="M2154 3553 c12 -47 16 -60 21 -88 13 -78 17 -91 27 -100 8 -7 9 -5 5
7 -3 10 -14 58 -24 108 -10 49 -22 90 -26 90 -5 0 -6 -8 -3 -17z"/>
<path d="M2210 3326 c0 -14 4 -27 8 -30 5 -3 6 8 4 25 -5 35 -12 38 -12 5z"/>
<path d="M2250 3102 c0 -11 23 -70 50 -130 28 -60 50 -114 50 -121 0 -6 4 -11
10 -11 5 0 12 -11 16 -25 13 -52 144 -230 209 -285 27 -22 27 -21 -5 15 -19
21 -43 47 -53 56 -9 9 -34 50 -56 90 -55 105 -63 121 -87 154 -31 43 -68 120
-94 195 -26 73 -40 95 -40 62z"/>
<path d="M2340 3081 c0 -6 4 -13 10 -16 6 -3 7 1 4 9 -7 18 -14 21 -14 7z"/>
<path d="M2231 3010 c0 -8 6 -26 14 -40 8 -14 14 -19 14 -10 0 8 -6 26 -14 40
-8 14 -14 19 -14 10z"/>
<path d="M2416 2877 c3 -10 9 -15 12 -12 3 3 0 11 -7 18 -10 9 -11 8 -5 -6z"/>
<path d="M2430 2841 c0 -6 4 -13 10 -16 6 -3 7 1 4 9 -7 18 -14 21 -14 7z"/>
<path d="M2334 2815 c8 -16 29 -46 46 -65 l31 -35 -33 46 c-18 26 -39 55 -46
65 -7 11 -6 6 2 -11z"/>
<path d="M2450 2805 c0 -6 12 -28 25 -50 14 -22 25 -47 25 -55 0 -9 36 -54 81
-100 71 -75 65 -59 -13 34 -15 18 -48 66 -73 106 -25 41 -45 70 -45 65z"/>
<path d="M2510 2766 c0 -2 7 -9 15 -16 13 -11 14 -10 9 4 -5 14 -24 23 -24 12z"/>
<path d="M3802 5314 c2 -5 13 -26 22 -47 10 -21 20 -36 23 -33 7 7 -24 73 -39
82 -6 4 -9 3 -6 -2z"/>
<path d="M3929 5270 c14 -40 140 -296 140 -287 2 20 -110 262 -133 292 -16 19
-16 19 -7 -5z"/>
<path d="M3908 5164 c-3 -5 21 -72 53 -149 32 -77 59 -132 59 -122 0 10 -18
64 -41 120 -58 148 -65 162 -71 151z"/>
<path d="M3890 5130 c6 -11 13 -20 16 -20 2 0 0 9 -6 20 -6 11 -13 20 -16 20
-2 0 0 -9 6 -20z"/>
<path d="M4108 5065 c0 -17 -2 -34 -3 -40 -1 -5 -5 -46 -10 -90 -5 -44 -10
-83 -11 -87 -1 -5 -2 -15 -3 -23 -1 -12 -10 -11 -58 7 -32 11 -74 32 -93 45
-33 22 -60 30 -60 17 0 -13 62 -94 95 -123 20 -17 34 -35 31 -39 -2 -4 -29
-25 -60 -47 -47 -34 -55 -44 -51 -65 2 -14 7 -56 10 -95 13 -154 25 -258 32
-265 2 -3 2 22 -1 55 -12 125 -20 231 -21 268 0 37 2 40 46 56 25 10 67 32 92
50 26 18 60 34 76 36 l29 3 17 -95 c14 -79 15 -105 6 -154 -7 -33 -14 -92 -17
-132 -3 -39 -7 -73 -9 -75 -6 -6 -60 25 -77 44 -9 11 -26 39 -39 64 -12 25
-27 51 -33 59 -6 7 -16 41 -23 75 l-12 61 6 -80 c4 -57 10 -86 23 -100 10 -11
27 -39 38 -61 21 -42 74 -94 95 -94 8 0 7 -3 -2 -9 -13 -9 -62 -7 -113 4 -19
5 -28 14 -31 33 -4 25 -4 24 -6 -5 0 -17 -6 -35 -11 -38 -6 -4 -8 -10 -5 -15
6 -10 90 -24 133 -22 29 1 31 0 22 -18 -6 -11 -26 -32 -45 -47 -22 -18 -30
-30 -23 -34 11 -7 73 36 146 102 17 16 32 28 33 27 1 -2 2 -29 3 -60 1 -46 -2
-58 -14 -58 -12 0 -15 10 -12 43 2 28 0 38 -6 28 -5 -7 -9 -43 -7 -80 1 -36
-2 -86 -6 -111 -4 -25 -10 -70 -14 -100 -8 -66 -11 -71 -33 -63 -20 7 -97 59
-128 86 -19 16 -22 16 -27 3 -8 -19 59 -88 112 -116 20 -10 29 -20 21 -20 -8
-1 -41 -3 -74 -5 -32 -1 -64 -9 -72 -16 -11 -12 0 -14 71 -14 46 0 86 -2 88
-5 3 -3 1 -27 -3 -55 -11 -64 -18 -355 -8 -318 5 15 10 46 13 68 3 22 20 95
38 162 l32 121 60 -39 c33 -21 65 -39 72 -39 25 0 12 46 -31 105 l-43 59 38
39 c39 38 103 150 97 169 -4 12 -164 -179 -161 -192 2 -6 -4 -10 -13 -10 -13
0 -15 6 -9 28 3 15 9 74 12 132 3 58 9 107 14 108 5 2 9 33 9 69 l0 65 35 -31
c20 -17 43 -31 53 -31 13 1 12 5 -9 23 -31 26 -64 75 -56 83 3 3 20 -2 38 -11
30 -16 94 -23 106 -12 13 13 -11 25 -61 31 -29 4 -62 13 -72 20 -17 13 -16 16
14 50 17 20 41 55 52 76 19 37 19 41 4 47 -17 6 -59 -32 -114 -105 l-25 -34
-1 119 c-1 71 -7 142 -17 178 -9 33 -17 73 -19 90 -3 29 -3 29 46 26 27 -1 57
-4 68 -6 23 -5 48 4 48 17 0 16 -72 40 -122 40 -26 -1 -48 0 -48 2 0 1 12 27
26 57 15 30 31 66 35 82 5 15 13 41 18 57 17 54 -6 32 -56 -52 l-48 -83 -3
120 c-1 66 -7 124 -12 129 -7 7 -11 -1 -12 -19z m78 -200 c-16 -37 -46 -85
-46 -72 0 10 51 107 56 107 2 0 -2 -16 -10 -35z m-102 -85 c4 -4 5 -13 1 -20
-10 -17 -76 -3 -104 23 -33 30 -60 60 -61 69 0 8 150 -58 164 -72z m193 -39
c15 -9 13 -10 -13 -11 -48 0 -97 12 -84 20 16 10 75 4 97 -9z m-217 -16 c0 -8
-73 -51 -100 -60 -22 -6 -23 -5 -10 8 27 27 110 66 110 52z m129 -324 c-4
-101 -17 -139 -18 -50 -1 65 7 129 16 129 2 0 3 -36 2 -79z m123 -13 c-24 -38
-72 -86 -72 -72 0 20 79 119 88 109 2 -2 -5 -19 -16 -37z m-127 -148 c-3 -5
-12 -7 -20 -3 -21 7 -19 13 6 13 11 0 18 -4 14 -10z m6 -360 l-10 -45 1 45 c1
45 9 73 15 55 1 -6 -1 -30 -6 -55z m131 13 c-6 -10 -27 -34 -48 -53 -42 -40
-35 -22 16 38 35 41 50 48 32 15z m-187 -101 c-6 -7 -81 37 -100 58 -14 15 0
10 41 -16 34 -22 60 -40 59 -42z m137 -49 c33 -36 62 -93 47 -93 -12 0 -100
59 -111 75 -4 6 -8 18 -8 28 0 27 43 21 72 -10z m-118 -121 c-12 -56 -19 -72
-24 -57 -13 37 4 161 23 168 19 6 20 -29 1 -111z"/>
<path d="M3822 4995 c0 -16 2 -22 5 -12 2 9 2 23 0 30 -3 6 -5 -1 -5 -18z"/>
<path d="M3831 4944 c0 -11 3 -14 6 -6 3 7 2 16 -1 19 -3 4 -6 -2 -5 -13z"/>
<path d="M4331 4930 c0 -8 4 -24 9 -35 5 -13 9 -14 9 -5 0 8 -4 24 -9 35 -5
13 -9 14 -9 5z"/>
<path d="M4404 4695 c11 -40 22 -72 24 -70 6 6 -30 135 -38 140 -4 2 2 -29 14
-70z"/>
<path d="M4115 4670 c9 -62 27 -131 32 -127 6 7 -19 141 -29 152 -6 6 -7 -4
-3 -25z"/>
<path d="M4089 4676 c-6 -6 -1 -44 26 -186 l15 -75 -6 70 c-6 86 -27 199 -35
191z"/>
<path d="M3913 4570 c2 -8 12 -59 22 -112 10 -53 22 -95 26 -92 5 3 5 15 0 27
-4 12 -14 54 -21 92 -7 39 -17 77 -22 85 -8 13 -9 13 -5 0z"/>
<path d="M4411 4524 c0 -11 3 -14 6 -6 3 7 2 16 -1 19 -3 4 -6 -2 -5 -13z"/>
<path d="M4421 4484 c0 -11 3 -14 6 -6 3 7 2 16 -1 19 -3 4 -6 -2 -5 -13z"/>
<path d="M3962 4325 c0 -16 2 -22 5 -12 2 9 2 23 0 30 -3 6 -5 -1 -5 -18z"/>
<path d="M4487 4343 c-2 -5 0 -21 4 -38 7 -29 7 -29 8 8 1 35 -3 46 -12 30z"/>
<path d="M4472 4215 c0 -16 2 -22 5 -12 2 9 2 23 0 30 -3 6 -5 -1 -5 -18z"/>
<path d="M4460 4141 c0 -6 4 -12 8 -15 5 -3 9 1 9 9 0 8 -4 15 -9 15 -4 0 -8
-4 -8 -9z"/>
<path d="M3965 4130 c-4 -7 -1 -16 6 -21 17 -10 26 8 11 23 -6 6 -12 6 -17 -2z"/>
<path d="M4150 4050 c0 -51 3 -90 7 -86 8 8 6 166 -2 174 -3 3 -5 -37 -5 -88z"/>
<path d="M4464 4080 c0 -16 3 -27 6 -25 8 5 6 42 -1 50 -3 2 -5 -8 -5 -25z"/>
<path d="M3983 4025 c0 -38 2 -53 4 -32 2 20 2 52 0 70 -2 17 -4 1 -4 -38z"/>
<path d="M4464 3880 c0 -91 2 -128 3 -82 2 45 2 119 0 165 -1 45 -3 8 -3 -83z"/>
<path d="M3952 3960 c0 -19 2 -27 5 -17 2 9 2 25 0 35 -3 9 -5 1 -5 -18z"/>
<path d="M4502 3915 c0 -16 2 -22 5 -12 2 9 2 23 0 30 -3 6 -5 -1 -5 -18z"/>
<path d="M3952 3900 c0 -14 2 -19 5 -12 2 6 2 18 0 25 -3 6 -5 1 -5 -13z"/>
<path d="M4501 3834 c0 -11 3 -14 6 -6 3 7 2 16 -1 19 -3 4 -6 -2 -5 -13z"/>
<path d="M3922 3700 c0 -14 2 -19 5 -12 2 6 2 18 0 25 -3 6 -5 1 -5 -13z"/>
<path d="M4052 3700 c-18 -4 -36 -10 -39 -14 -9 -8 48 -6 71 3 29 11 6 19 -32
11z"/>
<path d="M4199 3598 c0 -18 -2 -40 -3 -48 -2 -8 -6 -39 -10 -68 -7 -58 -21
-128 -32 -155 -3 -9 -2 -17 3 -17 6 0 18 35 27 78 18 83 33 242 22 242 -3 0
-6 -15 -7 -32z"/>
<path d="M3945 3565 c-3 -14 -7 -36 -10 -50 -3 -14 -2 -25 3 -25 4 0 9 15 10
33 1 17 5 40 8 50 3 9 3 17 0 17 -3 0 -8 -11 -11 -25z"/>
<path d="M4456 3559 c-3 -19 -15 -88 -26 -155 -20 -125 -58 -260 -92 -329 -11
-22 -15 -35 -9 -29 18 16 70 151 86 219 18 78 55 318 50 323 -2 2 -6 -11 -9
-29z"/>
<path d="M4136 3408 c-19 -96 -19 -98 -8 -98 8 0 35 170 28 177 -2 2 -11 -34
-20 -79z"/>
<path d="M3932 3455 c0 -16 2 -22 5 -12 2 9 2 23 0 30 -3 6 -5 -1 -5 -18z"/>
<path d="M3925 3409 c-4 -6 -5 -12 -2 -15 2 -3 7 2 10 11 7 17 1 20 -8 4z"/>
<path d="M4442 3299 c-12 -51 -21 -94 -19 -96 5 -4 33 95 43 150 12 69 -2 38
-24 -54z"/>
<path d="M4091 3024 c0 -11 3 -14 6 -6 3 7 2 16 -1 19 -3 4 -6 -2 -5 -13z"/>
<path d="M2282 5348 c-23 -18 -42 -36 -42 -41 0 -9 75 47 85 64 10 15 0 10
-43 -23z"/>
<path d="M3631 5124 c0 -11 3 -14 6 -6 3 7 2 16 -1 19 -3 4 -6 -2 -5 -13z"/>
<path d="M3641 5084 c0 -11 3 -14 6 -6 3 7 2 16 -1 19 -3 4 -6 -2 -5 -13z"/>
<path d="M3674 4975 c3 -16 13 -88 21 -160 9 -71 18 -141 20 -155 10 -63 25
-187 31 -248 8 -81 14 -93 14 -27 0 71 7 51 15 -40 3 -44 10 -123 14 -175 4
-52 8 -150 7 -218 -1 -67 2 -122 7 -122 16 0 13 203 -8 405 -1 17 -6 66 -10
110 -4 44 -9 83 -11 87 -3 4 -7 29 -9 55 -10 126 -74 494 -87 508 -7 7 -8 0
-4 -20z"/>
<path d="M3106 4682 c-11 -19 -23 -92 -16 -97 5 -3 11 7 13 22 2 16 2 -6 -1
-47 -5 -86 2 -93 12 -10 6 62 14 109 21 128 5 13 -21 17 -29 4z"/>
<path d="M3375 4673 c-12 -33 -22 -103 -14 -97 5 3 9 -24 9 -60 0 -36 3 -66 8
-66 10 0 7 123 -3 140 -5 9 -4 11 3 6 9 -5 12 8 12 43 0 54 -4 62 -15 34z"/>
<path d="M3675 4625 c8 -97 17 -176 26 -235 7 -46 7 -42 3 30 -5 101 -13 171
-25 225 -7 34 -8 31 -4 -20z"/>
<path d="M3140 4593 c-7 -38 -10 -77 -7 -88 3 -13 5 -9 6 12 0 18 6 55 12 83
6 28 9 54 6 56 -3 3 -10 -25 -17 -63z"/>
<path d="M3329 4578 c-1 -2 -3 -37 -5 -78 l-3 -75 20 43 c11 24 18 55 16 70
-4 25 -4 24 -6 -5 -2 -49 -17 -47 -16 3 1 38 -1 52 -6 42z"/>
<path d="M3082 4550 c0 -14 2 -19 5 -12 2 6 2 18 0 25 -3 6 -5 1 -5 -13z"/>
<path d="M3093 4240 c0 -41 2 -58 4 -37 2 20 2 54 0 75 -2 20 -4 3 -4 -38z"/>
<path d="M3745 4245 c2 -38 5 -125 6 -192 0 -68 4 -123 8 -123 10 0 2 321 -9
360 -5 15 -7 -3 -5 -45z"/>
<path d="M3061 4208 c-1 -28 0 -50 3 -47 8 8 14 99 7 99 -4 0 -9 -23 -10 -52z"/>
<path d="M3111 3885 c-6 -57 -1 -189 6 -196 7 -8 7 109 -1 191 -2 33 -3 34 -5
5z"/>
<path d="M3134 3811 c4 -36 9 -67 12 -70 4 -3 4 23 1 58 -3 35 -9 66 -12 70
-4 3 -4 -23 -1 -58z"/>
<path d="M3076 3828 c-6 -41 -5 -68 4 -68 3 0 7 23 7 50 2 57 -4 65 -11 18z"/>
<path d="M3674 3808 c3 -29 5 -74 5 -100 1 -27 5 -48 9 -48 4 0 7 17 6 38 -5
123 -8 154 -16 158 -5 3 -6 -18 -4 -48z"/>
<path d="M3031 3804 c0 -11 3 -14 6 -6 3 7 2 16 -1 19 -3 4 -6 -2 -5 -13z"/>
<path d="M3790 3778 c-1 -69 -10 -280 -15 -315 -2 -18 0 -33 4 -33 4 0 8 6 8
13 1 81 16 364 20 370 2 4 -1 7 -6 7 -6 0 -11 -19 -11 -42z"/>
<path d="M3650 3735 c0 -38 2 -66 5 -63 8 8 8 118 1 125 -3 4 -6 -24 -6 -62z"/>
<path d="M3744 3760 c0 -13 4 -16 10 -10 7 7 7 13 0 20 -6 6 -10 3 -10 -10z"/>
<path d="M3082 3730 c0 -14 2 -19 5 -12 2 6 2 18 0 25 -3 6 -5 1 -5 -13z"/>
<path d="M3749 3728 c-6 -20 -6 -39 0 -42 4 -3 7 6 7 20 0 20 -4 32 -7 22z"/>
<path d="M3741 3533 c0 -76 2 -133 4 -128 8 20 10 265 3 265 -5 0 -8 -62 -7
-137z"/>
<path d="M3772 3382 c-1 -24 -6 -52 -12 -62 -5 -10 -12 -36 -15 -57 -11 -79
-15 -110 -20 -163 -8 -78 -16 -133 -21 -142 -2 -3 0 -9 6 -13 5 -3 10 0 11 7
0 7 2 20 3 28 2 8 7 47 11 85 17 167 24 216 36 246 6 14 9 46 6 70 l-4 44 -1
-43z"/>
<path d="M3730 3359 c0 -5 5 -7 10 -4 6 3 10 8 10 11 0 2 -4 4 -10 4 -5 0 -10
-5 -10 -11z"/>
<path d="M3374 3195 c2 -22 8 -86 11 -142 4 -57 11 -103 16 -103 4 0 6 10 4
22 -3 11 -7 55 -10 97 -9 112 -14 153 -21 160 -3 3 -3 -12 0 -34z"/>
<path d="M3629 3173 c0 -10 -2 -25 -3 -33 -11 -53 -14 -112 -6 -104 10 10 25
154 16 154 -3 0 -6 -8 -7 -17z"/>
<path d="M3669 3158 c-5 -22 -9 -161 -5 -157 9 8 20 159 12 159 -3 0 -6 -1 -7
-2z"/>
<path d="M3131 3110 c0 -14 6 -47 13 -75 18 -65 19 -38 2 40 -8 33 -14 49 -15
35z"/>
<path d="M3186 3079 c12 -84 24 -138 33 -144 8 -4 -25 164 -33 172 -3 3 -3
-10 0 -28z"/>
<path d="M3221 3080 c-1 -21 36 -160 44 -168 4 -4 5 2 1 13 -3 11 -10 43 -15
70 -11 55 -29 109 -30 85z"/>
<path d="M3162 2965 c0 -11 4 -31 8 -45 6 -20 8 -21 8 -5 0 11 -4 31 -8 45 -6
20 -8 21 -8 5z"/>
<path d="M3222 5133 c-6 -15 -14 -41 -17 -58 -3 -16 4 -6 15 24 20 55 22 85 2
34z"/>
<path d="M3176 5115 c-9 -26 -7 -32 5 -12 6 10 9 21 6 23 -2 3 -7 -2 -11 -11z"/>
<path d="M3356 5082 c-3 -5 -7 -42 -9 -83 -3 -41 -3 -60 0 -44 2 17 8 54 12
83 8 51 7 60 -3 44z"/>
<path d="M2800 5175 c0 -8 2 -15 4 -15 2 0 6 7 10 15 3 8 1 15 -4 15 -6 0 -10
-7 -10 -15z"/>
<path d="M5298 4025 c-2 -19 0 -35 4 -35 4 0 8 16 8 35 0 19 -2 35 -4 35 -2 0
-6 -16 -8 -35z"/>
<path d="M5279 3908 c-3 -22 -1 -34 4 -29 5 5 7 21 5 37 -3 27 -4 26 -9 -8z"/>
<path d="M5268 3825 c-2 -19 -1 -35 3 -35 4 0 9 16 11 35 2 19 1 35 -3 35 -4
0 -9 -16 -11 -35z"/>
<path d="M5261 3760 c-1 -14 -4 -36 -6 -50 l-6 -25 11 25 c6 13 9 36 7 50 l-4
25 -2 -25z"/>
<path d="M5201 3309 c-12 -45 -21 -83 -19 -85 3 -2 15 32 28 76 12 45 21 82
19 85 -3 2 -15 -32 -28 -76z"/>
<path d="M4910 2805 c-8 -9 -8 -15 -2 -15 12 0 26 19 19 26 -2 2 -10 -2 -17
-11z"/>
<path d="M4889 2723 c-18 -20 -19 -23 -4 -13 32 24 47 40 37 40 -4 0 -19 -12
-33 -27z"/>
<path d="M1831 3714 c0 -11 3 -14 6 -6 3 7 2 16 -1 19 -3 4 -6 -2 -5 -13z"/>
<path d="M2845 2729 c21 -69 92 -205 102 -195 3 3 -8 29 -24 58 -17 29 -38 75
-48 101 -19 50 -43 78 -30 36z"/>
<path d="M3485 5932 c-26 -83 -34 -121 -25 -127 8 -5 55 173 48 180 -2 3 -13
-21 -23 -53z"/>
<path d="M3296 5878 c-16 -60 -1 -139 23 -124 7 5 11 -1 11 -14 0 -12 4 -19 9
-15 6 3 8 13 7 23 -4 20 -19 103 -21 117 -1 6 -3 16 -3 23 -3 20 -19 14 -26
-10z"/>
<path d="M3932 5863 c-26 -38 -36 -72 -49 -178 -9 -73 5 -50 22 36 7 41 19 85
24 99 11 25 11 15 -4 -142 -4 -39 -1 -52 15 -68 24 -24 36 -25 44 -4 3 8 10
12 16 9 6 -4 3 -16 -10 -32 -35 -44 -22 -46 26 -4 25 22 69 49 98 60 39 15 47
21 33 26 -18 8 -76 2 -112 -10 -23 -8 -4 12 75 76 30 25 42 40 37 52 -9 23
-54 6 -110 -43 -42 -37 -60 -43 -52 -17 2 7 6 37 10 67 7 63 -10 59 -19 -5 -3
-22 -8 -51 -11 -65 -3 -14 -7 -36 -10 -49 -2 -13 -7 -26 -11 -30 -8 -7 3 135
15 197 10 52 -1 62 -27 25z m163 -125 c-22 -18 -59 -51 -82 -75 -24 -23 -43
-39 -43 -34 0 18 61 91 97 115 54 37 75 32 28 -6z"/>
<path d="M3373 5778 c-6 -35 -7 -69 -3 -77 4 -7 10 19 14 59 8 91 2 101 -11
18z"/>
<path d="M3598 5705 c-8 -8 13 -75 24 -75 4 0 8 8 8 18 -1 22 -24 64 -32 57z"/>
<path d="M2199 5548 c-5 -17 -4 -50 3 -54 5 -3 7 8 6 25 -2 26 -6 38 -9 29z"/>
<path d="M4559 2366 c-2 -2 -24 -7 -49 -10 -25 -3 -58 -10 -75 -16 -24 -7 -19
-8 25 -4 59 6 130 22 130 29 0 6 -25 7 -31 1z"/>
<path d="M4753 2358 c-11 -4 1 -7 29 -6 26 1 45 4 43 7 -8 7 -52 7 -72 -1z"/>
<path d="M5057 2360 c-20 -4 -40 -9 -43 -13 -6 -6 78 3 85 9 10 9 -6 10 -42 4z"/>
<path d="M5110 2360 c0 -5 5 -10 10 -10 6 0 10 5 10 10 0 6 -4 10 -10 10 -5 0
-10 -4 -10 -10z"/>
<path d="M5140 2360 c0 -5 5 -10 10 -10 6 0 10 5 10 10 0 6 -4 10 -10 10 -5 0
-10 -4 -10 -10z"/>
<path d="M2575 2320 c-4 -6 6 -7 27 -3 44 8 48 13 10 13 -17 0 -34 -4 -37 -10z"/>
<path d="M4633 2322 c-6 -4 50 -8 125 -8 76 -1 163 -6 195 -11 31 -6 55 -7 51
-4 -21 22 -341 42 -371 23z"/>
<path d="M2448 2283 c23 -2 59 -2 80 0 20 2 1 4 -43 4 -44 0 -61 -2 -37 -4z"/>
<path d="M4527 2283 c-37 -10 -5 -19 47 -13 65 7 187 5 301 -4 194 -16 191
-16 160 -7 -16 5 -59 12 -95 15 -86 9 -390 15 -413 9z"/>
<path d="M2625 2270 l-70 -6 95 -3 c52 -2 111 -5 130 -6 19 -2 114 -6 210 -9
96 -3 200 -8 230 -12 39 -4 52 -3 45 5 -7 7 -86 13 -205 16 -107 3 -211 7
-230 10 -73 9 -137 10 -205 5z"/>
<path d="M3360 2242 c-73 -7 -45 -17 40 -15 52 1 90 -2 90 -7 0 -6 -16 -10
-35 -10 -19 0 -35 -4 -35 -9 0 -12 64 -20 71 -9 3 5 33 9 65 8 140 -4 235 0
229 10 -4 6 24 10 77 11 101 1 92 6 -20 12 -66 3 -85 1 -91 -11 -9 -16 -7 -16
-166 7 -84 12 -177 17 -225 13z m190 -21 c0 -4 -11 -7 -25 -7 -14 0 -25 3 -25
7 0 3 11 7 25 7 14 0 25 -4 25 -7z"/>
<path d="M3970 2220 c0 -5 5 -10 11 -10 5 0 7 5 4 10 -3 6 -8 10 -11 10 -2 0
-4 -4 -4 -10z"/>
<path d="M4140 2220 c-34 -3 -50 -8 -42 -13 19 -12 247 5 262 19 5 6 -137 2
-220 -6z"/>
<path d="M4611 2188 c-74 -13 -70 -16 21 -14 49 0 88 4 88 9 0 4 -6 7 -12 8
-7 0 -22 2 -33 3 -11 1 -40 -2 -64 -6z"/>
<path d="M3844 2177 c-47 -10 -63 -10 -231 -6 -87 3 -136 0 -143 -7 -8 -8 23
-10 112 -9 68 1 152 -1 188 -4 45 -4 68 -2 75 6 7 9 64 13 198 14 103 1 185 4
182 8 -10 9 -335 7 -381 -2z"/>
<path d="M2892 2169 c-61 -13 -42 -15 70 -11 101 4 111 3 100 -11 -16 -19 3
-36 21 -18 7 7 57 11 136 11 138 0 157 7 35 14 -43 3 -106 7 -139 11 -102 10
-188 11 -223 4z"/>
<path d="M3968 2129 c16 -17 362 -27 362 -11 0 5 -66 10 -165 10 -91 1 -176 4
-188 8 -18 5 -20 4 -9 -7z"/>
<path d="M4627 2126 c-3 -8 1 -17 9 -20 8 -3 14 1 14 9 0 11 16 13 78 10 44
-2 68 0 57 4 -11 5 -50 9 -86 10 -51 2 -68 -2 -72 -13z"/>
<path d="M3571 2126 c2 -2 72 -6 154 -9 83 -3 137 -2 120 3 -30 8 -282 13
-274 6z"/>
<path d="M3237 2097 c-36 -12 -36 -32 1 -22 15 4 73 8 129 9 56 0 96 4 90 8
-20 11 -191 15 -220 5z"/>
<path d="M4640 2089 l-55 -6 75 -2 c41 -1 92 -4 113 -5 21 -1 40 1 43 6 3 4
-10 8 -28 9 -18 1 -46 2 -63 3 -16 1 -55 -1 -85 -5z"/>
<path d="M2349 2076 c-172 -48 -307 -177 -311 -299 -3 -86 19 -147 112 -305
24 -40 41 -75 38 -78 -3 -2 -38 1 -79 7 -96 15 -224 8 -267 -15 -37 -19 -61
-65 -54 -101 10 -53 100 -117 211 -151 86 -27 169 -13 227 38 40 36 74 96 74
133 0 14 2 25 4 25 13 0 172 -53 179 -59 4 -4 1 -32 -6 -62 -22 -84 -8 -146
47 -200 41 -41 105 -44 189 -10 56 22 237 154 237 172 0 21 -33 6 -102 -46
-182 -138 -288 -150 -288 -34 0 73 15 94 80 113 83 25 137 66 146 111 8 43 2
59 -28 79 -61 40 -140 23 -205 -43 l-46 -47 -107 31 c-99 28 -109 33 -127 65
-11 19 -39 67 -63 105 -100 161 -104 274 -12 376 112 125 346 166 407 72 32
-48 -5 -152 -96 -265 -32 -41 -37 -58 -15 -58 17 0 91 100 131 179 22 41 28
68 29 116 1 76 -18 108 -85 142 -51 26 -144 30 -220 9z m-206 -717 l68 -11 -4
-35 c-10 -73 -110 -136 -203 -128 -59 5 -120 33 -154 71 -35 40 -37 54 -12 83
30 38 151 45 305 20z m612 -19 c12 -20 -26 -61 -78 -86 -73 -34 -82 -31 -51
16 40 61 111 99 129 70z"/>
<path d="M3319 2044 c-9 -11 -8 -15 5 -19 9 -3 23 -7 32 -10 14 -5 15 -3 4 10
-12 15 -4 16 85 11 60 -4 95 -2 89 3 -5 5 -53 12 -106 14 -75 4 -100 2 -109
-9z"/>
<path d="M3728 2050 c-26 -3 -50 -9 -54 -13 -4 -3 14 -4 40 -2 26 3 105 6 177
7 79 2 119 6 102 10 -30 8 -187 7 -265 -2z"/>
<path d="M3920 2000 l-25 -8 28 -1 c15 -1 27 4 27 9 0 6 -1 10 -2 9 -2 -1 -14
-5 -28 -9z"/>
<path d="M3405 1990 c44 -10 121 -13 113 -5 -3 3 -38 7 -79 10 -60 3 -66 2
-34 -5z"/>
<path d="M3991 1996 c2 -2 45 -5 94 -8 50 -3 77 -2 60 2 -30 8 -162 13 -154 6z"/>
<path d="M4866 1849 c-14 -11 -26 -29 -26 -40 0 -29 61 -26 97 5 24 20 25 26
14 40 -18 22 -53 20 -85 -5z"/>
<path d="M5236 1703 c7 -73 9 -152 5 -214 0 -17 -8 -28 -20 -32 -47 -12 -128
75 -195 211 -33 65 -39 72 -66 72 -20 0 -35 -8 -46 -25 -15 -24 -15 -28 15
-89 17 -36 31 -66 31 -68 0 -2 -16 -12 -35 -22 l-36 -20 -74 38 c-60 31 -80
37 -108 32 -76 -14 -107 -66 -107 -181 0 -54 17 -157 35 -210 5 -15 0 -12 -18
9 -32 37 -80 136 -97 199 -9 33 -20 51 -34 57 -28 10 -65 -8 -72 -34 -4 -19
10 -78 31 -128 5 -12 3 -18 -7 -18 -9 0 -24 -32 -41 -87 -33 -103 -74 -190
-94 -197 -8 -4 -27 6 -43 22 -32 32 -57 128 -64 252 -4 56 -9 78 -22 87 -20
15 -53 8 -71 -14 -8 -10 -21 -12 -45 -8 -40 8 -101 -14 -131 -45 -23 -25 -62
-104 -75 -151 -22 -82 6 -208 56 -252 32 -29 91 -32 130 -7 33 20 82 106 82
143 0 27 16 20 30 -13 29 -71 110 -101 162 -61 35 28 77 110 113 224 l32 98
28 -48 c66 -114 132 -171 183 -158 39 10 42 22 20 84 -52 148 -68 305 -35 338
15 15 20 15 65 -10 66 -36 98 -34 190 12 l78 39 44 -56 c56 -70 117 -107 164
-98 69 13 87 65 81 231 -5 141 -11 175 -32 175 -12 0 -13 -13 -7 -77z m-1155
-419 c17 -21 18 -213 1 -271 -17 -59 -52 -98 -79 -89 -27 9 -54 76 -57 142 -4
82 37 184 87 219 27 19 31 19 48 -1z"/>
<path d="M3550 1320 c-51 -51 -72 -250 -34 -326 l20 -41 -26 -60 c-52 -122
-76 -136 -104 -60 -25 68 -34 154 -31 297 1 78 -2 140 -8 148 -15 19 -55 14
-67 -8 -6 -11 -29 -73 -51 -137 -40 -115 -64 -170 -92 -207 -14 -19 -16 -19
-40 -3 -43 28 -62 104 -62 245 0 125 -5 141 -42 142 -65 1 -79 -228 -22 -359
24 -58 54 -88 98 -101 28 -8 36 -5 65 20 32 28 88 131 102 185 10 40 19 36 20
-8 3 -191 62 -330 140 -329 41 0 71 42 135 190 15 35 23 42 45 42 42 0 103 34
169 94 43 38 57 57 49 65 -7 8 -21 1 -50 -25 -59 -54 -119 -94 -155 -101 -26
-5 -31 -3 -26 9 44 115 73 278 56 311 -23 42 -57 49 -89 17z m57 -84 c-4 -52
-42 -211 -54 -226 -12 -14 -23 34 -23 96 0 76 21 164 46 189 26 26 37 7 31
-59z"/>
</g>
</svg>
