<svg xmlns="http://www.w3.org/2000/svg" viewBox="143 396 285 113">
  <path fill="#000" d="M236.26 470.49q-2.6 2.07-4.19 3.31t-4.64 3.46q-3.05 2.22-5.3 3.54a41.43 41.43 0 01-5 2.47 18.88 18.88 0 01-4.93 1.41 5.84 5.84 0 01-4.4-2.52q-2.08-2.95-.26-8.83.59-1.89 1.21-3.54a33.11 33.11 0 0010.3-3.32q5-2.54 6.43-6.82v-.1a5.05 5.05 0 00-.8-4.85 7.81 7.81 0 00-4-2.63q-5.67-1.76-11.52 2.07a19.17 19.17 0 00-6.3 7.17 1.46 1.46 0 00-.75-.57 128.76 128.76 0 00-16.81-5.06c-.14-.34-.27-.62-.38-.86s-.3-.73-.46-1.17l-.09-.05a29.23 29.23 0 00-3.15-5.05q-1.83-2.74-2.87-4.44t-2.61-4.67a28.89 28.89 0 01-2.25-5.28 42.66 42.66 0 01-1.14-5.21 15.93 15.93 0 01.07-5.64 16.67 16.67 0 012-5.31 26.35 26.35 0 016.19-7.14 29.27 29.27 0 017.69-4.6 36.38 36.38 0 017.77-2.12 26.65 26.65 0 016.92-.26 12.09 12.09 0 014.76 1.34 7.74 7.74 0 014 5.06q.63 3.05-1.47 7.69l-.06.1a63.64 63.64 0 01-9.62 14.37 1.1 1.1 0 00.17 1.76 1.12 1.12 0 001.78-.1 67.13 67.13 0 0010.11-15q3-6.64 2.18-11.49a10 10 0 00-1.89-4.69 13.72 13.72 0 00-4.09-3.56q-7.49-4.42-19.76-.92a41.46 41.46 0 00-13.44 6.44 28.42 28.42 0 00-8.74 9.73 18.82 18.82 0 00-2.04 12.39 19.08 19.08 0 001.43 5.7 44.3 44.3 0 002.38 5.17q1.12 2 3.37 5.76a67.54 67.54 0 015.49 10.39l-3.89-.76q-23.74-3.91-28.16 3.57a9.59 9.59 0 00-1 2.35v.15a7 7 0 001.15 5.4 16.7 16.7 0 005.85 5.24q12.51 7.38 22.11 4.74 6.83-1.84 10.82-8.82a11.79 11.79 0 001.45-7.44 117.15 117.15 0 0115.26 4.66 1.64 1.64 0 00.71.12 34.58 34.58 0 00-1.41 3.75q-2.34 7.57.3 13t7.16 6.82a11.71 11.71 0 004.12.47l.49-.08a23.16 23.16 0 006.36-1.77 40.9 40.9 0 007.18-4q3.81-2.62 6-4.29t5.8-4.59a1.19 1.19 0 00.12-1.86 1.1 1.1 0 00-1.71-.19zM219.73 457a3.23 3.23 0 012.75 0 1.52 1.52 0 01.46 1.87 9.6 9.6 0 01-4.71 5 28.35 28.35 0 01-8.13 3q4.27-8.23 9.63-9.87zm-42.19 6q-3.35 5.69-10.74 7a19 19 0 01-13.26-2.2l-.09-.06a21.09 21.09 0 01-3.31-2.4 11.68 11.68 0 01-2.37-2.8 3.93 3.93 0 01-.62-2.73 5.92 5.92 0 01.65-1.53q2.07-3.5 10.58-3.53a107.65 107.65 0 0120 2.15 8.6 8.6 0 01-.85 6.1zM307.61 475.39l-.93.94q-2.9 2.83-4.85 4.43t-4.24 3.24a16.25 16.25 0 01-4.3 2.31 10.84 10.84 0 01-4 .57q5.19-15.37 5.55-22.63a6.88 6.88 0 00-1.39-5.14 4.17 4.17 0 00-3-1.37q-3.62-.18-5.69 5.66a34.74 34.74 0 00-2.24 12.6q-.1 7.32 2.26 10.85a4.93 4.93 0 001.25 1.5l-.12.21a99.56 99.56 0 01-4 9.93q-2.43 4.39-3.63 4.33a2.08 2.08 0 01-1.49-1.07q-2.9-3.67-3.89-15.62t.37-19.26a4.45 4.45 0 00-.38-3.33 3.72 3.72 0 00-2.11-1.76 4.29 4.29 0 00-2.54.2 3 3 0 00-1.74 1.78.1.1 0 00-.12.1 1.81 1.81 0 00-.14.54q-.39 1.08-1.42 4.11-4 12.13-6.52 17.73-.49 1-1 2-2.06 3.75-3.08 4.25a5.57 5.57 0 01-3.64-2.17q-2.68-3.55-3.56-11.14a44.66 44.66 0 01.31-13.7 5.06 5.06 0 00-.43-3.38 3.56 3.56 0 00-2.12-1.71 3.68 3.68 0 00-2.65.2 3 3 0 00-1.69 1.9 20.31 20.31 0 00-1.23 5.83 55.92 55.92 0 00-.14 8.09 44.29 44.29 0 001.37 8.77 24.73 24.73 0 003.09 7.43q3.06 4.78 7.78 5 4 .2 8.22-8v-.22a.31.31 0 00.12-.21 105 105 0 005.15-12.51 83.87 83.87 0 001 15.42q1.21 7.5 4 11.71t6.5 4.29a4.76 4.76 0 001-.05 5.36 5.36 0 001.76-1.07 11.49 11.49 0 002.46-2.79 52.63 52.63 0 003-5.63 93.07 93.07 0 003.77-9.23h.71a14.62 14.62 0 008.83-2.58 81 81 0 0010.57-8.66 1.25 1.25 0 000-1.93zm-20.67 10.18v-.11q-1.84-2.84-1.79-9.29a34.08 34.08 0 012.09-11.84q1.41-4 3.06-3.92a1.64 1.64 0 011.19.5 4.49 4.49 0 01.72 3.23q-.34 6.7-5.27 21.43zM359.1 462.48l-1.28-.37-.38 1.23-.44 1.46a120.49 120.49 0 01-5.36 15.58h-.11l-.05.24q-2.21 4.39-3.09 4.95a3.44 3.44 0 01-3.2-.58q-2.1-1.64-3.57-6.26a48.74 48.74 0 01-2-9.59 79.4 79.4 0 01-.49-9.39 3.79 3.79 0 00-1-3 4 4 0 00-2.72-1.15 6.3 6.3 0 00-2 .38 4.48 4.48 0 00-1.75 1.16 2.52 2.52 0 00-.74 1.82h-.11a1.78 1.78 0 00-.51-.22q-2.74-1.48-6.91-.46-6 1.46-10 10.16a25.63 25.63 0 00-1.92 17.34q1.6 6.52 5.08 8.95a8.48 8.48 0 007.12 1.54q6.41-1.57 9-11.37a45.63 45.63 0 00.93-5q2.16 6.5 5.32 9.23a7.54 7.54 0 007 1.69q4.17-1 7.89-9a.1.1 0 00.08-.13l.19-.16a.33.33 0 01.05-.24 136.84 136.84 0 005.52-15.85l.43-1.47a1.13 1.13 0 00-.98-1.49zm-27.4 10.45a63.21 63.21 0 01-1.7 11.16v.11a16.84 16.84 0 01-2.06 5 5.3 5.3 0 01-3 2.6q-1.18.29-2.81-1.52a12.78 12.78 0 01-2.55-5.55 23.55 23.55 0 01.8-14.07q2.55-6.91 6.43-9.11a3.44 3.44 0 012.27-.44 8.7 8.7 0 011 .67 8 8 0 01.61.64 67 67 0 001 9.82.68.68 0 00-.08.36 1.41 1.41 0 00.1.32zM393.53 421.51a7.37 7.37 0 003.63-.68 7 7 0 002.93-2.23 2.45 2.45 0 00.53-2.48 2.5 2.5 0 00-2.22-1.28 6.76 6.76 0 00-3.67.72 7.33 7.33 0 00-2.9 2.27 2.42 2.42 0 00-.49 2.45 2.38 2.38 0 002.19 1.23zM426.92 441.52a146.85 146.85 0 00-1.25-16.73l-.19-1.52a1.13 1.13 0 00-1.46-1.1l-1.32.17s0 .43.14 1.28l.19 1.52a128.19 128.19 0 011.21 16.49v.24q-.28 4.91-.86 5.77a3.66 3.66 0 01-3.16.75q-2.58-.66-5.77-4.32a48.72 48.72 0 01-5.66-8 79.6 79.6 0 01-4.19-8.42 3.78 3.78 0 00-2.15-2.37 4 4 0 00-2.95 0 5.12 5.12 0 00-2.43 2 3.3 3.3 0 00-.44 3 54.77 54.77 0 004 8.31c.35.63.74 1.25 1.14 1.88a1.27 1.27 0 00-.93.09l-4.31 2.21a2.87 2.87 0 01-2.36.1 21.75 21.75 0 01-3.61-1.86 25.35 25.35 0 00-2.82-1.77 24.19 24.19 0 00-3-1.2 8.36 8.36 0 00-3.79-.41 12 12 0 00-4 1.29q-2.94 1.51-4.27 5.9a29.54 29.54 0 00-.68 11.22.85.85 0 00.05.34 77.86 77.86 0 003.6 15.71A49.17 49.17 0 01365 450.88a4.31 4.31 0 00-1.08-2.11 3.49 3.49 0 00-1.68-1 5.12 5.12 0 00-1.94-.05 4.88 4.88 0 00-2.71 1.58 3.13 3.13 0 00-.88 2.74q.7 5.7 5.48 14.31t9.69 12.4a7.66 7.66 0 003.63 1.29 6.22 6.22 0 003.56-.53 3.21 3.21 0 001-.75 1.76 1.76 0 00.28-1.87v-.1a87.33 87.33 0 01-5.57-20.75l-.05-.1q-.73-9.39 2-10.79a2.38 2.38 0 011.87-.22 12.06 12.06 0 012.57 1.4q1.14.78 1.76 1.14a13.87 13.87 0 001.93.87 8 8 0 002.39.57 10.73 10.73 0 002.66-.25 12 12 0 003.14-1.11l.1-.05 1.32-.68 1.76-.9 1.62-.83.78-.4 3.52-1.81a1.07 1.07 0 00.68-1 65.29 65.29 0 005 6.56q4.35 5 8.34 6.24a7.54 7.54 0 007.08-1.23q3.41-2.6 3.66-11.36v-.15l.11-.22a.32.32 0 01-.1-.2z"/>
</svg>
